<svg width="152" height="46" viewBox="0 0 152 46" fill="none" xmlns="http://www.w3.org/2000/svg">
<rect width="151.093" height="46" rx="5" fill="currentColor"/>
<g clip-path="url(#clip0_532_5423)">
<g clip-path="url(#clip1_532_5423)">
<path d="M25.4064 36.0002C21.5368 35.9779 18.3359 28.0788 18.3359 24.0559C18.3359 17.4846 23.2655 16.046 25.1654 16.046C26.0215 16.046 26.9357 16.3822 27.7421 16.6797C28.306 16.8873 28.8891 17.1015 29.2135 17.1015C29.4076 17.1015 29.8651 16.9193 30.269 16.7594C31.1304 16.4164 32.2023 15.9902 33.4505 15.9902C33.4528 15.9902 33.4558 15.9902 33.4579 15.9902C34.39 15.9902 37.216 16.1948 38.9149 18.7462L39.3129 19.3443L38.7402 19.7765C37.9219 20.3939 36.4289 21.5201 36.4289 23.751C36.4289 26.3932 38.1198 27.4093 38.9321 27.898C39.2906 28.1138 39.6618 28.3362 39.6618 28.8227C39.6618 29.1403 37.1267 35.9608 33.4453 35.9608C32.5445 35.9608 31.9077 35.69 31.3461 35.4512C30.7778 35.2095 30.2876 35.0012 29.4775 35.0012C29.0669 35.0012 28.5476 35.1953 27.9979 35.4014C27.2467 35.6818 26.3964 36.0002 25.4317 36.0002H25.4064Z" fill="currentColor"/>
<path d="M33.8416 10C33.9375 13.457 31.4652 15.8553 28.9958 15.7049C28.5889 12.9461 31.4649 10 33.8416 10Z" fill="currentColor"/>
</g>
<path d="M53.7188 33.3327L58.5188 22.0527H60.7908L65.5908 33.3327H63.0148L61.9908 30.8207H57.2548L56.2308 33.3327H53.7188ZM58.1348 28.6447H61.1108L59.6228 25.0127L58.1348 28.6447Z" fill="currentColor"/>
<path d="M67.0634 35.8927V24.7567H69.4954V25.9887C70.178 25.0607 71.0687 24.5967 72.1674 24.5967C73.234 24.5967 74.1514 24.9967 74.9194 25.7967C75.6874 26.5967 76.0714 27.6847 76.0714 29.0607C76.0714 30.426 75.6874 31.5087 74.9194 32.3087C74.162 33.098 73.2447 33.4927 72.1674 33.4927C71.1007 33.4927 70.21 33.066 69.4954 32.2127V35.8927H67.0634ZM70.0554 30.7727C70.4607 31.21 70.9567 31.4287 71.5434 31.4287C72.13 31.4287 72.626 31.21 73.0314 30.7727C73.4367 30.3247 73.6394 29.7433 73.6394 29.0287C73.6394 28.3353 73.4367 27.77 73.0314 27.3327C72.626 26.8847 72.13 26.6607 71.5434 26.6607C70.9567 26.6607 70.4607 26.8847 70.0554 27.3327C69.6607 27.77 69.4634 28.346 69.4634 29.0607C69.4634 29.754 69.6607 30.3247 70.0554 30.7727Z" fill="currentColor"/>
<path d="M77.8603 35.8927V24.7567H80.2922V25.9887C80.9749 25.0607 81.8656 24.5967 82.9643 24.5967C84.0309 24.5967 84.9483 24.9967 85.7163 25.7967C86.4843 26.5967 86.8683 27.6847 86.8683 29.0607C86.8683 30.426 86.4843 31.5087 85.7163 32.3087C84.9589 33.098 84.0416 33.4927 82.9643 33.4927C81.8976 33.4927 81.0069 33.066 80.2922 32.2127V35.8927H77.8603ZM80.8522 30.7727C81.2576 31.21 81.7536 31.4287 82.3403 31.4287C82.9269 31.4287 83.4229 31.21 83.8283 30.7727C84.2336 30.3247 84.4363 29.7433 84.4363 29.0287C84.4363 28.3353 84.2336 27.77 83.8283 27.3327C83.4229 26.8847 82.9269 26.6607 82.3403 26.6607C81.7536 26.6607 81.2576 26.8847 80.8522 27.3327C80.4576 27.77 80.2603 28.346 80.2603 29.0607C80.2603 29.754 80.4576 30.3247 80.8522 30.7727Z" fill="currentColor"/>
<path d="M97.694 33.4927C95.8593 33.4927 94.2753 32.8953 92.942 31.7007L94.398 29.9567C95.4967 30.8633 96.6113 31.3167 97.742 31.3167C98.2433 31.3167 98.638 31.2207 98.926 31.0287C99.214 30.8367 99.358 30.57 99.358 30.2287C99.358 29.9087 99.2087 29.6527 98.91 29.4607C98.6113 29.258 98.0087 29.0393 97.102 28.8047C96.462 28.6447 95.9447 28.49 95.55 28.3407C95.1553 28.1807 94.7767 27.9727 94.414 27.7167C94.062 27.4607 93.8007 27.1407 93.63 26.7567C93.47 26.362 93.39 25.8927 93.39 25.3487C93.39 24.3353 93.7527 23.5193 94.478 22.9007C95.214 22.282 96.158 21.9727 97.31 21.9727C98.8993 21.9727 100.286 22.4473 101.47 23.3967L100.19 25.2527C99.134 24.5167 98.1633 24.1487 97.278 24.1487C96.8193 24.1487 96.462 24.2447 96.206 24.4367C95.9607 24.618 95.838 24.858 95.838 25.1567C95.838 25.5193 95.9927 25.7913 96.302 25.9727C96.6113 26.154 97.262 26.3727 98.254 26.6287C99.47 26.9487 100.366 27.3593 100.942 27.8607C101.518 28.362 101.806 29.082 101.806 30.0207C101.806 31.1087 101.427 31.962 100.67 32.5807C99.9233 33.1887 98.9313 33.4927 97.694 33.4927Z" fill="currentColor"/>
<path d="M106.506 33.4767C105.706 33.4767 105.088 33.2847 104.65 32.9007C104.224 32.506 104.01 31.8393 104.01 30.9007V26.8367H102.986V24.7567H104.01V22.5647H106.442V24.7567H108.458V26.8367H106.442V30.5007C106.442 31.0553 106.704 31.3327 107.226 31.3327C107.653 31.3327 108.053 31.2313 108.426 31.0287V32.9807C107.872 33.3113 107.232 33.4767 106.506 33.4767Z" fill="currentColor"/>
<path d="M117.537 32.2287C116.651 33.0927 115.547 33.5247 114.225 33.5247C112.902 33.5247 111.798 33.098 110.913 32.2447C110.038 31.3807 109.601 30.3193 109.601 29.0607C109.601 27.8127 110.043 26.7567 110.929 25.8927C111.825 25.0287 112.934 24.5967 114.257 24.5967C115.579 24.5967 116.678 25.0287 117.553 25.8927C118.438 26.746 118.881 27.802 118.881 29.0607C118.881 30.3087 118.433 31.3647 117.537 32.2287ZM114.257 31.4287C114.929 31.4287 115.467 31.2047 115.873 30.7567C116.278 30.298 116.481 29.7327 116.481 29.0607C116.481 28.41 116.267 27.8553 115.841 27.3967C115.425 26.9273 114.886 26.6927 114.225 26.6927C113.553 26.6927 113.014 26.922 112.609 27.3807C112.203 27.8287 112.001 28.3887 112.001 29.0607C112.001 29.7113 112.209 30.2713 112.625 30.7407C113.051 31.1993 113.595 31.4287 114.257 31.4287Z" fill="currentColor"/>
<path d="M120.642 33.3327V24.7567H123.074V26.4847C123.628 25.1727 124.54 24.5433 125.81 24.5967V27.1407H125.682C124.85 27.1407 124.204 27.3967 123.746 27.9087C123.298 28.41 123.074 29.162 123.074 30.1647V33.3327H120.642Z" fill="currentColor"/>
<path d="M131.159 33.5247C129.857 33.5247 128.785 33.114 127.943 32.2927C127.1 31.4607 126.679 30.3833 126.679 29.0607C126.679 27.8127 127.079 26.7567 127.879 25.8927C128.679 25.0287 129.692 24.5967 130.919 24.5967C132.273 24.5967 133.308 25.0447 134.023 25.9407C134.737 26.8367 135.095 27.9407 135.095 29.2527C135.095 29.3807 135.084 29.594 135.063 29.8927H129.095C129.212 30.4367 129.452 30.8527 129.815 31.1407C130.177 31.4287 130.636 31.5727 131.191 31.5727C131.948 31.5727 132.641 31.2793 133.271 30.6927L134.663 31.9247C133.799 32.9913 132.631 33.5247 131.159 33.5247ZM129.063 28.3727H132.727C132.652 27.818 132.455 27.3753 132.135 27.0447C131.825 26.714 131.42 26.5487 130.919 26.5487C130.428 26.5487 130.017 26.714 129.687 27.0447C129.367 27.3647 129.159 27.8073 129.063 28.3727Z" fill="currentColor"/>
<path d="M54 17.2062V16.268C54.5773 16.6907 55.232 16.9021 55.9639 16.9021C56.4966 16.9021 56.9192 16.7732 57.232 16.5155C57.5481 16.2577 57.7062 15.9107 57.7062 15.4742C57.7062 14.5258 57.0653 14.0515 55.7835 14.0515H55.0155V13.3351H55.7216C56.268 13.3351 56.6907 13.2165 56.9897 12.9794C57.2921 12.7423 57.4433 12.4072 57.4433 11.9742C57.4433 11.6031 57.3179 11.3058 57.067 11.0825C56.8196 10.8591 56.4777 10.7474 56.0412 10.7474C55.4227 10.7474 54.8213 10.9416 54.2371 11.3299V10.4536C54.7801 10.1512 55.4055 10 56.1134 10C56.8144 10 57.366 10.1667 57.768 10.5C58.1701 10.8333 58.3711 11.2715 58.3711 11.8144C58.3711 12.7732 57.9038 13.378 56.9691 13.6289V13.6495C57.4777 13.7079 57.8814 13.8986 58.1804 14.2216C58.4794 14.5447 58.6289 14.945 58.6289 15.4227C58.6289 16.0997 58.3883 16.6392 57.9072 17.0412C57.4261 17.4399 56.768 17.6392 55.933 17.6392C55.0979 17.6392 54.4536 17.4948 54 17.2062Z" fill="currentColor"/>
<path d="M63.8402 17.5155H62.9948V16.6907H62.9742C62.6065 17.323 62.0653 17.6392 61.3505 17.6392C60.8247 17.6392 60.4124 17.5 60.1134 17.2216C59.8179 16.9433 59.6701 16.5739 59.6701 16.1134C59.6701 15.1271 60.2509 14.5533 61.4124 14.3918L62.9948 14.1701C62.9948 13.2732 62.6323 12.8247 61.9072 12.8247C61.2715 12.8247 60.6976 13.0412 60.1856 13.4742V12.6082C60.7045 12.2784 61.3024 12.1134 61.9794 12.1134C63.2199 12.1134 63.8402 12.7698 63.8402 14.0825V17.5155ZM62.9948 14.8454L61.7217 15.0206C61.3299 15.0756 61.0344 15.1735 60.8351 15.3144C60.6357 15.4519 60.5361 15.6976 60.5361 16.0515C60.5361 16.3093 60.6271 16.5206 60.8093 16.6856C60.9948 16.8471 61.2406 16.9278 61.5464 16.9278C61.9656 16.9278 62.311 16.7818 62.5825 16.4897C62.8574 16.1942 62.9948 15.8213 62.9948 15.3711V14.8454Z" fill="currentColor"/>
<path d="M68.366 12.9588H66.2784V17.5155H65.433V12.2371H68.366V12.9588Z" fill="#currentColor"/>
<path d="M70.3402 16.7526H70.3196V19.9433H69.4742V12.2371H70.3196V13.1649H70.3402C70.756 12.4639 71.3643 12.1134 72.1649 12.1134C72.8454 12.1134 73.3763 12.3505 73.7577 12.8247C74.1392 13.2955 74.3299 13.9278 74.3299 14.7216C74.3299 15.6048 74.1151 16.3127 73.6856 16.8454C73.256 17.3746 72.6684 17.6392 71.9227 17.6392C71.2388 17.6392 70.7113 17.3436 70.3402 16.7526ZM70.3196 14.6237V15.3608C70.3196 15.7973 70.4605 16.1684 70.7423 16.4742C71.0275 16.7766 71.3883 16.9278 71.8247 16.9278C72.3368 16.9278 72.7371 16.732 73.0258 16.3402C73.3179 15.9485 73.4639 15.4038 73.4639 14.7062C73.4639 14.1186 73.3282 13.6581 73.0567 13.3247C72.7852 12.9914 72.4175 12.8247 71.9536 12.8247C71.4622 12.8247 71.067 12.9966 70.768 13.3402C70.4691 13.6804 70.3196 14.1082 70.3196 14.6237Z" fill="currentColor"/>
<path d="M79.8814 12.2371L77.4536 18.3608C77.0206 19.4536 76.4124 20 75.6289 20C75.4089 20 75.2251 19.9777 75.0773 19.933V19.1753C75.2595 19.2371 75.4261 19.268 75.5773 19.268C76.0034 19.268 76.323 19.0137 76.5361 18.5052L76.9588 17.5052L74.8969 12.2371H75.8351L77.2629 16.299C77.2801 16.3505 77.3162 16.4845 77.3711 16.701H77.4021C77.4192 16.6186 77.4536 16.488 77.5052 16.3093L79.0052 12.2371H79.8814Z" fill="currentColor"/>
<path d="M80.3505 17.366V16.5361C80.811 16.7938 81.3488 16.9227 81.9639 16.9227C82.8952 16.9227 83.3608 16.6271 83.3608 16.0361C83.3608 15.4519 82.8505 15.1598 81.8299 15.1598H81.3093V14.4433H81.8041C82.701 14.4433 83.1495 14.1649 83.1495 13.6082C83.1495 13.3711 83.0464 13.1821 82.8402 13.0412C82.634 12.9003 82.3522 12.8299 81.9948 12.8299C81.4828 12.8299 80.9691 12.9588 80.4536 13.2165V12.4278C81.0378 12.2148 81.5739 12.1082 82.0619 12.1082C83.3471 12.1082 83.9897 12.5808 83.9897 13.5258C83.9897 13.8316 83.8935 14.0962 83.701 14.3196C83.512 14.5395 83.2457 14.6856 82.9021 14.7577V14.7835C83.2938 14.8144 83.6082 14.9467 83.8454 15.1804C84.0825 15.4141 84.201 15.7096 84.201 16.067C84.201 16.5481 84.0069 16.9313 83.6186 17.2165C83.2302 17.5017 82.6959 17.6443 82.0155 17.6443C81.2904 17.6443 80.7354 17.5515 80.3505 17.366Z" fill="currentColor"/>
<path d="M89.9278 17.5155H89.165V13.3041C89.0893 13.4519 88.9742 13.6598 88.8196 13.9278L86.3814 17.5155H85.5052V12.2371H86.2784V16.3969C86.3196 16.2973 86.4089 16.1271 86.5464 15.8866L89.0515 12.2371H89.9278V17.5155Z" fill="currentColor"/>
<path d="M94.9536 12.9588H93.3711V17.5155H92.5258V12.9588H90.9381V12.2371H94.9536V12.9588Z" fill="#currentColor"/>
<path d="M100.211 15.0876H96.4845C96.4983 15.6753 96.6564 16.1289 96.9588 16.4485C97.2612 16.768 97.677 16.9278 98.2062 16.9278C98.8007 16.9278 99.3471 16.732 99.8454 16.3402V17.134C99.3814 17.4708 98.768 17.6392 98.0052 17.6392C97.2595 17.6392 96.6735 17.4003 96.2474 16.9227C95.8213 16.4416 95.6082 15.7663 95.6082 14.8969C95.6082 14.0756 95.8402 13.4072 96.3041 12.8918C96.7715 12.3729 97.3505 12.1134 98.0412 12.1134C98.732 12.1134 99.2663 12.3368 99.6443 12.7835C100.022 13.2302 100.211 13.8505 100.211 14.6443V15.0876ZM99.3454 14.3711C99.3419 13.8832 99.2234 13.5034 98.9897 13.232C98.7595 12.9605 98.4381 12.8247 98.0258 12.8247C97.6272 12.8247 97.2887 12.9674 97.0103 13.2526C96.732 13.5378 96.5601 13.9107 96.4948 14.3711H99.3454Z" fill="currentColor"/>
<path d="M104.392 17.5155V12.2371H106.691C107.21 12.2371 107.619 12.3522 107.918 12.5825C108.22 12.8127 108.371 13.1271 108.371 13.5258C108.371 14.2096 108.034 14.6254 107.361 14.7732C108.168 14.8763 108.572 15.2835 108.572 15.9948C108.572 16.4244 108.406 16.7852 108.072 17.0773C107.742 17.3694 107.332 17.5155 106.84 17.5155H104.392ZM105.237 12.9588V14.4433H106.505C107.186 14.4433 107.526 14.1787 107.526 13.6495C107.526 13.189 107.22 12.9588 106.608 12.9588H105.237ZM105.237 15.1649V16.7938H106.701C107.385 16.7938 107.727 16.5172 107.727 15.9639C107.727 15.4313 107.344 15.1649 106.577 15.1649H105.237Z" fill="currentColor"/>
</g>
<defs>
<clipPath id="clip0_532_5423">
<rect width="119.093" height="26" fill="currentColor" transform="translate(16 10)"/>
</clipPath>
<clipPath id="clip1_532_5423">
<rect width="26" height="26" fill="currentColor" transform="translate(16 10)"/>
</clipPath>
</defs>
</svg>
