<svg width="54" height="54" viewBox="0 0 54 54" fill="none" xmlns="http://www.w3.org/2000/svg">
<g clip-path="url(#clip0_380_12321)">
<path d="M53.1383 48.8296H0.861702C0.385813 48.8296 0 49.2154 0 49.6913C0 50.1672 0.385813 50.553 0.861702 50.553H53.1383C53.6143 50.553 54 50.1672 54 49.6913C54 49.2154 53.6143 48.8296 53.1383 48.8296Z" fill="#1D252C"/>
<path d="M53.1383 52.2764H0.861702C0.385813 52.2764 0 52.6622 0 53.1381C0 53.614 0.385813 53.9998 0.861702 53.9998H53.1383C53.6143 53.9998 54 53.614 54 53.1381C54 52.6622 53.6143 52.2764 53.1383 52.2764Z" fill="#1D252C"/>
<path d="M53.1383 3.44681H50.266V2.58511C50.266 1.15962 49.1062 0 47.6809 0C46.2555 0 45.0957 1.15962 45.0957 2.58511V3.44681H36.4787V2.58511C36.4787 1.15962 35.319 0 33.8936 0C32.4682 0 31.3085 1.15962 31.3085 2.58511V3.44681H22.6915V2.58511C22.6915 1.15962 21.5319 0 20.1064 0C18.6809 0 17.5213 1.15962 17.5213 2.58511V3.44681H8.90425V2.58511C8.90425 1.15962 7.74463 0 6.31915 0C4.89366 0 3.73404 1.15962 3.73404 2.58511V3.44681H0.861702C0.385813 3.44681 0 3.83262 0 4.30851V46.2447C0 46.7206 0.385813 47.1064 0.861702 47.1064H53.1383C53.6143 47.1064 54 46.7206 54 46.2447V4.30851C54 3.83262 53.6143 3.44681 53.1383 3.44681ZM46.8191 2.58511C46.8191 2.10991 47.2057 1.7234 47.6809 1.7234C48.1561 1.7234 48.5426 2.10991 48.5426 2.58511V6.03192C48.5426 6.50712 48.1561 6.89362 47.6809 6.89362C47.2057 6.89362 46.8191 6.50712 46.8191 6.03192V2.58511ZM33.0319 2.58511C33.0319 2.10991 33.4184 1.7234 33.8936 1.7234C34.3688 1.7234 34.7553 2.10991 34.7553 2.58511V6.03192C34.7553 6.50712 34.3688 6.89362 33.8936 6.89362C33.4184 6.89362 33.0319 6.50712 33.0319 6.03192V2.58511ZM19.2447 2.58511C19.2447 2.10991 19.6312 1.7234 20.1064 1.7234C20.5816 1.7234 20.9681 2.10991 20.9681 2.58511V6.03192C20.9681 6.50712 20.5816 6.89362 20.1064 6.89362C19.6312 6.89362 19.2447 6.50712 19.2447 6.03192V2.58511ZM5.45745 2.58511C5.45745 2.10991 5.84395 1.7234 6.31915 1.7234C6.79435 1.7234 7.18085 2.10991 7.18085 2.58511V6.03192C7.18085 6.50712 6.79435 6.89362 6.31915 6.89362C5.84395 6.89362 5.45745 6.50712 5.45745 6.03192V2.58511ZM3.73404 5.17021V6.03192C3.73404 7.4574 4.89366 8.61702 6.31915 8.61702C7.74463 8.61702 8.90425 7.4574 8.90425 6.03192V5.17021H17.5213V6.03192C17.5213 7.4574 18.6809 8.61702 20.1064 8.61702C21.5319 8.61702 22.6915 7.4574 22.6915 6.03192V5.17021H31.3085V6.03192C31.3085 7.4574 32.4682 8.61702 33.8936 8.61702C35.319 8.61702 36.4787 7.4574 36.4787 6.03192V5.17021H45.0957V6.03192C45.0957 7.4574 46.2555 8.61702 47.6809 8.61702C49.1062 8.61702 50.266 7.4574 50.266 6.03192V5.17021H52.2766V14.0515H1.7234V5.17021H3.73404ZM1.7234 45.383V15.7749H52.2766V45.383H1.7234Z" fill="#1D252C"/>
<path d="M47.3363 26.0581H43.8895C43.4135 26.0581 43.0278 26.4439 43.0278 26.9198C43.0278 27.3957 43.4135 27.7815 43.8895 27.7815H47.3363C47.8123 27.7815 48.198 27.3957 48.198 26.9198C48.198 26.4439 47.8123 26.0581 47.3363 26.0581Z" fill="#1D252C"/>
<path d="M38.0297 26.0581H34.5829C34.1069 26.0581 33.7212 26.4439 33.7212 26.9198C33.7212 27.3957 34.1069 27.7815 34.5829 27.7815H38.0297C38.5057 27.7815 38.8914 27.3957 38.8914 26.9198C38.8914 26.4439 38.5057 26.0581 38.0297 26.0581Z" fill="#1D252C"/>
<path d="M28.7235 26.0581H25.2767C24.8009 26.0581 24.415 26.4439 24.415 26.9198C24.415 27.3957 24.8009 27.7815 25.2767 27.7815H28.7235C29.1996 27.7815 29.5853 27.3957 29.5853 26.9198C29.5853 26.4439 29.1996 26.0581 28.7235 26.0581Z" fill="#1D252C"/>
<path d="M19.4169 26.0581H15.9701C15.4942 26.0581 15.1084 26.4439 15.1084 26.9198C15.1084 27.3957 15.4942 27.7815 15.9701 27.7815H19.4169C19.8928 27.7815 20.2786 27.3957 20.2786 26.9198C20.2786 26.4439 19.8928 26.0581 19.4169 26.0581Z" fill="#1D252C"/>
<path d="M10.1108 26.0581H6.66395C6.18806 26.0581 5.80225 26.4439 5.80225 26.9198C5.80225 27.3957 6.18806 27.7815 6.66395 27.7815H10.1108C10.5866 27.7815 10.9725 27.3957 10.9725 26.9198C10.9725 26.4439 10.5866 26.0581 10.1108 26.0581Z" fill="#1D252C"/>
<path d="M38.0297 32.2622H34.5829C34.1069 32.2622 33.7212 32.648 33.7212 33.1239C33.7212 33.5998 34.1069 33.9856 34.5829 33.9856H38.0297C38.5057 33.9856 38.8914 33.5998 38.8914 33.1239C38.8914 32.648 38.5057 32.2622 38.0297 32.2622Z" fill="#1D252C"/>
<path d="M28.7235 32.2622H25.2767C24.8009 32.2622 24.415 32.648 24.415 33.1239C24.415 33.5998 24.8009 33.9856 25.2767 33.9856H28.7235C29.1996 33.9856 29.5853 33.5998 29.5853 33.1239C29.5853 32.648 29.1996 32.2622 28.7235 32.2622Z" fill="#1D252C"/>
<path d="M19.4169 32.2622H15.9701C15.4942 32.2622 15.1084 32.648 15.1084 33.1239C15.1084 33.5998 15.4942 33.9856 15.9701 33.9856H19.4169C19.8928 33.9856 20.2786 33.5998 20.2786 33.1239C20.2786 32.648 19.8928 32.2622 19.4169 32.2622Z" fill="#1D252C"/>
<path d="M10.1108 32.2622H6.66395C6.18806 32.2622 5.80225 32.648 5.80225 33.1239C5.80225 33.5998 6.18806 33.9856 6.66395 33.9856H10.1108C10.5866 33.9856 10.9725 33.5998 10.9725 33.1239C10.9725 32.648 10.5866 32.2622 10.1108 32.2622Z" fill="#1D252C"/>
<path d="M38.0297 38.4663H34.5829C34.1069 38.4663 33.7212 38.8521 33.7212 39.328C33.7212 39.8039 34.1069 40.1897 34.5829 40.1897H38.0297C38.5057 40.1897 38.8914 39.8039 38.8914 39.328C38.8914 38.8521 38.5057 38.4663 38.0297 38.4663Z" fill="#1D252C"/>
<path d="M47.3363 32.2622H43.8895C43.4135 32.2622 43.0278 32.648 43.0278 33.1239C43.0278 33.5998 43.4135 33.9856 43.8895 33.9856H47.3363C47.8123 33.9856 48.198 33.5998 48.198 33.1239C48.198 32.648 47.8123 32.2622 47.3363 32.2622Z" fill="#1D252C"/>
<path d="M47.3363 38.4663H43.8895C43.4135 38.4663 43.0278 38.8521 43.0278 39.328C43.0278 39.8039 43.4135 40.1897 43.8895 40.1897H47.3363C47.8123 40.1897 48.198 39.8039 48.198 39.328C48.198 38.8521 47.8123 38.4663 47.3363 38.4663Z" fill="#1D252C"/>
<path d="M28.7235 38.4663H25.2767C24.8009 38.4663 24.415 38.8521 24.415 39.328C24.415 39.8039 24.8009 40.1897 25.2767 40.1897H28.7235C29.1996 40.1897 29.5853 39.8039 29.5853 39.328C29.5853 38.8521 29.1996 38.4663 28.7235 38.4663Z" fill="#1D252C"/>
<path d="M19.4169 38.4663H15.9701C15.4942 38.4663 15.1084 38.8521 15.1084 39.328C15.1084 39.8039 15.4942 40.1897 15.9701 40.1897H19.4169C19.8928 40.1897 20.2786 39.8039 20.2786 39.328C20.2786 38.8521 19.8928 38.4663 19.4169 38.4663Z" fill="#1D252C"/>
<path d="M10.1108 38.4663H6.66395C6.18806 38.4663 5.80225 38.8521 5.80225 39.328C5.80225 39.8039 6.18806 40.1897 6.66395 40.1897H10.1108C10.5866 40.1897 10.9725 39.8039 10.9725 39.328C10.9725 38.8521 10.5866 38.4663 10.1108 38.4663Z" fill="#1D252C"/>
<path d="M47.3363 19.8535H43.8895C43.4135 19.8535 43.0278 20.2393 43.0278 20.7152C43.0278 21.1911 43.4135 21.5769 43.8895 21.5769H47.3363C47.8123 21.5769 48.198 21.1911 48.198 20.7152C48.198 20.2393 47.8123 19.8535 47.3363 19.8535Z" fill="#1D252C"/>
<path d="M38.0297 19.8535H34.5829C34.1069 19.8535 33.7212 20.2393 33.7212 20.7152C33.7212 21.1911 34.1069 21.5769 34.5829 21.5769H38.0297C38.5057 21.5769 38.8914 21.1911 38.8914 20.7152C38.8914 20.2393 38.5057 19.8535 38.0297 19.8535Z" fill="#1D252C"/>
<path d="M28.7235 19.8535H25.2767C24.8009 19.8535 24.415 20.2393 24.415 20.7152C24.415 21.1911 24.8009 21.5769 25.2767 21.5769H28.7235C29.1996 21.5769 29.5853 21.1911 29.5853 20.7152C29.5853 20.2393 29.1996 19.8535 28.7235 19.8535Z" fill="#1D252C"/>
<path d="M19.4169 19.8535H15.9701C15.4942 19.8535 15.1084 20.2393 15.1084 20.7152C15.1084 21.1911 15.4942 21.5769 15.9701 21.5769H19.4169C19.8928 21.5769 20.2786 21.1911 20.2786 20.7152C20.2786 20.2393 19.8928 19.8535 19.4169 19.8535Z" fill="#1D252C"/>
<path d="M10.1108 19.8535H6.66395C6.18806 19.8535 5.80225 20.2393 5.80225 20.7152C5.80225 21.1911 6.18806 21.5769 6.66395 21.5769H10.1108C10.5866 21.5769 10.9725 21.1911 10.9725 20.7152C10.9725 20.2393 10.5866 19.8535 10.1108 19.8535Z" fill="#1D252C"/>
</g>
<defs>
<clipPath id="clip0_380_12321">
<rect width="54" height="54" fill="white"/>
</clipPath>
</defs>
</svg>
