<svg width="54" height="54" viewBox="0 0 54 54" fill="none" xmlns="http://www.w3.org/2000/svg">
<path d="M50.9756 10.7755H39.1894V5.64626C39.1894 4.93049 38.609 4.3501 37.8932 4.3501H16.1068C15.391 4.3501 14.8106 4.93049 14.8106 5.64626V10.7756H3.02437C1.35683 10.7756 0 12.1325 0 13.8C0 15.2422 0 45.1861 0 46.6256C0 48.2932 1.35683 49.65 3.02437 49.65H50.9756C52.6432 49.65 54 48.2932 54 46.6256C54 45.1872 54 15.2434 54 13.8C54 12.1323 52.6432 10.7755 50.9756 10.7755ZM17.4029 6.94242H36.5969V10.7755H17.4029V6.94242ZM51.4077 46.6256C51.4077 46.864 51.214 47.0577 50.9756 47.0577H3.02437C2.7862 47.0577 2.59232 46.864 2.59232 46.6256V31.509H20.3031V34.0235C20.3031 34.7395 20.8835 35.3197 21.5992 35.3197H32.4006C33.1165 35.3197 33.6967 34.7395 33.6967 34.0235V31.509H51.4077V46.6256ZM22.8954 32.7274V30.2128V27.6983H31.1044V30.2128V32.7274H22.8954ZM51.4077 28.9166H33.6967V26.4021C33.6967 25.6861 33.1165 25.1059 32.4006 25.1059H21.5992C20.8835 25.1059 20.3031 25.6861 20.3031 26.4021V28.9166H2.59232V13.7998C2.59232 13.5615 2.7862 13.3678 3.02437 13.3678H50.9756C51.214 13.3678 51.4077 13.5615 51.4077 13.7998V28.9166Z" fill="currentColor"/>
</svg>
