<svg width="54" height="32" viewBox="0 0 54 32" fill="none" xmlns="http://www.w3.org/2000/svg">
<path d="M52.2526 0.724609H1.74741C0.783844 0.724609 0 1.50845 0 2.47202V29.5283C0 30.4919 0.783844 31.2757 1.74741 31.2757H52.2526C53.2162 31.2757 54 30.4919 54 29.5283V2.47202C54 1.50845 53.2162 0.724609 52.2526 0.724609ZM35.9624 6.02315H45.4807C45.7636 6.28334 46.2011 6.48816 46.791 6.63561C47.3295 6.77018 47.9889 6.8612 48.7016 6.90139V10.6686C47.989 10.7089 47.3296 10.7998 46.7912 10.9344C46.2014 11.0819 45.7637 11.2867 45.4808 11.5469H35.9625V6.02315H35.9624ZM18.0376 29.5848H1.74741C1.71629 29.5848 1.69109 29.5596 1.69109 29.5284V27.6682H18.0377V29.5848H18.0376ZM18.0376 25.9772H1.69098V24.0607H18.0376V25.9772ZM18.0376 22.3697H1.69098V20.4533H18.0376V22.3697ZM18.0376 18.7622H1.69098V16.8457H18.0376V18.7622ZM18.0376 11.5472H8.51934C8.23637 11.287 7.79889 11.0822 7.20889 10.9347C6.67048 10.8001 6.01109 10.7091 5.29854 10.6689V6.9017C6.01109 6.86141 6.67048 6.7705 7.20911 6.63592C7.79889 6.48848 8.23648 6.28366 8.51945 6.02347H18.0377V11.5472H18.0376ZM18.0376 4.33206H8.06055C7.71567 4.33206 7.41909 4.53847 7.28757 4.83462C6.95767 4.99557 5.94559 5.23393 4.4531 5.23393C3.98619 5.23393 3.60756 5.61245 3.60756 6.07947V11.4908C3.60756 11.9577 3.98609 12.3363 4.4531 12.3363C5.94559 12.3363 6.95777 12.5747 7.28757 12.7356C7.41909 13.0317 7.71578 13.2382 8.06055 13.2382H18.0376V15.1546H1.69098V2.47202C1.69098 2.4409 1.71619 2.41569 1.7473 2.41569H18.0375V4.33206H18.0376ZM34.2714 29.5848H19.7286V16.8457H34.2713V29.5848H34.2714ZM34.2714 15.1546H19.7286V2.41559H34.2713V15.1546H34.2714ZM52.309 29.5283C52.309 29.5594 52.2838 29.5847 52.2527 29.5847H35.9624V27.6682H52.309V29.5283ZM52.309 25.9772H35.9624V24.0607H52.309V25.9772ZM52.309 22.3697H35.9624V20.4533H52.309V22.3697ZM52.309 18.7622H35.9624V16.8457H52.309V18.7622ZM52.309 15.1546H35.9624V13.2382H45.9394C46.2843 13.2382 46.5809 13.0317 46.7124 12.7356C47.0422 12.5747 48.0543 12.3363 49.5469 12.3363C50.0138 12.3363 50.3924 11.9578 50.3924 11.4908V6.07947C50.3924 5.61256 50.0139 5.23393 49.5469 5.23393C48.0544 5.23393 47.0422 4.99557 46.7124 4.83462C46.5809 4.53857 46.2842 4.33206 45.9394 4.33206H35.9624V2.41559H52.2526C52.2837 2.41559 52.3089 2.4408 52.3089 2.47191V15.1546H52.309Z" fill="#1D252C"/>
</svg>
