<svg width="24" height="40" viewBox="0 0 24 40" fill="none" xmlns="http://www.w3.org/2000/svg">
<g clip-path="url(#clip0_101_12343)">
<path d="M23.8414 11.6153L18.387 6.16088C18.191 5.93209 17.8467 5.90542 17.6179 6.1014C17.3891 6.29733 17.3624 6.64167 17.5584 6.87046C17.5767 6.89179 17.5966 6.91171 17.6179 6.92995L22.1396 11.4571H0.545428C0.244214 11.4571 0 11.7014 0 12.0026C0 12.3039 0.244214 12.5481 0.545428 12.5481H22.1396L17.6179 17.0698C17.3891 17.2657 17.3624 17.61 17.5584 17.8388C17.7544 18.0676 18.0987 18.0943 18.3275 17.8983C18.3488 17.88 18.3687 17.8602 18.387 17.8388L23.8414 12.3844C24.0529 12.1717 24.0529 11.8281 23.8414 11.6153Z" fill="currentColor"/>
</g>
<g clip-path="url(#clip1_101_12343)">
<path d="M0.158623 27.6153L5.61304 22.1609C5.80898 21.9321 6.15331 21.9054 6.3821 22.1014C6.6109 22.2973 6.63757 22.6417 6.44159 22.8705C6.42331 22.8918 6.40343 22.9117 6.3821 22.9299L1.86039 27.4571H23.4546C23.7558 27.4571 24 27.7014 24 28.0026C24 28.3039 23.7558 28.5481 23.4546 28.5481H1.86039L6.3821 33.0698C6.6109 33.2657 6.63757 33.61 6.44159 33.8388C6.24561 34.0676 5.90132 34.0943 5.67253 33.8983C5.6512 33.88 5.63128 33.8602 5.61304 33.8388L0.158575 28.3844C-0.0528755 28.1717 -0.0528736 27.8281 0.158623 27.6153Z" fill="currentColor"/>
</g>
<defs>
<clipPath id="clip0_101_12343">
<rect width="24" height="24" fill="white"/>
</clipPath>
<clipPath id="clip1_101_12343">
<rect width="24" height="24" fill="white" transform="matrix(-1 0 0 1 24 16)"/>
</clipPath>
</defs>
</svg>
