<svg width="14" height="14" viewBox="0 0 14 14" fill="none" xmlns="http://www.w3.org/2000/svg">
<path d="M7.38418 7.61368L13.8417 0.952594C14.0531 0.734351 14.0528 0.381011 13.8406 0.163134C13.6284 -0.054574 13.2847 -0.0540115 13.0731 0.164259L6.99997 6.42886L0.926841 0.164034C0.715201 -0.0542085 0.371738 -0.054771 0.159552 0.162909C0.0531845 0.272129 0 0.415215 0 0.5583C0 0.70102 0.0528297 0.843543 0.158458 0.952566L6.6158 7.61368C6.71746 7.71879 6.85582 7.77778 6.99997 7.77778C7.14413 7.77778 7.28232 7.71862 7.38418 7.61368Z" fill="#1D252C"/>
<path d="M7.38418 6.38632L13.8417 13.0474C14.0531 13.2656 14.0528 13.619 13.8406 13.8369C13.6284 14.0546 13.2847 14.054 13.0731 13.8357L6.99997 7.57114L0.926841 13.836C0.715201 14.0542 0.371738 14.0548 0.159552 13.8371C0.0531845 13.7279 0 13.5848 0 13.4417C0 13.299 0.0528297 13.1565 0.158458 13.0474L6.6158 6.38632C6.71746 6.28121 6.85582 6.22222 6.99997 6.22222C7.14413 6.22222 7.28232 6.28138 7.38418 6.38632Z" fill="#1D252C"/>
</svg>
