<svg width="54" height="54" viewBox="0 0 54 54" fill="none" xmlns="http://www.w3.org/2000/svg">
<path d="M27 40.7109C26.4178 40.7109 25.9453 41.1834 25.9453 41.7656C25.9453 42.3478 26.4178 42.8203 27 42.8203C27.5822 42.8203 28.0547 42.3478 28.0547 41.7656C28.0547 41.1834 27.5822 40.7109 27 40.7109Z" fill="#1D252C"/>
<path d="M49.474 6.47262C46.8786 5.42732 43.5043 4.85156 39.9727 4.85156C36.441 4.85156 33.0667 5.42732 30.4713 6.47262C28.9376 7.09035 27.7665 7.84529 27 8.69242C26.2335 7.84529 25.0624 7.09045 23.5287 6.47272C20.9333 5.42732 17.559 4.85156 14.0273 4.85156C10.4957 4.85156 7.12136 5.42732 4.52598 6.47262C1.60734 7.64817 0 9.31985 0 11.1797V36.4922C0 38.352 1.60734 40.0237 4.52598 41.1993C6.93984 42.1715 10.0278 42.7368 13.2891 42.8112V42.8203C13.2891 46.428 19.1835 49.1484 27 49.1484C34.8165 49.1484 40.7109 46.428 40.7109 42.8203V42.8112C43.9722 42.7368 47.0602 42.1715 49.474 41.1993C52.3927 40.0237 54 38.352 54 36.4922V11.1797C54 9.31985 52.3927 7.64817 49.474 6.47262ZM51.8906 30.1641C51.8906 31.0644 50.6627 32.1183 48.686 32.9145C46.5465 33.7762 43.6742 34.2975 40.7109 34.3724V30.1641C40.7109 30.161 40.7107 30.1579 40.7107 30.155C43.9721 30.0806 47.0601 29.5153 49.4741 28.543C50.4216 28.1614 51.2298 27.7273 51.8907 27.2516L51.8906 30.1641ZM25.9453 17.5078C25.9453 18.4082 24.7173 19.462 22.7406 20.2582C20.4238 21.1914 17.2479 21.7266 14.0273 21.7266C10.8068 21.7266 7.63087 21.1914 5.31404 20.2582C3.33735 19.462 2.10938 18.4082 2.10938 17.5078V14.5954C2.77035 15.0711 3.57855 15.5052 4.52598 15.8868C7.12136 16.9321 10.4957 17.5078 14.0273 17.5078C17.559 17.5078 20.9333 16.9321 23.5287 15.8868C24.4761 15.5052 25.2843 15.0711 25.9453 14.5954V17.5078ZM4.52598 22.2149C7.12136 23.2602 10.4957 23.8359 14.0273 23.8359C17.559 23.8359 20.9333 23.2602 23.5287 22.2149C24.4761 21.8333 25.2843 21.3992 25.9453 20.9235V23.8546C23.2168 23.947 20.6002 24.3948 18.4837 25.1402C16.3609 25.8878 14.8334 26.8848 14.0028 28.0544C10.7906 28.0516 7.62497 27.5171 5.31404 26.5864C3.33735 25.7902 2.10938 24.7363 2.10938 23.8359V20.9235C2.77035 21.3992 3.57855 21.8333 4.52598 22.2149ZM2.10938 27.2516C2.77035 27.7273 3.57855 28.1614 4.52598 28.543C6.93995 29.5152 10.028 30.0805 13.2894 30.155C13.2894 30.1581 13.2892 30.1611 13.2892 30.1641V34.3724C10.3258 34.2975 7.45358 33.7762 5.31415 32.9145C3.33735 32.1183 2.10938 31.0644 2.10938 30.1641V27.2516ZM15.51 29.6459C16.2917 27.8269 20.8031 25.9453 27 25.9453C33.1969 25.9453 37.7083 27.8269 38.4891 29.6438C38.5649 29.8211 38.6016 29.9912 38.6016 30.1641C38.6016 31.0913 37.4584 32.1213 35.5435 32.9192C33.2785 33.8631 30.2443 34.3828 27 34.3828C23.7557 34.3828 20.7215 33.8631 18.4565 32.9192C16.5416 32.1213 15.3984 31.0913 15.3984 30.1641C15.3984 29.9912 15.4352 29.8211 15.51 29.6459ZM51.8906 23.8359C51.8906 24.7363 50.6627 25.7902 48.686 26.5864C46.3751 27.5171 43.2096 28.0516 39.9975 28.0544C39.1675 26.8855 37.6398 25.888 35.5163 25.1402C33.3998 24.3947 30.7832 23.947 28.0547 23.8546V20.9235C28.7157 21.3992 29.5239 21.8333 30.4713 22.2149C33.0667 23.2602 36.441 23.8359 39.9727 23.8359C43.5043 23.8359 46.8786 23.2602 49.474 22.2149C50.4214 21.8333 51.2297 21.3992 51.8906 20.9235V23.8359ZM51.8906 17.5078C51.8906 18.4082 50.6627 19.462 48.686 20.2582C46.3691 21.1914 43.1932 21.7266 39.9727 21.7266C36.7521 21.7266 33.5762 21.1914 31.2594 20.2582C29.2827 19.462 28.0547 18.4082 28.0547 17.5078V14.5954C28.7157 15.0711 29.5239 15.5052 30.4713 15.8868C33.0667 16.9321 36.441 17.5078 39.9727 17.5078C43.5043 17.5078 46.8786 16.9321 49.474 15.8868C50.4214 15.5052 51.2297 15.0711 51.8906 14.5954V17.5078ZM31.2594 8.42927C33.5762 7.49609 36.7521 6.96094 39.9727 6.96094C43.1932 6.96094 46.3691 7.49609 48.686 8.42927C50.6627 9.22546 51.8906 10.2793 51.8906 11.1797C51.8906 12.0801 50.6627 13.1339 48.686 13.9301C46.3691 14.8633 43.1932 15.3984 39.9727 15.3984C36.7521 15.3984 33.5762 14.8633 31.2594 13.9301C29.2827 13.1339 28.0547 12.0801 28.0547 11.1797C28.0547 10.2793 29.2827 9.22546 31.2594 8.42927ZM5.31404 8.42927C7.63087 7.49609 10.8068 6.96094 14.0273 6.96094C17.2479 6.96094 20.4238 7.49609 22.7406 8.42927C24.7173 9.22546 25.9453 10.2793 25.9453 11.1797C25.9453 12.0801 24.7173 13.1339 22.7406 13.9301C20.4238 14.8633 17.2479 15.3984 14.0273 15.3984C10.8068 15.3984 7.63087 14.8633 5.31404 13.9301C3.33735 13.1339 2.10938 12.0801 2.10938 11.1797C2.10938 10.2793 3.33735 9.22546 5.31404 8.42927ZM5.31404 39.2426C3.33735 38.4464 2.10938 37.3926 2.10938 36.4922V33.5798C2.77035 34.0554 3.57855 34.4895 4.52598 34.8711C6.93984 35.8433 10.0278 36.4087 13.2891 36.4831V40.7006C10.3257 40.6256 7.45348 40.1044 5.31404 39.2426ZM35.5435 45.5755C33.2785 46.5193 30.2443 47.0391 27 47.0391C23.7557 47.0391 20.7215 46.5193 18.4565 45.5755C16.5416 44.7776 15.3984 43.7476 15.3984 42.8203V39.9694C15.6373 40.1423 15.9013 40.3141 16.1941 40.4834C17.8319 41.4312 20.0604 42.1322 22.6387 42.5107C22.6907 42.5182 22.7421 42.5219 22.7932 42.5219C23.3079 42.5219 23.7583 42.1447 23.8353 41.6203C23.9199 41.044 23.5212 40.5082 22.945 40.4236C18.0434 39.704 15.3984 37.8611 15.3984 36.4922V33.6319C17.7856 35.3786 21.9994 36.4922 27 36.4922C32.0006 36.4922 36.2144 35.3786 38.6016 33.6319V36.4922C38.6016 37.8611 35.9566 39.704 31.055 40.4236C30.4787 40.5082 30.08 41.044 30.1647 41.6203C30.2417 42.1448 30.6921 42.5219 31.2068 42.5219C31.2578 42.5219 31.3095 42.5182 31.3613 42.5107C33.9395 42.1322 36.168 41.4313 37.8059 40.4834C38.0986 40.3141 38.3627 40.1423 38.6016 39.9694V42.8203C38.6016 43.7476 37.4584 44.7776 35.5435 45.5755ZM48.686 39.2426C46.5465 40.1043 43.6742 40.6256 40.7109 40.7005V36.483C43.9722 36.4086 47.0602 35.8432 49.474 34.871C50.4214 34.4894 51.2297 34.0553 51.8906 33.5797V36.4922C51.8906 37.3926 50.6627 38.4464 48.686 39.2426Z" fill="#1D252C"/>
</svg>
