<svg width="73" height="54" viewBox="0 0 73 54" fill="none" xmlns="http://www.w3.org/2000/svg">
<g clip-path="url(#clip0_216_17754)">
<path d="M8.08237 48.6001H10.7825V51.2998C10.7825 52.7912 11.9913 54 13.4827 54H45.8826C47.3736 54 48.5824 52.7912 48.5824 51.2998V8.10008C48.5824 6.60869 47.3736 5.39992 45.8826 5.39992H43.1824V2.70016C43.1824 1.20877 41.9737 0 40.4827 0H15.2827C15.2637 0 15.2464 0.0098877 15.2275 0.0107116C15.1475 0.0160675 15.0684 0.031723 14.9926 0.0576782C14.9646 0.0675659 14.9378 0.0745697 14.9106 0.0873413C14.8122 0.1306 14.7224 0.191574 14.6461 0.26738L5.64629 9.26724C5.57089 9.34387 5.50992 9.43327 5.46625 9.53091C5.45348 9.55893 5.44647 9.58694 5.43658 9.61578C5.41063 9.69035 5.39497 9.76822 5.39044 9.84691C5.39044 9.86668 5.37891 9.88399 5.37891 9.90376V45.8999C5.37891 46.6168 5.664 47.304 6.17116 47.8103C6.67831 48.317 7.36592 48.6009 8.08237 48.6001ZM45.8826 7.19989C46.3795 7.19989 46.7824 7.60281 46.7824 8.10008V51.2998C46.7824 51.7971 46.3795 52.2 45.8826 52.2H13.4827C12.9854 52.2 12.5825 51.7971 12.5825 51.2998V48.6001H40.4827C41.9737 48.6001 43.1824 47.3913 43.1824 45.8999V7.19989H45.8826ZM41.3825 2.70016V45.8999C41.3825 46.3972 40.9796 46.8001 40.4827 46.8001H8.08237C7.58551 46.8001 7.18259 46.3972 7.18259 45.8999V10.7998H13.4827C14.9737 10.7998 16.1824 9.59106 16.1824 8.10008V1.79997H40.4827C40.9796 1.79997 41.3825 2.2029 41.3825 2.70016ZM14.3825 3.0726V8.10008C14.3825 8.59694 13.9796 8.99986 13.4827 8.99986H8.45522L14.3825 3.0726Z" fill="currentColor"/>
<path fill-rule="evenodd" clip-rule="evenodd" d="M11.683 15.2998C11.1861 15.2998 10.7832 15.7027 10.7832 16.2C10.7832 16.6969 11.1861 17.0998 11.683 17.0998H36.883C37.3803 17.0998 37.7832 16.6969 37.7832 16.2C37.7832 15.7027 37.3803 15.2998 36.883 15.2998H11.683Z" fill="currentColor"/>
<path fill-rule="evenodd" clip-rule="evenodd" d="M36.883 33.2998H11.683C11.1861 33.2998 10.7832 33.7027 10.7832 34.1996C10.7832 34.6969 11.1861 35.0998 11.683 35.0998H36.883C37.3803 35.0998 37.7832 34.6969 37.7832 34.1996C37.7832 33.7027 37.3803 33.2998 36.883 33.2998Z" fill="currentColor"/>
<path fill-rule="evenodd" clip-rule="evenodd" d="M36.8823 19.7998H32.3826C31.8853 19.7998 31.4824 20.2027 31.4824 20.6996C31.4824 21.1969 31.8853 21.5998 32.3826 21.5998H36.8823C37.3796 21.5998 37.7825 21.1969 37.7825 20.6996C37.7825 20.2027 37.3796 19.7998 36.8823 19.7998Z" fill="currentColor"/>
<path fill-rule="evenodd" clip-rule="evenodd" d="M28.7833 20.6996C28.7833 20.2027 28.3804 19.7998 27.8831 19.7998H11.683C11.1861 19.7998 10.7832 20.2027 10.7832 20.6996C10.7832 21.1969 11.1861 21.5998 11.683 21.5998H27.8831C28.3804 21.5998 28.7833 21.1969 28.7833 20.6996Z" fill="currentColor"/>
<path fill-rule="evenodd" clip-rule="evenodd" d="M17.0833 37.7998H11.683C11.1861 37.7998 10.7832 38.2027 10.7832 38.7C10.7832 39.1969 11.1861 39.5998 11.683 39.5998H17.0833C17.5802 39.5998 17.9831 39.1969 17.9831 38.7C17.9831 38.2027 17.5802 37.7998 17.0833 37.7998Z" fill="currentColor"/>
<path fill-rule="evenodd" clip-rule="evenodd" d="M11.683 26.0998H16.1831C16.6804 26.0998 17.0833 25.6969 17.0833 25.2C17.0833 24.7027 16.6804 24.2998 16.1831 24.2998H11.683C11.1861 24.2998 10.7832 24.7027 10.7832 25.2C10.7832 25.6969 11.1861 26.0998 11.683 26.0998Z" fill="currentColor"/>
<path fill-rule="evenodd" clip-rule="evenodd" d="M36.8831 24.2998H20.6834C20.1861 24.2998 19.7832 24.7027 19.7832 25.2C19.7832 25.6969 20.1861 26.0998 20.6834 26.0998H36.8831C37.3804 26.0998 37.7833 25.6969 37.7833 25.2C37.7833 24.7027 37.3804 24.2998 36.8831 24.2998Z" fill="currentColor"/>
<path fill-rule="evenodd" clip-rule="evenodd" d="M11.683 30.5998H14.3831C14.8804 30.5998 15.2833 30.1969 15.2833 29.7C15.2833 29.2027 14.8804 28.7998 14.3831 28.7998H11.683C11.1861 28.7998 10.7832 29.2027 10.7832 29.7C10.7832 30.1969 11.1861 30.5998 11.683 30.5998Z" fill="currentColor"/>
<path fill-rule="evenodd" clip-rule="evenodd" d="M18.8826 30.5998H29.6824C30.1797 30.5998 30.5826 30.1969 30.5826 29.7C30.5826 29.2027 30.1797 28.7998 29.6824 28.7998H18.8826C18.3853 28.7998 17.9824 29.2027 17.9824 29.7C17.9824 30.1969 18.3853 30.5998 18.8826 30.5998Z" fill="currentColor"/>
<path fill-rule="evenodd" clip-rule="evenodd" d="M36.8831 28.7998H34.1834C33.6861 28.7998 33.2832 29.2027 33.2832 29.7C33.2832 30.1969 33.6861 30.5998 34.1834 30.5998H36.8831C37.3804 30.5998 37.7833 30.1969 37.7833 29.7C37.7833 29.2027 37.3804 28.7998 36.8831 28.7998Z" fill="currentColor"/>
</g>
<path d="M71.1689 22.3902C70.4428 22.3902 69.8519 21.7994 69.8519 21.0731V7.14976C69.8519 5.3861 68.4171 3.95118 66.6532 3.95118H65.6655H65.0068V0.940777C65.0068 0.421228 64.5857 0 64.0661 0H56.54C56.0203 0 55.5992 0.421228 55.5992 0.940777V3.95128H54.9408C54.4211 3.95128 54 4.37251 54 4.89206V40.2736C54 45.3017 56.057 50.2064 59.6438 53.7303C59.8268 53.91 60.0649 54 60.3032 54C60.5414 54 60.7794 53.91 60.9625 53.7303C64.5494 50.2064 66.6063 45.3018 66.6063 40.2736V5.83273H66.6532C67.3794 5.83273 67.9703 6.42362 67.9703 7.14976V21.073C67.9703 22.8367 69.4051 24.2716 71.1689 24.2716C71.6886 24.2716 72.1097 23.8504 72.1097 23.3308C72.1097 22.8113 71.6885 22.3902 71.1689 22.3902ZM57.4808 1.88166H63.1253V3.95128H57.4808V1.88166ZM60.3032 51.7021C57.6934 48.8274 56.1286 45.0909 55.9093 41.2143H64.697C64.4777 45.0909 62.913 48.8273 60.3032 51.7021ZM64.7247 39.3326H55.8816V13.547H64.7247V39.3326ZM64.7247 11.6655H55.8816V5.83284H64.7247V11.6655Z" fill="currentColor"/>
<defs>
<clipPath id="clip0_216_17754">
<rect width="54" height="54" fill="white"/>
</clipPath>
</defs>
</svg>
