<svg width="55" height="55" viewBox="0 0 55 55" fill="none" xmlns="http://www.w3.org/2000/svg">
<g clip-path="url(#clip0_101_785)">
<path d="M7.48862 49.3774H36.2886V52.9774C36.2886 53.9715 37.0948 54.7773 38.0886 54.7773C38.4136 54.7773 38.7325 54.6888 39.0102 54.5207L41.6889 52.9127L44.3672 54.5182C44.9226 54.849 45.6127 54.8569 46.1755 54.5384C46.7382 54.2199 47.0868 53.6238 47.0888 52.9774V42.0362C48.2218 41.4772 48.9811 40.3677 49.0923 39.1091L49.1282 38.6592C49.1566 38.2859 49.3037 37.9316 49.5484 37.6486L49.8364 37.3074C50.9788 35.9697 50.9788 34 49.8364 32.6627L49.5377 32.308C49.2983 32.0278 49.1545 31.6785 49.1273 31.3105L49.0911 30.8607C48.9535 29.1081 47.5626 27.7151 45.81 27.5746L45.3597 27.5388C44.9848 27.5071 44.6301 27.3567 44.3466 27.1095L44.0088 26.8261C43.5964 26.4854 43.1103 26.246 42.5887 26.1269V3.47751C42.5887 1.98611 41.3799 0.777344 39.8889 0.777344H14.6889C14.67 0.777344 14.6535 0.787231 14.6358 0.788055C14.5258 0.798767 14.4182 0.825546 14.3161 0.867157C14.2184 0.91124 14.129 0.972214 14.0524 1.0472L5.05254 10.0475C4.97714 10.1237 4.91617 10.2131 4.8725 10.3111C4.85973 10.3379 4.85272 10.3668 4.84283 10.3948C4.81688 10.4702 4.80122 10.5484 4.79587 10.628C4.79587 10.6477 4.78516 10.6646 4.78516 10.6836V46.6773C4.78516 47.3941 5.07025 48.0813 5.57741 48.5876C6.08456 49.0944 6.77217 49.3783 7.48862 49.3774ZM42.6175 51.3735C42.3378 51.2029 42.0164 51.1131 41.6889 51.1135C41.3643 51.1119 41.0458 51.2005 40.7689 51.369L38.0886 52.9774V42.4474C38.1965 42.463 38.3024 42.4886 38.4054 42.524C38.4577 42.5409 38.5125 42.5463 38.564 42.5681C38.7259 42.6361 38.8775 42.7267 39.0139 42.838L39.3624 43.1404C40.6993 44.2894 42.676 44.2873 44.0109 43.135L44.3368 42.8515C44.4785 42.735 44.6363 42.6394 44.8056 42.5681C44.8579 42.5504 44.9115 42.5351 44.9655 42.5228C45.0709 42.4878 45.1789 42.4626 45.2889 42.4474V52.9774L42.6175 51.3735ZM43.1828 28.4864C43.7534 28.9783 44.4653 29.2757 45.2159 29.3371L45.6658 29.373C46.538 29.443 47.2301 30.1368 47.2977 31.0094L47.3344 31.4593C47.3916 32.205 47.6837 32.9136 48.1687 33.4834L48.4595 33.8282C49.0301 34.4956 49.0301 35.479 48.4595 36.1465L48.1822 36.476C47.6895 37.0475 47.3921 37.761 47.3327 38.5133L47.2965 38.9579C47.2355 39.7176 46.7049 40.357 45.9699 40.5572C45.8702 40.5827 45.7684 40.5988 45.6658 40.605L45.2159 40.6412C44.4645 40.7047 43.7517 41.0005 43.1766 41.4879L42.8408 41.7796C42.1812 42.3481 41.2052 42.3502 40.5432 41.7849L40.1831 41.4743C39.6113 40.9939 38.9043 40.703 38.1598 40.6412L37.6902 40.6042C37.6238 40.598 37.5579 40.5873 37.4928 40.5716C37.4681 40.5592 37.4426 40.5477 37.4166 40.5374C36.6808 40.3409 36.146 39.7056 36.0781 38.9471L36.0575 38.6942L36.0422 38.4902C35.9833 37.7429 35.6891 37.0335 35.2026 36.4633L34.9125 36.1193C34.3411 35.4634 34.3411 34.4861 34.9125 33.8298L35.1898 33.5003C35.6821 32.9284 35.98 32.2144 36.0393 31.4617L36.0764 31.0119C36.1436 30.1397 36.8345 29.4459 37.7062 29.375L38.1561 29.3388C38.9047 29.2782 39.6146 28.982 40.1839 28.493L40.5304 28.2013C41.1966 27.6356 42.1746 27.6356 42.8408 28.2013L43.1828 28.4864ZM40.7887 3.47751V26.0375C40.2671 26.1727 39.7831 26.4244 39.3731 26.7737L39.0258 27.0654C38.7432 27.311 38.3897 27.4605 38.0169 27.4922L37.5666 27.5281C35.8132 27.6715 34.4231 29.0669 34.2863 30.8211L34.2513 31.271C34.2229 31.6459 34.0758 32.0014 33.8307 32.2865L33.5439 32.6264C32.4023 33.9802 32.4023 35.959 33.5439 37.3128L33.8426 37.6667C34.0816 37.9468 34.2254 38.2962 34.253 38.6637L34.2736 38.915L34.2872 39.0893V39.1173C34.2872 39.1589 34.3024 39.1985 34.3078 39.2405C34.323 39.3587 34.3395 39.4765 34.3654 39.5907C34.3914 39.7052 34.4268 39.8168 34.4627 39.9281C34.4754 39.9652 34.4861 40.0039 34.5006 40.0406C34.5484 40.1712 34.6036 40.2985 34.667 40.4225L34.6785 40.4447C35.0316 41.1327 35.596 41.6893 36.2886 42.0325V47.5775H7.48862C6.99176 47.5775 6.58884 47.1745 6.58884 46.6773V11.5772H12.8889C14.3799 11.5772 15.5887 10.3684 15.5887 8.87743V2.57732H39.8889C40.3858 2.57732 40.7887 2.98024 40.7887 3.47751ZM13.7887 3.84995V8.87743C13.7887 9.37428 13.3858 9.77721 12.8889 9.77721H7.86147L13.7887 3.84995Z" fill="#1D252C"/>
<path fill-rule="evenodd" clip-rule="evenodd" d="M11.0892 16.0774C10.5924 16.0774 10.1895 16.4803 10.1895 16.9776C10.1895 17.4744 10.5924 17.8774 11.0892 17.8774H36.2893C36.7865 17.8774 37.1895 17.4744 37.1895 16.9776C37.1895 16.4803 36.7865 16.0774 36.2893 16.0774H11.0892Z" fill="#1D252C"/>
<path fill-rule="evenodd" clip-rule="evenodd" d="M28.1896 34.0776H11.0892C10.5924 34.0776 10.1895 34.4806 10.1895 34.9774C10.1895 35.4747 10.5924 35.8776 11.0892 35.8776H28.1896C28.6864 35.8776 29.0894 35.4747 29.0894 34.9774C29.0894 34.4806 28.6864 34.0776 28.1896 34.0776Z" fill="#1D252C"/>
<path fill-rule="evenodd" clip-rule="evenodd" d="M36.2886 20.5776H31.7889C31.2916 20.5776 30.8887 20.9806 30.8887 21.4774C30.8887 21.9747 31.2916 22.3776 31.7889 22.3776H36.2886C36.7859 22.3776 37.1888 21.9747 37.1888 21.4774C37.1888 20.9806 36.7859 20.5776 36.2886 20.5776Z" fill="#1D252C"/>
<path fill-rule="evenodd" clip-rule="evenodd" d="M11.0892 22.3776H27.2894C27.7867 22.3776 28.1896 21.9747 28.1896 21.4774C28.1896 20.9806 27.7867 20.5776 27.2894 20.5776H11.0892C10.5924 20.5776 10.1895 20.9806 10.1895 21.4774C10.1895 21.9747 10.5924 22.3776 11.0892 22.3776Z" fill="#1D252C"/>
<path fill-rule="evenodd" clip-rule="evenodd" d="M16.4896 38.5771H11.0892C10.5924 38.5771 10.1895 38.9801 10.1895 39.4773C10.1895 39.9742 10.5924 40.3771 11.0892 40.3771H16.4896C16.9864 40.3771 17.3893 39.9742 17.3893 39.4773C17.3893 38.9801 16.9864 38.5771 16.4896 38.5771Z" fill="#1D252C"/>
<path fill-rule="evenodd" clip-rule="evenodd" d="M11.0892 26.8771H15.5894C16.0866 26.8771 16.4896 26.4742 16.4896 25.9773C16.4896 25.4801 16.0866 25.0771 15.5894 25.0771H11.0892C10.5924 25.0771 10.1895 25.4801 10.1895 25.9773C10.1895 26.4742 10.5924 26.8771 11.0892 26.8771Z" fill="#1D252C"/>
<path fill-rule="evenodd" clip-rule="evenodd" d="M32.6895 25.0771H20.0896C19.5924 25.0771 19.1895 25.4801 19.1895 25.9773C19.1895 26.4742 19.5924 26.8771 20.0896 26.8771H32.6895C33.1867 26.8771 33.5896 26.4742 33.5896 25.9773C33.5896 25.4801 33.1867 25.0771 32.6895 25.0771Z" fill="#1D252C"/>
<path fill-rule="evenodd" clip-rule="evenodd" d="M11.0892 31.3774H13.7894C14.2867 31.3774 14.6896 30.9744 14.6896 30.4776C14.6896 29.9803 14.2867 29.5774 13.7894 29.5774H11.0892C10.5924 29.5774 10.1895 29.9803 10.1895 30.4776C10.1895 30.9744 10.5924 31.3774 11.0892 31.3774Z" fill="#1D252C"/>
<path fill-rule="evenodd" clip-rule="evenodd" d="M29.0887 29.5774H18.2889C17.7916 29.5774 17.3887 29.9803 17.3887 30.4776C17.3887 30.9744 17.7916 31.3774 18.2889 31.3774H29.0887C29.586 31.3774 29.9889 30.9744 29.9889 30.4776C29.9889 29.9803 29.586 29.5774 29.0887 29.5774Z" fill="#1D252C"/>
</g>
<defs>
<clipPath id="clip0_101_785">
<rect width="54" height="54" fill="white" transform="translate(0.777344 0.777344)"/>
</clipPath>
</defs>
</svg>
