<svg width="54" height="54" viewBox="0 0 54 54" fill="none" xmlns="http://www.w3.org/2000/svg">
<path d="M45.8007 0H12.129C11.5437 0 11.0693 0.474398 11.0693 1.05964V4.63736H8.20027C7.61502 4.63736 7.14062 5.11175 7.14062 5.697V52.9405C7.14062 53.5255 7.61502 54 8.20027 54H41.3213C41.9065 54 42.3809 53.5255 42.3809 52.9405V50.1488H45.8007C46.386 50.1488 46.8604 49.6744 46.8604 49.0892V1.05964C46.8604 0.474398 46.386 0 45.8007 0V0ZM44.7412 48.0296H42.3809V5.697C42.3809 5.11175 41.9065 4.63736 41.3213 4.63736H29.8072C29.222 4.63736 28.7476 5.11175 28.7476 5.697C28.7476 6.28214 29.222 6.75654 29.8072 6.75654H40.2617V51.8808H9.25981V6.75654H20.2668C20.8521 6.75654 21.3265 6.28214 21.3265 5.697C21.3265 5.11175 20.8521 4.63736 20.2668 4.63736H13.1885V2.11918H44.7412V48.0296Z" fill="#1D252C"/>
<path d="M12.167 16.0504C12.167 16.6357 12.6415 17.1101 13.2266 17.1101H33.7424C34.3276 17.1101 34.8021 16.6357 34.8021 16.0504C34.8021 15.4653 34.3276 14.9909 33.7424 14.9909H13.2266C12.6415 14.9909 12.167 15.4653 12.167 16.0504Z" fill="#1D252C"/>
<path d="M13.2266 21.3484H33.7425C34.3276 21.3484 34.8021 20.874 34.8021 20.2888C34.8021 19.7036 34.3276 19.2292 33.7425 19.2292H13.2266C12.6415 19.2292 12.167 19.7036 12.167 20.2888C12.167 20.874 12.6415 21.3484 13.2266 21.3484Z" fill="#1D252C"/>
<path d="M13.2266 25.587H33.7425C34.3276 25.587 34.8021 25.1126 34.8021 24.5273C34.8021 23.9422 34.3276 23.4678 33.7425 23.4678H13.2266C12.6415 23.4678 12.167 23.9422 12.167 24.5273C12.167 25.1126 12.6415 25.587 13.2266 25.587Z" fill="#1D252C"/>
<path d="M13.2266 29.8254H33.7425C34.3276 29.8254 34.8021 29.351 34.8021 28.7658C34.8021 28.1806 34.3276 27.7062 33.7425 27.7062H13.2266C12.6415 27.7062 12.167 28.1806 12.167 28.7658C12.167 29.351 12.6415 29.8254 13.2266 29.8254Z" fill="#1D252C"/>
<path d="M22.5799 31.9446H13.2265C12.6415 31.9446 12.167 32.419 12.167 33.0041C12.167 33.5894 12.6415 34.0638 13.2265 34.0638H22.5799C23.1651 34.0638 23.6396 33.5894 23.6396 33.0041C23.6396 32.419 23.1651 31.9446 22.5799 31.9446Z" fill="#1D252C"/>
<path d="M22.5799 36.183H13.2265C12.6415 36.183 12.167 36.6574 12.167 37.2427C12.167 37.8278 12.6415 38.3022 13.2265 38.3022H22.5799C23.1651 38.3022 23.6396 37.8278 23.6396 37.2427C23.6396 36.6574 23.1651 36.183 22.5799 36.183Z" fill="#1D252C"/>
<path d="M27.4463 36.7819C27.4463 38.1937 28.0545 39.4659 29.0224 40.3511L27.4669 48.1372C27.352 48.8304 27.9868 49.6644 28.9094 49.3246L32.2857 47.9342L35.6615 49.3084C36.3115 49.589 37.2863 49.0072 37.0947 48.0939L35.3795 40.4949C36.4427 39.6069 37.1206 38.2723 37.1206 36.7819C37.1206 34.1147 34.9507 31.9447 32.2834 31.9447C29.6162 31.9447 27.4463 34.1147 27.4463 36.7819ZM32.683 45.808C32.4256 45.7032 32.1373 45.7037 31.88 45.8096L29.9327 46.6114L30.9668 41.4354C31.3859 41.5542 31.827 41.619 32.2834 41.619C32.6783 41.619 33.0618 41.5704 33.4294 41.4808L34.5805 46.5804L32.683 45.808ZM32.2834 39.4998C30.785 39.4838 29.5656 38.2805 29.5656 36.7819C29.5656 35.2831 30.7849 34.0639 32.2834 34.0639C33.7821 34.0639 35.0014 35.2831 35.0014 36.7819C35.0014 36.7819 34.9186 39.528 32.2834 39.4998Z" fill="#1D252C"/>
<path d="M25.0195 6.75159C25.6019 6.75159 26.0742 6.2794 26.0742 5.6969C26.0742 5.1145 25.6019 4.64221 25.0195 4.64221C24.4371 4.64221 23.9648 5.1145 23.9648 5.6969C23.9648 6.2794 24.4371 6.75159 25.0195 6.75159Z" fill="#1D252C"/>
</svg>
