<svg width="54" height="47" viewBox="0 0 54 47" fill="none" xmlns="http://www.w3.org/2000/svg">
<path d="M2.24631 40.5415H15.2239C15.9335 40.5415 16.5088 39.9663 16.5088 39.2567V11.3786C16.5088 10.669 15.9335 10.0938 15.2239 10.0938H2.24631C1.53667 10.0938 0.961426 10.669 0.961426 11.3786V39.2567C0.961426 39.9663 1.53667 40.5415 2.24631 40.5415ZM3.5312 12.6635H13.939V37.9718H3.5312V12.6635Z" fill="currentColor"/>
<path d="M37.4912 1.28489V39.2567C37.4912 39.9664 38.0665 40.5416 38.7761 40.5416H50.7925C51.5021 40.5416 52.0774 39.9664 52.0774 39.2567V1.28489C52.0774 0.575243 51.5021 0 50.7925 0H38.7761C38.0666 0 37.4912 0.575243 37.4912 1.28489ZM40.061 2.56977H49.5076V37.9718H40.061V2.56977Z" fill="currentColor"/>
<path d="M20.9919 22.1104C20.2823 22.1104 19.707 22.6856 19.707 23.3952V39.2569C19.707 39.9665 20.2823 40.5418 20.9919 40.5418H33.0083C33.7179 40.5418 34.2932 39.9665 34.2932 39.2569V23.3952C34.2932 22.6856 33.7179 22.1104 33.0083 22.1104H20.9919ZM31.7234 37.972H22.2768V24.6801H31.7234V37.972Z" fill="currentColor"/>
<path d="M52.7151 43.7397H1.28489C0.575243 43.7397 0 44.315 0 45.0246C0 45.7343 0.575243 46.3095 1.28489 46.3095H52.7151C53.4248 46.3095 54 45.7343 54 45.0246C54 44.315 53.4248 43.7397 52.7151 43.7397Z" fill="currentColor"/>
</svg>
