<svg width="11" height="20" viewBox="0 0 11 20" fill="none" xmlns="http://www.w3.org/2000/svg">
<path d="M10.478 0.00416134L7.88447 0C4.97073 0 3.08775 1.9319 3.08775 4.92203V7.19141H0.480072C0.254738 7.19141 0.0722656 7.37409 0.0722656 7.59943V10.8875C0.0722656 11.1128 0.254947 11.2953 0.480072 11.2953H3.08775V19.5922C3.08775 19.8175 3.27022 20 3.49555 20H6.89782C7.12316 20 7.30563 19.8173 7.30563 19.5922V11.2953H10.3546C10.5799 11.2953 10.7624 11.1128 10.7624 10.8875L10.7637 7.59943C10.7637 7.49123 10.7206 7.38762 10.6442 7.31105C10.5679 7.23448 10.4638 7.19141 10.3556 7.19141H7.30563V5.26763C7.30563 4.34298 7.52597 3.87358 8.73046 3.87358L10.4776 3.87295C10.7027 3.87295 10.8852 3.69027 10.8852 3.46514V0.411972C10.8852 0.187052 10.7029 0.00457747 10.478 0.00416134Z" fill="currentColor"/>
</svg>
