<svg width="168" height="46" viewBox="0 0 168 46" fill="none" xmlns="http://www.w3.org/2000/svg">
<rect width="167.392" height="46" rx="5" fill="currentColor"/>
<path d="M60.0677 33.5243C58.329 33.5243 56.9104 32.9803 55.8117 31.8923C54.7237 30.8043 54.1797 29.4177 54.1797 27.7323C54.1797 26.1217 54.7397 24.7563 55.8597 23.6363C56.9797 22.5057 58.377 21.9403 60.0517 21.9403C61.0224 21.9403 61.8437 22.0683 62.5157 22.3243C63.1877 22.5697 63.833 22.9537 64.4517 23.4763L62.8997 25.3483C62.4304 24.9537 61.977 24.6657 61.5397 24.4843C61.1024 24.303 60.5797 24.2123 59.9717 24.2123C59.0757 24.2123 58.313 24.559 57.6837 25.2523C57.065 25.935 56.7557 26.7617 56.7557 27.7323C56.7557 28.7563 57.0704 29.6043 57.6997 30.2763C58.3397 30.9483 59.1557 31.2843 60.1477 31.2843C61.065 31.2843 61.8384 31.0603 62.4677 30.6123V29.0123H59.9877V26.8843H64.8517V31.7483C63.4544 32.9323 61.8597 33.5243 60.0677 33.5243Z" fill="currentColor"/>
<path d="M74.4866 32.2283C73.6012 33.0923 72.4972 33.5243 71.1746 33.5243C69.8519 33.5243 68.7479 33.0977 67.8626 32.2443C66.9879 31.3803 66.5506 30.319 66.5506 29.0603C66.5506 27.8123 66.9932 26.7563 67.8786 25.8923C68.7746 25.0283 69.8839 24.5963 71.2066 24.5963C72.5292 24.5963 73.6279 25.0283 74.5026 25.8923C75.3879 26.7457 75.8306 27.8017 75.8306 29.0603C75.8306 30.3083 75.3826 31.3643 74.4866 32.2283ZM71.2066 31.4283C71.8786 31.4283 72.4172 31.2043 72.8226 30.7563C73.2279 30.2977 73.4306 29.7323 73.4306 29.0603C73.4306 28.4097 73.2172 27.855 72.7906 27.3963C72.3746 26.927 71.8359 26.6923 71.1746 26.6923C70.5026 26.6923 69.9639 26.9217 69.5586 27.3803C69.1532 27.8283 68.9506 28.3883 68.9506 29.0603C68.9506 29.711 69.1586 30.271 69.5746 30.7403C70.0012 31.199 70.5452 31.4283 71.2066 31.4283Z" fill="currentColor"/>
<path d="M85.1116 32.2283C84.2262 33.0923 83.1222 33.5243 81.7996 33.5243C80.4769 33.5243 79.3729 33.0977 78.4876 32.2443C77.6129 31.3803 77.1756 30.319 77.1756 29.0603C77.1756 27.8123 77.6182 26.7563 78.5036 25.8923C79.3996 25.0283 80.5089 24.5963 81.8316 24.5963C83.1542 24.5963 84.2529 25.0283 85.1276 25.8923C86.0129 26.7457 86.4556 27.8017 86.4556 29.0603C86.4556 30.3083 86.0076 31.3643 85.1116 32.2283ZM81.8316 31.4283C82.5036 31.4283 83.0422 31.2043 83.4476 30.7563C83.8529 30.2977 84.0556 29.7323 84.0556 29.0603C84.0556 28.4097 83.8422 27.855 83.4156 27.3963C82.9996 26.927 82.4609 26.6923 81.7996 26.6923C81.1276 26.6923 80.5889 26.9217 80.1836 27.3803C79.7782 27.8283 79.5756 28.3883 79.5756 29.0603C79.5756 29.711 79.7836 30.271 80.1996 30.7403C80.6262 31.199 81.1702 31.4283 81.8316 31.4283Z" fill="currentColor"/>
<path d="M92.0566 35.9243C90.6592 35.9243 89.3952 35.6257 88.2646 35.0283L89.0966 33.2043C90.0246 33.727 90.9899 33.9883 91.9926 33.9883C93.6246 33.9883 94.4406 33.2097 94.4406 31.6523V31.2363C94.0566 31.7057 93.6459 32.0577 93.2086 32.2923C92.7819 32.5163 92.2592 32.6283 91.6406 32.6283C90.5846 32.6283 89.6832 32.2657 88.9366 31.5403C88.2006 30.815 87.8326 29.8337 87.8326 28.5963C87.8326 27.3697 88.2059 26.399 88.9526 25.6843C89.6992 24.959 90.5952 24.5963 91.6406 24.5963C92.7072 24.5963 93.6299 25.023 94.4086 25.8763V24.7563H96.8406V31.3963C96.8406 32.9217 96.4779 34.047 95.7526 34.7723C94.9846 35.5403 93.7526 35.9243 92.0566 35.9243ZM90.8566 30.0683C91.2512 30.431 91.7472 30.6123 92.3446 30.6123C92.9419 30.6123 93.4379 30.4257 93.8326 30.0523C94.2379 29.679 94.4406 29.1937 94.4406 28.5963C94.4406 28.0203 94.2379 27.5457 93.8326 27.1723C93.4379 26.799 92.9419 26.6123 92.3446 26.6123C91.7472 26.6123 91.2512 26.799 90.8566 27.1723C90.4619 27.5457 90.2646 28.031 90.2646 28.6283C90.2646 29.215 90.4619 29.695 90.8566 30.0683Z" fill="currentColor"/>
<path d="M99.1254 33.3323V21.6523H101.557V33.3323H99.1254Z" fill="currentColor"/>
<path d="M107.906 33.5243C106.604 33.5243 105.532 33.1137 104.69 32.2923C103.847 31.4603 103.426 30.383 103.426 29.0603C103.426 27.8123 103.826 26.7563 104.626 25.8923C105.426 25.0283 106.439 24.5963 107.666 24.5963C109.02 24.5963 110.055 25.0443 110.77 25.9403C111.484 26.8363 111.842 27.9403 111.842 29.2523C111.842 29.3803 111.831 29.5937 111.81 29.8923H105.842C105.959 30.4363 106.199 30.8523 106.562 31.1403C106.924 31.4283 107.383 31.5723 107.938 31.5723C108.695 31.5723 109.388 31.279 110.018 30.6923L111.41 31.9243C110.546 32.991 109.378 33.5243 107.906 33.5243ZM105.81 28.3723H109.474C109.399 27.8177 109.202 27.375 108.882 27.0443C108.572 26.7137 108.167 26.5483 107.666 26.5483C107.175 26.5483 106.764 26.7137 106.434 27.0443C106.114 27.3643 105.906 27.807 105.81 28.3723Z" fill="currentColor"/>
<path d="M118.451 35.8923V24.7563H120.883V25.9883C121.566 25.0603 122.456 24.5963 123.555 24.5963C124.622 24.5963 125.539 24.9963 126.307 25.7963C127.075 26.5963 127.459 27.6843 127.459 29.0603C127.459 30.4257 127.075 31.5083 126.307 32.3083C125.55 33.0977 124.632 33.4923 123.555 33.4923C122.488 33.4923 121.598 33.0657 120.883 32.2123V35.8923H118.451ZM121.443 30.7723C121.848 31.2097 122.344 31.4283 122.931 31.4283C123.518 31.4283 124.014 31.2097 124.419 30.7723C124.824 30.3243 125.027 29.743 125.027 29.0283C125.027 28.335 124.824 27.7697 124.419 27.3323C124.014 26.8843 123.518 26.6603 122.931 26.6603C122.344 26.6603 121.848 26.8843 121.443 27.3323C121.048 27.7697 120.851 28.3457 120.851 29.0603C120.851 29.7537 121.048 30.3243 121.443 30.7723Z" fill="currentColor"/>
<path d="M129.36 33.3323V21.6523H131.792V33.3323H129.36Z" fill="currentColor"/>
<path d="M136.508 33.4923C135.665 33.4923 134.961 33.2577 134.396 32.7883C133.841 32.319 133.564 31.6683 133.564 30.8363C133.564 29.9297 133.873 29.247 134.492 28.7883C135.121 28.3297 135.964 28.1003 137.02 28.1003C137.735 28.1003 138.433 28.2177 139.116 28.4523V28.3083C139.116 27.263 138.503 26.7403 137.276 26.7403C136.54 26.7403 135.751 26.895 134.908 27.2043L134.3 25.3483C135.345 24.8897 136.455 24.6603 137.628 24.6603C138.919 24.6603 139.884 24.9803 140.524 25.6203C141.143 26.239 141.452 27.151 141.452 28.3563V33.3323H139.1V32.4043C138.449 33.1297 137.585 33.4923 136.508 33.4923ZM137.244 31.8123C137.809 31.8123 138.268 31.6737 138.62 31.3963C138.972 31.1083 139.148 30.7457 139.148 30.3083V29.8763C138.689 29.663 138.172 29.5563 137.596 29.5563C137.063 29.5563 136.647 29.663 136.348 29.8763C136.06 30.079 135.916 30.3777 135.916 30.7723C135.916 31.0923 136.039 31.3483 136.284 31.5403C136.529 31.7217 136.849 31.8123 137.244 31.8123Z" fill="currentColor"/>
<path d="M145.28 35.9403C144.512 35.9403 143.792 35.743 143.12 35.3483L143.936 33.5883C144.31 33.8123 144.656 33.9243 144.976 33.9243C145.36 33.9243 145.643 33.7377 145.824 33.3643L142.464 24.7563H145.04L146.992 30.5963L148.864 24.7563H151.392L148.096 33.5403C147.766 34.4257 147.392 35.0443 146.976 35.3963C146.56 35.759 145.995 35.9403 145.28 35.9403Z" fill="currentColor"/>
<path d="M54 17.2062V16.268C54.5773 16.6907 55.232 16.9021 55.9639 16.9021C56.4966 16.9021 56.9192 16.7732 57.232 16.5155C57.5481 16.2577 57.7062 15.9107 57.7062 15.4742C57.7062 14.5258 57.0653 14.0515 55.7835 14.0515H55.0155V13.3351H55.7216C56.268 13.3351 56.6907 13.2165 56.9897 12.9794C57.2921 12.7423 57.4433 12.4072 57.4433 11.9742C57.4433 11.6031 57.3179 11.3058 57.067 11.0825C56.8196 10.8591 56.4777 10.7474 56.0412 10.7474C55.4227 10.7474 54.8213 10.9416 54.2371 11.3299V10.4536C54.7801 10.1512 55.4055 10 56.1134 10C56.8144 10 57.366 10.1667 57.768 10.5C58.1701 10.8333 58.3711 11.2715 58.3711 11.8144C58.3711 12.7732 57.9038 13.378 56.9691 13.6289V13.6495C57.4777 13.7079 57.8814 13.8986 58.1804 14.2216C58.4794 14.5447 58.6289 14.945 58.6289 15.4227C58.6289 16.0997 58.3883 16.6392 57.9072 17.0412C57.4261 17.4399 56.768 17.6392 55.933 17.6392C55.0979 17.6392 54.4536 17.4948 54 17.2062Z" fill="currentColor"/>
<path d="M63.8402 17.5155H62.9948V16.6907H62.9742C62.6065 17.323 62.0653 17.6392 61.3505 17.6392C60.8247 17.6392 60.4124 17.5 60.1134 17.2216C59.8179 16.9433 59.6701 16.5739 59.6701 16.1134C59.6701 15.1271 60.2509 14.5533 61.4124 14.3918L62.9948 14.1701C62.9948 13.2732 62.6323 12.8247 61.9072 12.8247C61.2715 12.8247 60.6976 13.0412 60.1856 13.4742V12.6082C60.7045 12.2784 61.3024 12.1134 61.9794 12.1134C63.2199 12.1134 63.8402 12.7698 63.8402 14.0825V17.5155ZM62.9948 14.8454L61.7216 15.0206C61.3299 15.0756 61.0344 15.1735 60.8351 15.3144C60.6357 15.4519 60.5361 15.6976 60.5361 16.0515C60.5361 16.3093 60.6271 16.5206 60.8093 16.6856C60.9948 16.8471 61.2406 16.9278 61.5464 16.9278C61.9656 16.9278 62.311 16.7818 62.5825 16.4897C62.8574 16.1942 62.9948 15.8213 62.9948 15.3711V14.8454Z" fill="currentColor"/>
<path d="M68.366 12.9588H66.2784V17.5155H65.433V12.2371H68.366V12.9588Z" fill="currentColor"/>
<path d="M70.3402 16.7526H70.3196V19.9433H69.4742V12.2371H70.3196V13.1649H70.3402C70.756 12.4639 71.3643 12.1134 72.1649 12.1134C72.8454 12.1134 73.3763 12.3505 73.7577 12.8247C74.1392 13.2955 74.3299 13.9278 74.3299 14.7216C74.3299 15.6048 74.1151 16.3127 73.6856 16.8454C73.256 17.3746 72.6684 17.6392 71.9227 17.6392C71.2388 17.6392 70.7113 17.3436 70.3402 16.7526ZM70.3196 14.6237V15.3608C70.3196 15.7973 70.4605 16.1684 70.7423 16.4742C71.0275 16.7766 71.3883 16.9278 71.8247 16.9278C72.3368 16.9278 72.7371 16.732 73.0258 16.3402C73.3179 15.9485 73.4639 15.4038 73.4639 14.7062C73.4639 14.1186 73.3282 13.6581 73.0567 13.3247C72.7852 12.9914 72.4175 12.8247 71.9536 12.8247C71.4622 12.8247 71.067 12.9966 70.768 13.3402C70.4691 13.6804 70.3196 14.1082 70.3196 14.6237Z" fill="currentColor"/>
<path d="M79.8814 12.2371L77.4536 18.3608C77.0206 19.4536 76.4124 20 75.6289 20C75.4089 20 75.2251 19.9777 75.0773 19.933V19.1753C75.2595 19.2371 75.4261 19.268 75.5773 19.268C76.0034 19.268 76.323 19.0137 76.5361 18.5052L76.9588 17.5052L74.8969 12.2371H75.8351L77.2629 16.299C77.2801 16.3505 77.3162 16.4845 77.3711 16.701H77.4021C77.4192 16.6186 77.4536 16.488 77.5052 16.3093L79.0052 12.2371H79.8814Z" fill="currentColor"/>
<path d="M80.3505 17.366V16.5361C80.811 16.7938 81.3488 16.9227 81.9639 16.9227C82.8952 16.9227 83.3608 16.6271 83.3608 16.0361C83.3608 15.4519 82.8505 15.1598 81.8299 15.1598H81.3093V14.4433H81.8041C82.701 14.4433 83.1495 14.1649 83.1495 13.6082C83.1495 13.3711 83.0464 13.1821 82.8402 13.0412C82.634 12.9003 82.3522 12.8299 81.9948 12.8299C81.4828 12.8299 80.9691 12.9588 80.4536 13.2165V12.4278C81.0378 12.2148 81.5739 12.1082 82.0619 12.1082C83.3471 12.1082 83.9897 12.5808 83.9897 13.5258C83.9897 13.8316 83.8935 14.0962 83.701 14.3196C83.512 14.5395 83.2457 14.6856 82.9021 14.7577V14.7835C83.2938 14.8144 83.6082 14.9467 83.8454 15.1804C84.0825 15.4141 84.201 15.7096 84.201 16.067C84.201 16.5481 84.0069 16.9313 83.6186 17.2165C83.2302 17.5017 82.6959 17.6443 82.0155 17.6443C81.2904 17.6443 80.7354 17.5515 80.3505 17.366Z" fill="currentColor"/>
<path d="M89.9278 17.5155H89.165V13.3041C89.0893 13.4519 88.9742 13.6598 88.8196 13.9278L86.3814 17.5155H85.5052V12.2371H86.2784V16.3969C86.3196 16.2973 86.4089 16.1271 86.5464 15.8866L89.0515 12.2371H89.9278V17.5155Z" fill="currentColor"/>
<path d="M94.9536 12.9588H93.3711V17.5155H92.5258V12.9588H90.9381V12.2371H94.9536V12.9588Z" fill="currentColor"/>
<path d="M100.211 15.0876H96.4845C96.4983 15.6753 96.6564 16.1289 96.9588 16.4485C97.2612 16.768 97.677 16.9278 98.2062 16.9278C98.8007 16.9278 99.3471 16.732 99.8454 16.3402V17.134C99.3814 17.4708 98.768 17.6392 98.0052 17.6392C97.2595 17.6392 96.6735 17.4003 96.2474 16.9227C95.8213 16.4416 95.6082 15.7663 95.6082 14.8969C95.6082 14.0756 95.8402 13.4072 96.3041 12.8918C96.7715 12.3729 97.3505 12.1134 98.0412 12.1134C98.732 12.1134 99.2663 12.3368 99.6443 12.7835C100.022 13.2302 100.211 13.8505 100.211 14.6443V15.0876ZM99.3454 14.3711C99.3419 13.8832 99.2234 13.5034 98.9897 13.232C98.7595 12.9605 98.4381 12.8247 98.0258 12.8247C97.6272 12.8247 97.2887 12.9674 97.0103 13.2526C96.732 13.5378 96.5601 13.9107 96.4948 14.3711H99.3454Z" fill="currentColor"/>
<path d="M104.392 17.5155V12.2371H106.691C107.21 12.2371 107.619 12.3522 107.918 12.5825C108.22 12.8127 108.371 13.1271 108.371 13.5258C108.371 14.2096 108.034 14.6254 107.361 14.7732C108.168 14.8763 108.572 15.2835 108.572 15.9948C108.572 16.4244 108.406 16.7852 108.072 17.0773C107.742 17.3694 107.332 17.5155 106.84 17.5155H104.392ZM105.237 12.9588V14.4433H106.505C107.186 14.4433 107.526 14.1787 107.526 13.6495C107.526 13.189 107.22 12.9588 106.608 12.9588H105.237ZM105.237 15.1649V16.7938H106.701C107.385 16.7938 107.727 16.5172 107.727 15.9639C107.727 15.4313 107.344 15.1649 106.577 15.1649H105.237Z" fill="currentColor"/>
<path d="M20.9828 10.3313C20.313 9.92814 19.5147 9.89209 18.8185 10.2278L30.4917 21.9258L34.3085 18.0913L20.9828 10.3313ZM17.746 11.3104C17.5988 11.6222 17.5195 11.9691 17.5195 12.3261V33.7245C17.5195 34.083 17.5993 34.4247 17.748 34.7299L29.4167 23.006L17.746 11.3104ZM30.4933 24.0846L18.8389 35.7943C19.1482 35.9375 19.4772 36 19.8058 36C20.2115 36 20.6163 35.903 20.9829 35.6826L34.3111 27.911L30.4933 24.0846ZM39.3837 21.0468C39.3791 21.0438 39.374 21.0407 39.3694 21.0382L35.6695 18.8835L31.5678 23.0044L35.672 27.1173C35.672 27.1173 39.3791 24.956 39.3837 24.9534C40.0718 24.5355 40.4826 23.8053 40.4826 22.9999C40.4826 22.1945 40.0718 21.4642 39.3837 21.0468Z" fill="currentColor"/>
</svg>
