<svg width="46" height="54" viewBox="0 0 46 54" fill="none" xmlns="http://www.w3.org/2000/svg">
<path fill-rule="evenodd" clip-rule="evenodd" d="M33.7579 5.7981C37.3384 7.40292 41.042 8.71756 44.833 9.72935L45.7791 9.96907V23.5305C45.7791 34.5253 40.2375 42.0971 34.6419 46.9351C31.8435 49.3546 29.0364 51.0854 26.9146 52.2109C25.8541 52.7735 24.9664 53.184 24.3386 53.4532C24.0246 53.5878 23.7766 53.6867 23.6054 53.7513C23.5195 53.7837 23.4547 53.8068 23.4116 53.8213L23.4006 53.8249H23.3856L22.8896 54L22.4632 53.8495L22.4617 53.849C22.2049 53.752 16.6603 51.6577 11.1431 46.8974C5.54537 42.0675 0 34.5165 0 23.5305V9.96907L0.941152 9.73067L0.945404 9.72954C4.74171 8.724 8.45103 7.41489 12.0375 5.81486C15.5596 4.28689 18.9596 2.49179 22.2078 0.445193L22.8947 0L23.5879 0.428524L23.5894 0.42947C26.8371 2.47562 30.2365 4.27039 33.7579 5.7981ZM22.8896 51.31L22.7352 51.2467C21.0483 50.555 16.0041 48.2685 11.3762 43.8405C6.74202 39.4064 2.51452 32.8125 2.51452 23.5305V11.9254L2.8089 11.8408C6.30106 10.8369 9.7195 9.5923 13.0397 8.11601L13.0435 8.1143C16.3642 6.67889 19.5834 5.0195 22.6791 3.14755L22.8896 3.02027L23.1 3.14755C26.1957 5.0195 29.4149 6.67891 32.7356 8.11432L32.7394 8.11599C36.0596 9.5923 39.478 10.8369 42.9702 11.8408L43.2646 11.9254V23.5305C43.2646 32.8207 39.0372 39.4147 34.4028 43.8468C29.7749 48.2728 24.7306 50.5552 23.0439 51.2467L22.8896 51.31Z" fill="#1D252C"/>
<path d="M9.74626 24.6852C10.0526 24.6733 10.3523 24.7758 10.5872 24.9723L18.4632 32.8483L34.2424 17.5357C34.4788 17.3058 34.7971 17.1791 35.1268 17.1837C35.4565 17.1884 35.7708 17.3238 36.0007 17.5602C36.2305 17.7966 36.357 18.1146 36.3524 18.4443C36.3477 18.7737 36.2119 19.0884 35.9759 19.3182L18.3748 36.243L8.84562 26.7138C8.64913 26.4789 8.54671 26.1793 8.55854 25.8729C8.57056 25.5617 8.69955 25.2666 8.91974 25.0464C9.13993 24.8262 9.4351 24.6972 9.74626 24.6852Z" fill="#1D252C"/>
</svg>
