<svg width="54" height="44" viewBox="0 0 54 44" fill="none" xmlns="http://www.w3.org/2000/svg">
<path d="M53.549 29.6726L44.9864 23.2156V20.6224C44.9864 20.2669 44.8195 19.9321 44.5357 19.7181L27.6819 7.00867C27.278 6.70414 26.7217 6.70414 26.3178 7.00867L9.46396 19.7181C9.18015 19.9321 9.01332 20.2669 9.01332 20.6224V23.2156L0.450642 29.6726C0.166827 29.8867 0 30.2215 0 30.577V42.0205C0 42.6461 0.507114 43.1532 1.13267 43.1532H10.146H19.1593H34.8404H43.8537H52.867C53.4926 43.1532 53.9997 42.6461 53.9997 42.0205V30.577C53.9997 30.2215 53.8329 29.8867 53.549 29.6726ZM28.2246 40.8877H25.7749V35.1781H28.2246V40.8877ZM30.4899 40.8877V34.0454C30.4899 33.4198 29.9828 32.9127 29.3573 32.9127H24.6423C24.0167 32.9127 23.5096 33.4198 23.5096 34.0454V40.8877H18.0265H11.2787V21.1868L26.9998 9.33146L42.721 21.1868V40.8877H35.973H30.4899ZM2.26535 31.1414L9.01332 26.0528V40.8877H2.26535V31.1414ZM51.7343 40.8877H44.9864V26.0528L51.7343 31.1414V40.8877Z" fill="#1D252C"/>
<path d="M1.81466 22.3904L27 3.39851L52.1851 22.3905C52.3895 22.5446 52.6288 22.619 52.8663 22.619C53.2095 22.619 53.5488 22.4635 53.7715 22.1682C54.1482 21.6688 54.0487 20.9585 53.5492 20.582L27.682 1.07556C27.2781 0.771036 26.7218 0.771036 26.3179 1.07556L0.450764 20.5818C-0.0487442 20.9585 -0.148258 21.6687 0.228437 22.168C0.60497 22.6675 1.31548 22.767 1.81466 22.3904Z" fill="#1D252C"/>
</svg>
