<svg width="22" height="20" viewBox="0 0 22 20" fill="none" xmlns="http://www.w3.org/2000/svg">
<path fill-rule="evenodd" clip-rule="evenodd" d="M10.9932 3.13581C8.9938 0.7984 5.65975 0.169643 3.15469 2.31001C0.649644 4.45038 0.296968 8.02898 2.2642 10.5604C3.89982 12.6651 8.84977 17.1041 10.4721 18.5408C10.6536 18.7016 10.7444 18.7819 10.8502 18.8135C10.9426 18.8411 11.0437 18.8411 11.1361 18.8135C11.2419 18.7819 11.3327 18.7016 11.5142 18.5408C13.1365 17.1041 18.0865 12.6651 19.7221 10.5604C21.6893 8.02898 21.3797 4.42787 18.8316 2.31001C16.2835 0.192157 12.9925 0.7984 10.9932 3.13581Z" fill="currentColor"/>
<path d="M10.9932 3.13581L10.6132 3.46082C10.7082 3.57188 10.847 3.63581 10.9932 3.63581C11.1393 3.63581 11.2781 3.57188 11.3731 3.46082L10.9932 3.13581ZM2.2642 10.5604L2.659 10.2536L2.2642 10.5604ZM19.7221 10.5604L19.3273 10.2536L19.7221 10.5604ZM10.4721 18.5408L10.8036 18.1665L10.4721 18.5408ZM10.8502 18.8135L10.7073 19.2927L10.8502 18.8135ZM11.5142 18.5408L11.1827 18.1665L11.5142 18.5408ZM11.1361 18.8135L11.279 19.2927L11.1361 18.8135ZM11.3731 2.81081C9.22662 0.301369 5.58068 -0.420453 2.8299 1.92987L3.47949 2.69015C5.73882 0.759738 8.76098 1.29543 10.6132 3.46082L11.3731 2.81081ZM2.8299 1.92987C0.123975 4.24187 -0.263528 8.12257 1.8694 10.8672L2.659 10.2536C0.857463 7.93538 1.17531 4.6589 3.47949 2.69015L2.8299 1.92987ZM20.1169 10.8672C22.2454 8.12825 21.9121 4.22017 19.1512 1.92549L18.512 2.69454C20.8474 4.63557 21.1333 7.9297 19.3273 10.2536L20.1169 10.8672ZM19.1512 1.92549C16.3625 -0.392328 12.7635 0.296964 10.6132 2.81081L11.3731 3.46082C13.2216 1.29984 16.2045 0.776642 18.512 2.69454L19.1512 1.92549ZM1.8694 10.8672C2.71456 11.9548 4.38926 13.6161 6.02993 15.1647C7.68018 16.7224 9.32769 18.1952 10.1406 18.9151L10.8036 18.1665C9.99418 17.4497 8.35555 15.9847 6.71634 14.4375C5.06755 12.8812 3.44945 11.2707 2.659 10.2536L1.8694 10.8672ZM11.8457 18.9151C12.6586 18.1952 14.3061 16.7224 15.9564 15.1647C17.597 13.6161 19.2717 11.9548 20.1169 10.8672L19.3273 10.2536C18.5368 11.2707 16.9188 12.8812 15.27 14.4375C13.6308 15.9847 11.9921 17.4497 11.1827 18.1665L11.8457 18.9151ZM10.1406 18.9151C10.2255 18.9903 10.3106 19.0662 10.3888 19.125C10.4728 19.1883 10.5759 19.2535 10.7073 19.2927L10.9932 18.3344C11.0187 18.342 11.0235 18.3512 10.9903 18.3262C10.9512 18.2968 10.9002 18.2521 10.8036 18.1665L10.1406 18.9151ZM11.1827 18.1665C11.0861 18.2521 11.0351 18.2968 10.996 18.3262C10.9628 18.3512 10.9676 18.342 10.9932 18.3344L11.279 19.2927C11.4104 19.2535 11.5135 19.1883 11.5975 19.125C11.6757 19.0662 11.7608 18.9903 11.8457 18.9151L11.1827 18.1665ZM10.7073 19.2927C10.8929 19.348 11.0934 19.348 11.279 19.2927L10.9932 18.3344L10.7073 19.2927Z" fill="currentColor"/>
</svg>
