<svg width="18" height="14" viewBox="0 0 18 14" fill="none" xmlns="http://www.w3.org/2000/svg">
<path d="M0.75 0C0.335787 0 0 0.335787 0 0.75C0 1.16421 0.335787 1.5 0.75 1.5H17.25C17.6642 1.5 18 1.16421 18 0.75C18 0.335787 17.6642 0 17.25 0L0.75 0Z" fill="currentColor"/>
<path d="M0.75 6.25C0.335787 6.25 0 6.58579 0 7C0 7.41421 0.335787 7.75 0.75 7.75H17.25C17.6642 7.75 18 7.41421 18 7C18 6.58579 17.6642 6.25 17.25 6.25H0.75Z" fill="currentColor"/>
<path d="M0.75 12.5C0.335787 12.5 0 12.8358 0 13.25C0 13.6642 0.335787 14 0.75 14H17.25C17.6642 14 18 13.6642 18 13.25C18 12.8358 17.6642 12.5 17.25 12.5H0.75Z" fill="currentColor"/>
</svg>
