<svg width="20" height="20" viewBox="0 0 20 20" fill="none" xmlns="http://www.w3.org/2000/svg">
<path d="M6.22354 18.8978L6.35295 18.4148L6.35295 18.4148L6.22354 18.8978ZM4.5 15C4.5 14.7239 4.27614 14.5 4 14.5C3.72386 14.5 3.5 14.7239 3.5 15H4.5ZM4.10222 16.7765L4.58519 16.647L4.58519 16.647L4.10222 16.7765ZM6.22354 1.10222L6.35295 1.58519L6.35295 1.58519L6.22354 1.10222ZM3.5 5C3.5 5.27614 3.72386 5.5 4 5.5C4.27614 5.5 4.5 5.27614 4.5 5H3.5ZM4.10222 3.22354L3.61926 3.09413L4.10222 3.22354ZM18.673 17.362L18.2275 17.135L18.2275 17.135L18.673 17.362ZM17.362 18.673L17.589 19.1185L17.589 19.1185L17.362 18.673ZM18.673 2.63803L18.2275 2.86502L18.2275 2.86502L18.673 2.63803ZM17.362 1.32698L17.589 0.881477L17.589 0.881477L17.362 1.32698ZM10.3536 5.64645C10.1583 5.45118 9.84171 5.45118 9.64645 5.64645C9.45118 5.84171 9.45118 6.15829 9.64645 6.35355L10.3536 5.64645ZM14 10L14.3536 10.3536C14.5488 10.1583 14.5488 9.84171 14.3536 9.64645L14 10ZM9.64645 13.6464C9.45118 13.8417 9.45118 14.1583 9.64645 14.3536C9.84171 14.5488 10.1583 14.5488 10.3536 14.3536L9.64645 13.6464ZM1 9.5C0.723858 9.5 0.5 9.72386 0.5 10C0.5 10.2761 0.723858 10.5 1 10.5V9.5ZM18.5 5.8V14.2H19.5V5.8H18.5ZM8 1.5H14.2V0.5H8V1.5ZM14.2 18.5H8V19.5H14.2V18.5ZM8 18.5C7.03784 18.5 6.65484 18.4957 6.35295 18.4148L6.09413 19.3807C6.55524 19.5043 7.10222 19.5 8 19.5V18.5ZM3.5 15C3.5 15.8978 3.4957 16.4448 3.61926 16.9059L4.58519 16.647C4.50429 16.3452 4.5 15.9622 4.5 15H3.5ZM6.35295 18.4148C5.49022 18.1836 4.81635 17.5098 4.58519 16.647L3.61926 16.9059C3.94289 18.1137 4.88631 19.0571 6.09413 19.3807L6.35295 18.4148ZM8 0.5C7.10222 0.5 6.55524 0.495705 6.09413 0.61926L6.35295 1.58519C6.65484 1.50429 7.03784 1.5 8 1.5V0.5ZM4.5 5C4.5 4.03784 4.50429 3.65484 4.58518 3.35295L3.61926 3.09413C3.4957 3.55524 3.5 4.10222 3.5 5H4.5ZM6.09413 0.61926C4.88631 0.942895 3.94289 1.88631 3.61926 3.09413L4.58518 3.35295C4.81635 2.49022 5.49022 1.81635 6.35295 1.58519L6.09413 0.61926ZM18.5 14.2C18.5 15.0483 18.4996 15.6545 18.4608 16.1297C18.4224 16.599 18.3491 16.8963 18.2275 17.135L19.1185 17.589C19.3239 17.1859 19.4141 16.7423 19.4575 16.2111C19.5004 15.6858 19.5 15.0318 19.5 14.2H18.5ZM14.2 19.5C15.0318 19.5 15.6858 19.5004 16.2111 19.4575C16.7423 19.4141 17.1859 19.3239 17.589 19.1185L17.135 18.2275C16.8963 18.3491 16.599 18.4224 16.1297 18.4608C15.6545 18.4996 15.0483 18.5 14.2 18.5V19.5ZM18.2275 17.135C17.9878 17.6054 17.6054 17.9878 17.135 18.2275L17.589 19.1185C18.2475 18.783 18.783 18.2475 19.1185 17.589L18.2275 17.135ZM19.5 5.8C19.5 4.96817 19.5004 4.31423 19.4575 3.78889C19.4141 3.25771 19.3239 2.81413 19.1185 2.41103L18.2275 2.86502C18.3491 3.10366 18.4224 3.40099 18.4608 3.87032C18.4996 4.34549 18.5 4.95167 18.5 5.8H19.5ZM14.2 1.5C15.0483 1.5 15.6545 1.50039 16.1297 1.53921C16.599 1.57756 16.8963 1.65089 17.135 1.77248L17.589 0.881477C17.1859 0.676087 16.7423 0.585932 16.2111 0.542533C15.6858 0.499611 15.0318 0.5 14.2 0.5V1.5ZM19.1185 2.41103C18.783 1.75247 18.2475 1.21703 17.589 0.881477L17.135 1.77248C17.6054 2.01217 17.9878 2.39462 18.2275 2.86502L19.1185 2.41103ZM9.64645 6.35355L13.6464 10.3536L14.3536 9.64645L10.3536 5.64645L9.64645 6.35355ZM13.6464 9.64645L9.64645 13.6464L10.3536 14.3536L14.3536 10.3536L13.6464 9.64645ZM1 10.5H14V9.5H1V10.5Z" fill="#6D7889"/>
</svg>
