<svg width="164" height="32" viewBox="0 0 164 32" fill="none" xmlns="http://www.w3.org/2000/svg">
<path d="M61.3249 2.7086H61.8105V2.14957H59.1875V2.7086H59.6729V7.76705H59.1875V8.3259L61.8117 8.32476V7.76564H61.3262V7.76469L63.1525 4.38389L63.1552 7.76705H62.6696V8.3259H65.2925V7.76705H64.8072V2.7086H65.2925V2.14957L62.671 2.14844V2.70728H63.1552V2.7086L61.3323 6.09639L61.3249 2.7086Z" fill="#170909"/>
<path d="M152.563 2.70674H153.049V2.14762H150.426V2.70674H150.911V7.76511H150.426V8.32395L153.05 8.32281V7.76369H152.564V7.76275L154.391 4.38204L154.393 7.76511H153.908V8.32395H156.531V7.76511H156.045V2.70674H156.531V2.14762L153.909 2.14648V2.70532H154.393V2.70674L152.571 6.09444L152.563 2.70674Z" fill="#170909"/>
<path d="M146.963 18.8846H147.701V18.0348H143.715V18.8846H144.453V26.5711H143.715V27.4205L147.703 27.4189V26.569H146.965V26.5676L149.741 21.4303L149.745 26.5711H149.007V27.4205H152.994V26.5711H152.256V18.8846H152.994V18.0348L149.01 18.0332V18.8826H149.745V18.8846L146.975 24.0325L146.963 18.8846Z" fill="#170909"/>
<path d="M163.47 18.0352H158.746C157.786 18.0352 155.399 18.0606 155.399 20.3278C155.399 22.0564 156.506 22.5518 157.884 22.5518V22.7868C156.532 23.2351 156.235 23.4739 155.941 24.4683L155.497 25.9329C155.35 26.4066 155.177 26.6199 154.488 26.714V27.6649H155.892C156.63 27.6649 157.59 27.4516 157.933 26.2872L158.621 23.9945C158.817 23.3329 159.039 23.0724 160.221 23.0724V26.5728H159.483V27.4226H163.47V26.5728H162.732V18.885H163.47V18.0352ZM160.221 19.0984V22.1251H159.457C158.599 22.1251 158.155 21.7454 158.155 20.6351C158.155 19.5251 158.599 19.0984 159.435 19.0984H160.221Z" fill="#170909"/>
<path d="M122.652 23.4019C122.652 25.604 123.759 27.6652 127.007 27.6652C128.732 27.6617 130.011 27.1156 130.504 26.8083V24.7254H129.323C129.149 25.6981 128.807 26.5731 127.376 26.5731C125.826 26.5731 125.408 25.5101 125.408 24.2769V22.7871H129.864C130.7 22.7871 130.824 22.4073 130.824 21.8432C130.824 19.7603 129.767 17.7969 127.007 17.7969C123.759 17.7969 122.652 19.8544 122.652 22.053V23.4019ZM125.408 21.7241V21.1562C125.408 19.9738 125.603 18.8601 127.007 18.8601C128.412 18.8601 128.607 19.9738 128.607 21.1562V21.7241H125.408Z" fill="#170909"/>
<path d="M97.3789 23.4019C97.3789 25.604 98.4855 27.6652 101.734 27.6652C103.458 27.6617 104.738 27.1156 105.231 26.8083V24.7254H104.049C103.876 25.6981 103.533 26.5731 102.103 26.5731C100.552 26.5731 100.134 25.5101 100.134 24.2769V22.7871H104.591C105.427 22.7871 105.551 22.4073 105.551 21.8432C105.551 19.7603 104.493 17.7969 101.734 17.7969C98.4855 17.7969 97.3789 19.8544 97.3789 22.053V23.4019ZM100.134 21.7241V21.1562C100.134 19.9738 100.33 18.8601 101.734 18.8601C103.138 18.8601 103.334 19.9738 103.334 21.1562V21.7241H100.134Z" fill="#170909"/>
<path d="M76.1953 23.4019C76.1953 25.604 77.3019 27.6652 80.5506 27.6652C82.2745 27.6617 83.5545 27.1156 84.0475 26.8083V24.7254H82.8656C82.6923 25.6981 82.3499 26.5731 80.9193 26.5731C79.3686 26.5731 78.9508 25.5101 78.9508 24.2769V22.7871H83.4075C84.2434 22.7871 84.3675 22.4073 84.3675 21.8432C84.3675 19.7603 83.3098 17.7969 80.5506 17.7969C77.3019 17.7969 76.1953 19.8544 76.1953 22.053V23.4019ZM78.9508 21.7241V21.1562C78.9508 19.9738 79.1464 18.8601 80.5506 18.8601C81.9547 18.8601 82.1503 19.9738 82.1503 21.1562V21.7241H78.9508Z" fill="#170909"/>
<path d="M86.976 30.8584H86.2383V31.7081H90.2245V30.8584H89.4869V26.9023C90.0815 27.4303 91.0905 27.6652 91.8771 27.6652C94.61 27.6652 95.3741 25.5353 95.3741 23.5935V21.8651C95.3741 19.9231 94.61 17.7969 91.8771 17.7969C91.0151 17.7969 90.0062 18.0103 89.0953 18.8384L88.6511 18.0355H86.2383V18.8853H86.976V30.8584ZM89.4868 19.8073C89.8106 19.4747 90.4729 19.1674 91.1393 19.1674C92.3701 19.1674 92.566 20.3027 92.566 21.4854V23.9732C92.566 25.1556 92.3701 26.2912 91.1393 26.2912C90.4729 26.2875 89.8067 25.9802 89.4868 25.6475V19.8073Z" fill="#170909"/>
<path d="M65.6602 19.9491V23.4026C65.6602 25.6047 66.7669 27.6659 70.0191 27.6659C73.2677 27.6659 74.3743 25.6047 74.3743 23.4026V22.0537C74.3743 19.855 73.2677 17.7976 70.0191 17.7976C68.4194 17.7976 67.0643 19.074 66.7931 19.9962V19.1934C66.7931 17.3962 67.1883 15.4579 70.7569 15.1505L72.9703 14.9625C73.3656 14.9373 73.6366 14.8432 73.8813 14.7022L74.0544 12.5723C73.7834 12.6916 73.5613 12.7638 73.2188 12.7856L70.6327 12.9989C66.2774 13.3533 65.6602 17.3492 65.6602 19.9491ZM68.4156 21.1569C68.4156 19.9708 68.6114 18.8608 70.0191 18.8608C71.4232 18.8608 71.6189 19.9708 71.6189 21.1569V24.303C71.6189 25.4855 71.4232 26.5992 70.0191 26.5992C68.6114 26.5992 68.4156 25.4855 68.4156 24.303V21.1569Z" fill="#170909"/>
<path d="M24.2175 14.9382H25.1549V13.875H20.3291V14.9382H21.2627V16.1207C20.8185 16.0049 20.3517 15.9796 19.9075 15.9796C17.6677 15.9796 15.7969 16.8293 15.7969 19.6681V21.4182C15.7969 24.2569 17.6677 25.1067 19.9075 25.1067C20.3517 25.1067 20.8185 25.085 21.2627 24.9656V26.3615H20.3291V27.4245H25.1549V26.3615H24.2175V24.9656C24.6617 25.0814 25.1285 25.1067 25.5727 25.1067C27.8124 25.1067 29.6833 24.2569 29.6833 21.4182V19.6681C29.6833 16.8293 27.8124 15.9796 25.5727 15.9796C25.1285 15.9796 24.6617 16.0012 24.2175 16.1207V14.9382ZM21.2627 17.3031V23.7832C21.0668 23.8772 20.92 23.9242 20.649 23.9242C19.0455 23.9242 18.7517 22.6477 18.7517 21.6787V19.4076C18.7517 18.4384 19.0455 17.162 20.649 17.162C20.92 17.162 21.0668 17.2091 21.2627 17.3031ZM24.2175 17.3031C24.4133 17.2091 24.5638 17.162 24.8311 17.162C26.4347 17.162 26.7284 18.4384 26.7284 19.4076V21.6787C26.7284 22.6477 26.4347 23.9242 24.8311 23.9242C24.5638 23.9242 24.4133 23.8772 24.2175 23.7832V17.3031Z" fill="#170909"/>
<path d="M132.699 18.0352V18.885H133.437V26.5728H132.699V27.4226H136.686V26.5728H135.948V22.6458H138.658V26.5728H137.92V27.4226H141.907V26.5728H141.169V18.885H141.907V18.0352H137.92V18.885H138.658V21.5827H135.948V18.885H136.686V18.0352H132.699Z" fill="#170909"/>
<path d="M115.323 18.8853H116.061V18.0355H112.075V18.8853H112.813V21.7711H112.542C111.68 21.7711 111.458 21.2973 111.213 20.4476L110.795 18.9576C110.524 17.9633 109.44 17.7969 108.65 17.7969C108.258 17.7969 108.062 17.8222 107.84 17.8692V19.8798C108.281 19.547 108.431 19.5 108.751 19.5C109.293 19.5 109.587 19.9268 109.662 20.2341L109.956 21.2973C110.08 21.7241 110.449 21.959 110.916 22.0784V22.2917C109.267 22.458 108.872 23.4959 108.702 24.2083L108.356 25.6475C108.183 26.3129 108.036 26.6418 107.227 26.6418V27.5931C107.4 27.6399 107.867 27.6869 108.281 27.6869C109.884 27.6869 110.498 27.282 110.867 25.7199L111.213 24.2769C111.507 23.0005 112.199 22.8341 112.813 22.8341V26.5731H112.075V27.4229H116.061V26.5731H115.323V22.8341C115.941 22.8341 116.63 23.0005 116.923 24.2769L117.27 25.7199C117.639 27.282 118.256 27.6869 119.856 27.6869C120.274 27.6869 120.744 27.6399 120.914 27.5931V26.6418C120.1 26.6418 119.954 26.3129 119.78 25.6475L119.438 24.2083C119.265 23.4959 118.869 22.458 117.221 22.2917V22.0784C117.688 21.959 118.056 21.7241 118.181 21.2973L118.474 20.2341C118.55 19.9268 118.847 19.5 119.385 19.5C119.709 19.5 119.856 19.547 120.3 19.8798V17.8692C120.078 17.8222 119.878 17.7969 119.487 17.7969C118.696 17.7969 117.612 17.9633 117.341 18.9541L116.923 20.4476C116.679 21.2973 116.457 21.7711 115.595 21.7711H115.323V18.8853Z" fill="#170909"/>
<path d="M56.6794 19.9758C56.6794 17.2529 57.3456 15.8824 59.0696 15.8824C60.4248 15.886 61.0384 16.7105 61.3094 18.0845H63.0824V15.34C61.8778 14.6311 60.5491 14.4648 59.0696 14.4648C55.0532 14.4648 53.3555 17.0395 53.3555 20.2361V21.961C53.3555 25.1541 55.0532 27.736 59.0696 27.736C61.9268 27.736 63.7976 25.8665 63.7976 24.0439H61.0648C61.0648 25.2265 60.6958 26.3149 59.0696 26.3149C57.3456 26.3149 56.6794 24.9406 56.6794 22.2215V19.9758Z" fill="#170909"/>
<path d="M45.5664 22.0332V23.6424H51.3745V22.0332H45.5664Z" fill="#170909"/>
<path d="M36.2792 15.8354H37.2127V14.7722H32.3906V15.8354H33.3242V26.362H32.3906V27.425H37.2127V26.362H36.2792V21.0859H36.9943C37.7059 21.0859 38.6432 21.415 38.8613 22.3407L39.7723 26.1015C40.1186 27.4973 41.0785 27.736 42.4826 27.736C42.972 27.736 43.4651 27.7143 44.0561 27.6419V26.4811C42.9983 26.4811 42.7274 26.2208 42.3321 24.5901L41.7937 22.3407C41.5227 21.2523 40.4877 20.7352 39.2566 20.6629V20.3556C39.8476 20.1891 40.1186 20.0951 40.3633 19.4334L41.1275 17.4446C41.3232 16.9454 41.7411 16.6635 42.3811 16.6635C42.652 16.6635 42.9005 16.7827 43.3447 17.1154V14.7251C42.9983 14.5589 42.5805 14.4648 42.2116 14.4648C40.9545 14.4648 40.2918 15.0545 39.8213 16.2367L38.7636 18.9814C38.5189 19.6178 38.0257 19.7843 36.9943 19.7843L36.2792 19.7878V15.8354Z" fill="#170909"/>
<path d="M4.73232 15.8347H5.66585V14.7715H0.84375V15.8347H1.77737V26.3613H0.84375V27.4243H5.66585V26.3613H4.73232V21.0165H9.18535V26.3613H8.25182V27.4243H13.0739V26.3613H12.1403V15.8347H13.0739V14.7715H8.25182V15.8347H9.18535V19.7147H4.73232V15.8347Z" fill="#170909"/>
<path d="M163.425 2.06836H160.317C159.685 2.06836 158.115 2.08507 158.115 3.57682C158.115 4.71414 158.843 5.04015 159.75 5.04015V5.19471C158.86 5.48985 158.665 5.64677 158.472 6.30106L158.179 7.26466C158.083 7.57613 157.969 7.71662 157.516 7.77855V8.40434H158.439C158.925 8.40434 159.556 8.26394 159.782 7.49777L160.235 5.98949C160.364 5.55405 160.51 5.38269 161.288 5.38269V7.68584H160.802V8.24478H163.425V7.68584H162.94V2.62748H163.425V2.06836ZM161.288 2.76788V4.75927H160.785C160.22 4.75927 159.928 4.50945 159.928 3.77896C159.928 3.04867 160.22 2.76788 160.77 2.76788H161.288Z" fill="#170909"/>
<path d="M141.885 7.76269H141.399V3.93445C141.399 3.10879 141.124 1.98828 139.084 1.98828C137.494 1.98828 136.587 2.6878 136.587 3.73212H138.175C138.175 3.13976 138.549 2.6878 138.97 2.6878C139.601 2.6878 139.748 3.2017 139.748 3.82503V4.5101C137.9 4.95979 136.508 5.36427 136.508 6.87509C136.508 8.01232 137.189 8.48118 138.078 8.48118C138.839 8.48118 139.487 8.21465 140.022 7.87211L140.379 8.32162H141.885V7.76269ZM139.748 7.21782C139.505 7.45093 139.116 7.52929 138.937 7.52929C138.517 7.52929 138.321 7.15579 138.321 6.62518C138.321 5.67603 138.824 5.41185 139.748 5.20962V7.21772V7.21782Z" fill="#170909"/>
<path d="M113.699 5.67612C113.699 7.12492 114.427 8.48118 116.567 8.48118C118.705 8.48118 119.433 7.12492 119.433 5.67612V4.78862C119.433 3.3419 118.687 1.98828 116.55 1.98828C114.412 1.98828 113.699 3.3419 113.699 4.78862V5.67612ZM115.512 4.19853C115.512 3.4181 115.641 2.6878 116.567 2.6878C117.491 2.6878 117.62 3.4181 117.62 4.19853V6.26848C117.62 7.04646 117.491 7.77921 116.567 7.77921C115.641 7.77921 115.512 7.04646 115.512 6.26848V4.19853Z" fill="#170909"/>
<path d="M100.476 2.14844H97.3676C96.7359 2.14844 95.1657 2.16515 95.1657 3.6569C95.1657 4.79422 95.8938 5.12024 96.8003 5.12024V5.27489C95.9112 5.56993 95.7156 5.72685 95.5224 6.38114L95.2301 7.34474C95.1336 7.65621 95.0197 7.7967 94.5664 7.85864V8.48451H95.4902C95.9755 8.48451 96.6072 8.34412 96.8325 7.57785L97.2857 6.06958C97.4145 5.63414 97.5607 5.46277 98.3385 5.46277V7.76592H97.8529V8.32486H100.476V7.76592H99.9905V2.70756H100.476V2.14844ZM98.3384 2.84795V4.83945H97.8354C97.2708 4.83945 96.9785 4.58953 96.9785 3.85904C96.9785 3.12874 97.2708 2.84795 97.8206 2.84795H98.3384Z" fill="#170909"/>
<path d="M93.498 7.76659H93.0127V3.93836C93.0127 3.1127 92.7376 1.99219 90.6968 1.99219C89.1067 1.99219 88.2003 2.69171 88.2003 3.73603H89.7879C89.7879 3.14367 90.1618 2.69171 90.5829 2.69171C91.2145 2.69171 91.3607 3.20561 91.3607 3.82893V4.5141C89.513 4.9638 88.1211 5.36827 88.1211 6.879C88.1211 8.01632 88.8022 8.48518 89.6913 8.48518C90.4518 8.48518 91.1006 8.21855 91.6356 7.87602L91.9922 8.32553H93.498V7.76659ZM91.3606 7.22172C91.1178 7.45483 90.729 7.5332 90.5506 7.5332C90.1297 7.5332 89.9339 7.15969 89.9339 6.62908C89.9339 5.67993 90.4366 5.41585 91.3606 5.21352V7.22163V7.22172Z" fill="#170909"/>
<path d="M66.5625 5.67807C66.5625 7.12687 67.2907 8.48323 69.4306 8.48323C71.5679 8.48323 72.2961 7.12677 72.2961 5.67807V4.79058C72.2961 3.34386 71.5507 1.99023 69.4132 1.99023C67.2759 1.99023 66.5625 3.34386 66.5625 4.79058V5.67807ZM68.3755 4.20048C68.3755 3.42005 68.5042 2.68975 69.4306 2.68975C70.3544 2.68975 70.4831 3.42005 70.4831 4.20048V6.27043C70.4831 7.04841 70.3544 7.78116 69.4306 7.78116C68.5042 7.78116 68.3755 7.04841 68.3755 6.27043V4.20048Z" fill="#170909"/>
<path d="M24.5391 5.67807C24.5391 7.12687 25.2673 8.48323 27.4045 8.48323C28.539 8.48077 29.3811 8.12143 29.7054 7.91929V6.54877H28.9278C28.8139 7.1888 28.5884 7.76464 27.6473 7.76464C26.6269 7.76464 26.352 7.06512 26.352 6.25372V5.2736H29.2844C29.8341 5.2736 29.9161 5.02378 29.9161 4.65254C29.9161 3.28211 29.2201 1.99023 27.4045 1.99023C25.2673 1.99023 24.5391 3.34386 24.5391 4.79058V5.67807ZM26.352 4.57408V4.20048C26.352 3.42251 26.4808 2.68975 27.4045 2.68975C28.3283 2.68975 28.4573 3.42251 28.4573 4.20048V4.57408H26.352Z" fill="#170909"/>
<path d="M17.8828 2.14844V2.70756H18.3681V7.76593H17.8828V8.32486H20.5725C21.853 8.32486 23.1953 7.9371 23.1953 6.55005C23.1953 5.72459 22.6455 5.19643 21.625 5.01081V4.91554C22.5142 4.65147 22.9352 4.26352 22.9352 3.53322C22.9352 2.56717 22.0931 2.14844 21.1371 2.14844H17.8828ZM20.0201 5.39857H20.5873C21.0752 5.39857 21.3823 5.69362 21.3823 6.06712V6.95698C21.3823 7.33049 21.0752 7.62553 20.5873 7.62553H20.0201V5.39857ZM20.0201 2.84796H20.6047C21.1371 2.84796 21.2981 3.06454 21.2981 3.51651V4.03041C21.2981 4.4801 21.1371 4.69905 20.6021 4.69905H20.0201V2.84796Z" fill="#170909"/>
<path d="M143.18 2.14844V2.70747H143.665V7.76593H143.18V8.32477H145.802V7.76593H145.317V5.18198H147.1V7.76593H146.615V8.32477H149.238V7.76593H148.752V2.70747H149.238V2.14844H146.615V2.70747H147.1V4.48256H145.317V2.70747H145.802V2.14844H143.18Z" fill="#170909"/>
<path d="M129.207 2.14844V2.70747H129.692V7.76593H129.207V8.32477H131.83V7.76593H131.344V2.84795H133.175V7.76593H132.689V8.32477H135.312V7.76593H134.827V2.70747H135.312V2.14844H129.207Z" fill="#170909"/>
<path d="M120.613 2.14844V2.70747H121.099V7.76593H120.613V8.32477H122.312V7.76593H121.827L121.823 3.06719L123.578 6.78316H124.145L125.909 3.07738L125.909 7.76593H125.423V8.32477H128.046V7.76593H127.56V2.70747H128.046V2.14844H125.569L124.259 4.90129L122.961 2.14844H120.613Z" fill="#170909"/>
<path d="M109.072 2.14911H106.449V2.70823H106.935V7.76659H106.449V8.32553H109.072V7.76659H108.587V5.30652H108.861C109.268 5.30652 109.721 5.41595 109.914 6.25567L110.142 7.20501C110.385 8.23281 110.791 8.49944 111.843 8.49944C112.118 8.49944 112.425 8.46847 112.537 8.4375V7.81163C112.004 7.81163 111.908 7.59523 111.794 7.15752L111.569 6.21045C111.455 5.74177 111.195 5.05897 110.11 4.94954V4.80915C110.417 4.73069 110.66 4.57604 110.741 4.29515L110.934 3.59563C110.984 3.39349 111.18 3.1127 111.534 3.1127C111.744 3.1127 111.843 3.14367 112.133 3.36252V2.03968C111.987 2.00871 111.858 1.99219 111.601 1.99219C111.081 1.99219 110.367 2.10162 110.191 2.75345L109.914 3.73612C109.753 4.29525 109.607 4.607 109.04 4.607H108.587V2.70832H109.072V2.1492V2.14911Z" fill="#170909"/>
<path d="M80.8516 2.14844V2.70747H81.3371V7.76593H80.8516V8.32477H83.4743V7.76593H82.989V5.18198H84.7723V7.76593H84.2869V8.32477H86.9096V7.76593H86.4243V2.70747H86.9096V2.14844H84.2869V2.70747H84.7723V4.48256H82.989V2.70747H83.4743V2.14844H80.8516Z" fill="#170909"/>
<path d="M73.5742 2.14844V2.70747H74.0597V7.76593H73.5742V8.32477H76.1972V7.76593H75.7118V5.18198H77.495V7.76593H77.0095V8.32477H79.6324V7.76593H79.1471V2.70747H79.6324V2.14844H77.0095V2.70747H77.495V4.48256H75.7118V2.70747H76.1972V2.14844H73.5742Z" fill="#170909"/>
<path d="M51.5664 7.76593V8.32477H56.7651L57.139 10.8802H57.9168L58.2884 8.32741V7.76593H57.107V2.70747H57.5923V2.14844H54.9696V2.70747H55.4551V7.62544H53.7039V2.70747H54.1893V2.14844H51.5664V2.70747H52.0519V7.76593H51.5664Z" fill="#170909"/>
<path d="M46.356 2.70674H46.8416V2.14762H44.2188V2.70674H44.7041V7.76511H44.2188V8.32395L46.8429 8.32291V7.76378H46.3574V7.76284L48.1839 4.38213L48.1865 7.76511H47.701V8.32395H50.3237V7.76511H49.8385V2.70674H50.3237V2.14762L47.7022 2.14648V2.70532H48.1865V2.70674L46.3636 6.09444L46.356 2.70674Z" fill="#170909"/>
<path d="M41.1594 2.84795H41.9384L42.4412 4.24936H43.1694L43.0233 2.14844H37.6462L37.5 4.24936H38.2282L38.7309 2.84795H39.5163L39.5085 7.76593H39.0232V8.32477H41.6462V7.76593H41.1606L41.1594 2.84795Z" fill="#170909"/>
<path d="M31.2461 5.68229C31.2461 7.12882 31.9742 8.48518 34.1118 8.48518C35.0181 8.48273 35.6176 8.29475 36.2987 7.95202V6.458H35.4888C35.4243 7.0361 35.0998 7.78311 34.1118 7.78311C33.1878 7.78311 33.059 7.05036 33.059 6.27238V4.20244C33.059 3.31503 33.2696 2.69171 34.0151 2.69171C34.6963 2.69171 34.7929 3.29832 34.7929 3.89068H36.2988C36.2988 2.64403 35.36 1.99219 34.1119 1.99219C31.9743 1.99219 31.2462 3.34581 31.2462 4.79253V5.68229H31.2461Z" fill="#170909"/>
<path d="M10.5508 2.14844V2.70747H11.0363V7.76593H10.5508V8.32477H13.1736V7.76593H12.6883V5.18198H14.4716V7.76593H13.986V8.32477H16.6089V7.76593H16.1235V2.70747H16.6089V2.14844H13.986V2.70747H14.4716V4.48256H12.6883V2.70747H13.1736V2.14844H10.5508Z" fill="#170909"/>
<path d="M3.42964 0.699614H4.04609V0H0.871094V0.699614H1.48525V7.62541H0.871094V8.32474L4.04523 8.32502V7.62541H3.42964L6.4427 2.17871L6.44357 7.62541H5.82702V8.32474H9.0022V7.62541H8.38536V0.699614H8.99962V0L5.82606 0.000283521V0.699614H6.44127L3.42964 6.148V0.699614Z" fill="#170909"/>
</svg>
