<svg width="37" height="43" viewBox="0 0 37 43" fill="none" xmlns="http://www.w3.org/2000/svg">
<path fill-rule="evenodd" clip-rule="evenodd" d="M21.9214 2.13778C23.9359 2.13778 25.8789 2.42817 27.7092 2.96706V7.89968C26.4214 7.3796 25.0483 7.01758 23.6146 6.83879V7.80533C25.4392 8.04857 27.2217 8.59574 28.7907 9.52765V3.31868C31.9269 4.43807 34.6872 6.30216 36.838 8.68722L36.8434 8.69351L32.5065 14.8221V16.626L32.5447 16.6509L36.838 10.5879V31.6781L32.5404 25.6033L32.5065 25.6253V27.4411L36.8111 33.5215C34.6658 35.8906 31.919 37.7433 28.7984 38.8588V34.5674C28.4464 34.7567 28.0858 34.9327 27.7169 35.0944V39.2115C25.8845 39.7524 23.9383 40.0437 21.9214 40.0437C21.2407 40.0437 20.5677 40.0106 19.9043 39.9458V37.2628L19.9065 37.2631V36.3006C19.5441 36.263 19.181 36.2137 18.8268 36.1515L18.8233 39.8102C16.0767 39.3939 13.5188 38.4316 11.2721 37.0448V22.2287H10.1907V36.3275C5.33862 32.8747 2.19202 27.3355 2.19202 21.0909C2.19202 14.8462 5.33862 9.30651 10.1907 5.85352V18.2871H5.41946V19.3258H11.2731L11.2721 5.15451H11.242C13.4967 3.75727 16.0655 2.78909 18.8251 2.37096V6.92767C17.447 7.15313 16.129 7.54977 14.8955 8.09202V9.15242C16.4347 8.4201 18.1235 7.93417 19.9064 7.74997V7.577H19.9069V2.23563C20.569 2.17103 21.2413 2.13785 21.9213 2.13785L21.9214 2.13778ZM19.9344 32.7674C18.064 32.5143 16.3403 31.8207 14.881 30.7996V29.4163C16.0138 30.3566 17.3656 31.0608 18.8524 31.4486L18.853 11.4807C19.2059 11.3987 19.5653 11.3326 19.9299 11.283L19.9335 31.6703H19.9344V32.7674H19.9344ZM27.7692 12.989C28.1333 13.2218 28.5148 13.4968 28.8474 13.7676L28.8517 30.2689C27.4085 31.5243 25.4467 32.3693 23.5409 32.7003V31.5958C25.1127 31.2911 26.5525 30.6375 27.7704 29.7235L27.7692 12.9889V12.989ZM21.9215 0C27.6833 0 32.9251 2.1373 36.8382 5.63053V7.42209C33.0865 3.63609 27.7905 1.27662 21.9215 1.27662C10.5504 1.27662 1.3288 10.1355 1.3288 21.0591C1.3288 31.983 10.5504 40.8417 21.9215 40.8417C27.7905 40.8417 33.0866 38.4814 36.8382 34.6956V36.4871C32.9251 39.9802 27.6833 42.1179 21.9215 42.1179C9.81686 42.1179 0 32.6875 0 21.0591C0 9.43049 9.81686 0 21.9215 0V0Z" fill="url(#paint0_radial_2_95)"/>
<defs>
<radialGradient id="paint0_radial_2_95" cx="0" cy="0" r="1" gradientUnits="userSpaceOnUse" gradientTransform="translate(20.6347 20.2151) scale(12.9631 12.8037)">
<stop stop-color="#47993D"/>
<stop offset="1" stop-color="#337B43"/>
</radialGradient>
</defs>
</svg>
