<svg width="498" height="143" viewBox="0 0 498 143" fill="none" xmlns="http://www.w3.org/2000/svg">
<path d="M52.3173 114.68H50.3589L40.5667 73.7428H22.1016V123.372H31.6139V82.4349H33.5723L43.3645 123.372H59.5915L69.3836 82.4349H71.342V123.372H80.8544V73.7428H62.3892L52.3173 114.68ZM149.399 123.372H183.252V114.68H159.191V102.343H179.895V93.931H159.191V82.4349H183.252V73.7428H149.399V123.372ZM115.267 116.082C104.355 116.082 99.3195 108.511 99.3195 98.4173C99.3195 88.3232 104.355 81.033 115.267 81.033C126.178 81.033 131.214 88.6036 131.214 98.4173C131.214 108.231 126.178 116.082 115.267 116.082ZM115.267 72.3408C98.76 72.3408 89.2476 82.9957 89.2476 98.4173C89.2476 113.839 98.76 124.774 115.267 124.774C131.773 124.774 141.286 113.839 141.286 98.4173C141.286 82.9957 131.773 72.3408 115.267 72.3408ZM189.967 123.372H200.318L211.789 103.745L224.379 123.372H234.731L218.224 97.2957L233.891 73.7428H223.26L212.349 91.4075L201.438 73.7428H190.806L205.914 97.0153L189.967 123.372Z" fill="white"/>
<path d="M396.442 87.7627L400.358 88.3235C399.519 92.8098 395.602 95.3333 391.406 95.3333C384.691 95.3333 381.613 90.5667 381.613 84.1176C381.613 77.6686 384.971 73.1824 391.685 73.1824C395.882 73.1824 398.96 75.1451 400.358 79.0706L396.442 80.7529C395.602 78.5098 393.924 77.1078 391.406 77.1078C387.209 77.1078 385.53 80.4725 385.53 84.398C385.53 88.3235 387.209 91.6882 391.406 91.6882C394.203 91.6882 395.882 90.2863 396.442 87.7627ZM254.875 119.727H260.191C262.149 119.727 263.548 118.606 263.548 116.643C263.548 114.68 262.149 113.559 260.191 113.559H254.875V119.727ZM250.958 123.373V102.063H266.346V105.708H254.875V109.914H260.751C264.947 109.914 267.465 111.876 267.465 116.363C267.465 120.569 264.947 123.373 260.751 123.373H250.958ZM269.983 123.373V102.063H273.9V119.727H274.46L279.775 102.063H287.329V123.373H283.412V105.708H282.853L277.537 123.373H269.983ZM295.163 112.998H300.199C302.437 112.998 303.556 111.316 303.556 109.353C303.556 107.11 302.437 105.988 300.199 105.988H295.163V112.998ZM291.246 123.373V102.063H300.199C304.675 102.063 307.753 104.586 307.753 109.073C307.753 113.559 304.675 116.363 300.199 116.363H295.163V123.373H291.246ZM307.753 123.373L314.467 112.157L308.033 102.063H312.789L317.545 110.475H319.224V102.063H323.14V110.475H324.819L329.575 102.063H334.331L327.897 112.157L334.611 123.373H329.855L324.819 114.12H323.14V123.373H319.224V114.12H317.545L312.509 123.373H307.753ZM342.165 114.4H348.32L345.802 105.708H344.963L342.165 114.4ZM335.451 123.373L342.445 102.063H348.32L355.315 123.373H351.118L349.439 118.045H341.046L339.367 123.373H335.451ZM250.958 95.0529V73.7431H258.512L262.149 91.4078H262.709L266.066 73.7431H273.62V95.0529H269.703V77.3882H269.144L265.787 95.0529H259.072L255.435 77.3882H254.875V95.0529H250.958ZM286.77 91.6882C291.246 91.6882 292.925 88.3235 292.925 84.398C292.925 80.1922 290.687 77.1078 286.49 77.1078C282.013 77.1078 280.335 80.4725 280.335 84.398C280.335 88.3235 282.293 91.6882 286.77 91.6882ZM286.77 95.3333C280.055 95.3333 276.418 90.5667 276.418 84.1176C276.418 77.6686 280.335 73.1824 286.77 73.1824C293.484 73.1824 297.121 77.949 297.121 84.1176C297.121 90.2863 293.484 95.3333 286.77 95.3333ZM314.467 87.7627L318.384 88.3235C317.545 92.8098 313.628 95.3333 309.431 95.3333C302.717 95.3333 299.639 90.5667 299.639 84.1176C299.639 77.6686 302.997 73.1824 309.711 73.1824C313.908 73.1824 316.985 75.1451 318.384 79.0706L314.467 80.7529C313.628 78.5098 311.949 77.1078 309.431 77.1078C305.235 77.1078 303.556 80.4725 303.556 84.398C303.556 88.3235 305.235 91.6882 309.431 91.6882C312.229 91.6882 313.628 90.2863 314.467 87.7627ZM321.462 95.0529V73.7431H325.379V82.1549H327.617L334.052 73.7431H339.088L330.974 83.5569L339.367 95.0529H334.331L327.617 85.8H325.379V95.0529H321.462ZM349.719 91.6882C354.196 91.6882 355.874 88.3235 355.874 84.398C355.874 80.1922 353.636 77.1078 349.439 77.1078C344.963 77.1078 343.284 80.4725 343.284 84.398C343.284 88.3235 345.243 91.6882 349.719 91.6882ZM349.719 95.3333C343.004 95.3333 339.367 90.5667 339.367 84.1176C339.367 77.6686 343.004 73.1824 349.719 73.1824C356.434 73.1824 360.071 77.949 360.071 84.1176C360.071 90.2863 356.154 95.3333 349.719 95.3333ZM366.785 82.4353H372.101C373.78 82.4353 375.179 81.5941 375.179 79.9118C375.179 77.949 374.06 77.3882 372.101 77.3882H366.785V82.4353ZM366.785 91.4078H372.381C374.339 91.4078 375.738 90.8471 375.738 88.6039C375.738 86.3608 374.339 85.8 372.381 85.8H366.785V91.4078ZM362.869 95.0529V73.7431H372.661C376.018 73.7431 378.816 75.1451 378.816 79.0706C378.816 81.5941 377.976 83.2765 375.738 84.398C378.256 84.9588 379.375 86.9216 379.375 89.4451C379.375 93.3706 376.578 95.3333 372.94 95.3333H362.869V95.0529ZM403.716 95.0529V73.7431H407.633V82.1549H409.871L416.306 73.7431H421.342L413.508 83.5569L421.621 95.0529H416.585L409.871 85.8H407.633V95.0529H403.716ZM428.896 85.8H435.051L432.533 77.1078H431.693L428.896 85.8ZM422.181 95.0529L429.455 73.7431H435.33L442.325 95.0529H438.128L436.449 89.7255H427.776L426.098 95.0529H422.181ZM456.873 83.2765V77.3882H452.117C449.879 77.3882 448.48 77.949 448.48 80.4725C448.48 82.9961 449.879 83.5569 452.117 83.5569H456.873V83.2765ZM444.283 95.0529L445.122 89.1647C445.402 87.202 446.242 86.0804 448.2 85.2392C445.962 84.398 444.563 82.1549 444.563 79.6314C444.563 75.7059 448.2 73.7431 451.837 73.7431H460.79V95.0529H456.873V86.9216H452.117C450.158 86.9216 449.599 87.4824 449.319 89.7255L448.48 95.3333H444.283V95.0529ZM0 143V53.5549H89.2483V0H231.934V143H0Z" fill="#FF0508"/>
<path d="M48.3994 114.68H46.441L37.2084 73.4624H20.4219V123.372H29.3747V82.4349H31.3331L40.0061 123.372H55.114L64.0668 82.1545H66.0252V123.372H74.9781V73.7428H57.9118L48.3994 114.68ZM138.487 123.372H169.542V114.68H147.44V102.343H166.465V93.931H147.44V82.1545H169.542V73.4624H138.487V123.372ZM106.593 116.082C96.5208 116.082 91.7646 108.511 91.7646 98.6977C91.7646 88.884 96.5208 81.3134 106.593 81.3134C116.665 81.3134 121.421 88.884 121.421 98.6977C121.421 108.511 116.665 116.082 106.593 116.082ZM106.593 72.3408C91.4848 72.3408 82.532 82.7153 82.532 98.4173C82.532 114.119 91.4848 124.774 106.593 124.774C121.701 124.774 130.653 113.839 130.653 98.4173C130.653 82.9957 121.701 72.3408 106.593 72.3408ZM175.697 123.372H185.21L196.121 103.745L207.592 123.372H217.104L201.716 97.2957L216.265 73.4624H206.752L196.68 91.1271L186.329 73.4624H176.816L190.805 97.0153L175.697 123.372Z" fill="white"/>
</svg>
