<svg width="54" height="54" viewBox="0 0 54 54" fill="none" xmlns="http://www.w3.org/2000/svg">
<g clip-path="url(#clip0_101_164)">
<path d="M8.97212 47.981C8.77606 47.7847 8.50395 47.672 8.22656 47.672C7.94918 47.672 7.67707 47.7847 7.4809 47.981C7.28473 48.1773 7.17188 48.4493 7.17188 48.7267C7.17188 49.0041 7.28462 49.2762 7.4809 49.4722C7.67707 49.6684 7.94918 49.7814 8.22656 49.7814C8.50395 49.7814 8.77606 49.6685 8.97212 49.4722C9.16829 49.2762 9.28125 49.0041 9.28125 48.7267C9.28125 48.4493 9.1684 48.1772 8.97212 47.981Z" fill="#1D252C"/>
<path d="M49.5201 19.2943C49.3239 19.098 49.0529 18.9852 48.7744 18.9852C48.497 18.9852 48.2249 19.098 48.0287 19.2943C47.8327 19.4904 47.7197 19.7625 47.7197 20.0399C47.7197 20.3173 47.8326 20.5894 48.0287 20.7855C48.2249 20.9816 48.497 21.0946 48.7744 21.0946C49.0529 21.0946 49.3239 20.9818 49.5201 20.7855C49.7172 20.5894 49.8301 20.3173 49.8301 20.0399C49.8301 19.7625 49.7172 19.4904 49.5201 19.2943Z" fill="#1D252C"/>
<path d="M53.6907 0.308918C53.4928 0.111164 53.2245 0 52.9447 0L27 0.00137109C26.4176 0.00137109 25.9454 0.47366 25.9454 1.05606V4.07215L15.9482 6.75095C15.3855 6.90177 15.0516 7.48005 15.2024 8.04262L20.3838 27.3795L15.9014 31.8618C15.331 31.0288 14.3731 30.481 13.2896 30.481H3.16493C1.42027 30.481 0.000976562 31.9004 0.000976562 33.645V50.8359C0.000976562 52.5806 1.42027 54 3.16493 54H13.2897C14.7719 54 16.0187 52.9753 16.3604 51.5974L17.6145 52.691C18.5826 53.5352 19.8229 54.0001 21.1074 54.0001H52.9449C53.5273 54.0001 53.9996 53.5278 53.9996 52.9454V1.05469C53.9994 0.774984 53.8884 0.506672 53.6907 0.308918ZM14.3442 50.836C14.3442 51.4175 13.8711 51.8907 13.2895 51.8907H3.16483C2.58327 51.8907 2.11014 51.4176 2.11014 50.836V33.6451C2.11014 33.0635 2.58327 32.5904 3.16483 32.5904H7.17253V44.7398C7.17253 45.3222 7.64482 45.7945 8.22722 45.7945C8.80962 45.7945 9.28191 45.3222 9.28191 44.7398V32.5904H13.2896C13.8712 32.5904 14.3443 33.0635 14.3443 33.6451V50.836H14.3442ZM17.5128 8.51544L25.9454 6.25588V10.164L25.2386 10.3534C24.9683 10.4259 24.738 10.6026 24.5982 10.8448C24.4583 11.0871 24.4204 11.3749 24.4928 11.6451C24.8981 13.1576 23.9973 14.7178 22.4848 15.1232C22.2143 15.1957 21.9836 15.3727 21.8439 15.6155C21.7041 15.8582 21.6665 16.1465 21.7396 16.4169L25.8506 31.6401H23.7339L22.643 27.3724C22.6083 27.2366 22.5476 27.1114 22.4662 27.0025L17.5128 8.51544ZM25.9454 15.0007V23.9003L24.0218 16.7774C24.8254 16.3625 25.483 15.7417 25.9454 15.0007ZM41.0975 51.8906H21.1072C20.3325 51.8906 19.5844 51.6103 19.0005 51.1012L16.4536 48.8799V34.2928L21.0581 29.6883L21.8932 32.9557C22.0126 33.4226 22.4331 33.7492 22.915 33.7492L43.6506 33.7504C44.4648 33.7504 45.1272 34.4128 45.1272 35.227C45.1272 36.0412 44.4648 36.7035 43.6506 36.7035H33.0257C32.4433 36.7035 31.971 37.1758 31.971 37.7582C31.971 38.3406 32.4433 38.8129 33.0257 38.8129H46.9518C47.766 38.8129 48.4283 39.4753 48.4283 40.2895C48.4283 41.1037 47.766 41.766 46.9518 41.766H33.0257C32.4433 41.766 31.971 42.2383 31.971 42.8207C31.971 43.4031 32.4433 43.8754 33.0257 43.8754H44.695C45.5093 43.8754 46.1716 44.5378 46.1716 45.352C46.1716 46.1662 45.5093 46.8285 44.695 46.8285H33.0257C32.4433 46.8285 31.971 47.3008 31.971 47.8832C31.971 48.4656 32.4433 48.9379 33.0257 48.9379H41.0975C41.9117 48.9379 42.5741 49.6003 42.5741 50.4145C42.574 51.2283 41.9116 51.8906 41.0975 51.8906ZM51.8902 51.8906H51.8901H44.364C44.5685 51.44 44.6833 50.9404 44.6833 50.4141C44.6833 49.8878 44.5685 49.3882 44.364 48.9375H44.695C46.6723 48.9375 48.2809 47.3289 48.2809 45.3517C48.2809 44.775 48.1432 44.23 47.9002 43.7467C49.4186 43.3297 50.5375 41.9381 50.5375 40.2893C50.5375 39.4894 50.274 38.75 49.8297 38.153V24.7859C49.8297 24.2035 49.3574 23.7312 48.775 23.7312C48.1926 23.7312 47.7203 24.2035 47.7203 24.7859V36.7874C47.4725 36.7331 47.2154 36.7035 46.9516 36.7035H46.917C47.1215 36.2529 47.2363 35.7533 47.2363 35.227C47.2363 33.2497 45.6277 31.6412 43.6505 31.6412H41.9551C43.7553 30.8691 45.0197 29.0797 45.0197 27C45.0197 24.2168 42.7555 21.9525 39.9723 21.9525C37.1892 21.9525 34.9248 24.2168 34.9248 27C34.9248 29.0797 36.1893 30.8691 37.9894 31.6412H32.2242V11.5871C34.1083 11.1765 35.595 9.68994 36.0055 7.80574H43.9389C44.3494 9.68994 45.8361 11.1765 47.7202 11.5871V14.8661C47.7202 15.4485 48.1925 15.9208 48.7749 15.9208C49.3573 15.9208 49.8296 15.4485 49.8296 14.8661V10.6455C49.8296 10.0631 49.3573 9.5908 48.7749 9.5908C47.209 9.5908 45.9353 8.31684 45.9353 6.75105C45.9353 6.16866 45.463 5.69637 44.8806 5.69637H35.064C34.4816 5.69637 34.0093 6.16866 34.0093 6.75105C34.0093 8.31695 32.7354 9.5908 31.1696 9.5908C30.5872 9.5908 30.1149 10.0631 30.1149 10.6455V31.641H28.0549V2.11054L51.8902 2.10938V51.8906ZM39.9725 29.9381C38.3524 29.9381 37.0344 28.6201 37.0344 27.0001C37.0344 25.3801 38.3525 24.062 39.9725 24.062C41.5925 24.062 42.9105 25.38 42.9105 27C42.9105 28.62 41.5926 29.9381 39.9725 29.9381Z" fill="#1D252C"/>
</g>
<defs>
<clipPath id="clip0_101_164">
<rect width="54" height="54" fill="white"/>
</clipPath>
</defs>
</svg>
