<svg width="54" height="54" viewBox="0 0 54 54" fill="none" xmlns="http://www.w3.org/2000/svg">
<path d="M22.7822 36.4922C23.3647 36.4922 23.8369 36.02 23.8369 35.4375C23.8369 34.855 23.3647 34.3828 22.7822 34.3828C22.1997 34.3828 21.7275 34.855 21.7275 35.4375C21.7275 36.02 22.1997 36.4922 22.7822 36.4922Z" fill="#1D252C"/>
<path d="M4.21973 14.3438V18.5625C4.21973 19.145 4.69191 19.6172 5.27441 19.6172H35.7549C36.3373 19.6172 36.8096 19.145 36.8096 18.5625V14.3438C36.8096 13.7612 36.3373 13.2891 35.7549 13.2891H5.27441C4.69191 13.2891 4.21973 13.7612 4.21973 14.3438ZM15.3994 15.3984H34.7002V17.5078H15.3994V15.3984ZM6.3291 15.3984H13.29V17.5078H6.3291V15.3984Z" fill="#1D252C"/>
<path d="M5.27441 23.8359H35.7549C36.3373 23.8359 36.8096 23.3638 36.8096 22.7812C36.8096 22.1987 36.3373 21.7266 35.7549 21.7266H5.27441C4.69191 21.7266 4.21973 22.1987 4.21973 22.7812C4.21973 23.3638 4.69191 23.8359 5.27441 23.8359Z" fill="#1D252C"/>
<path d="M5.27441 28.0547H35.7549C36.3373 28.0547 36.8096 27.5825 36.8096 27C36.8096 26.4175 36.3373 25.9453 35.7549 25.9453H5.27441C4.69191 25.9453 4.21973 26.4175 4.21973 27C4.21973 27.5825 4.69191 28.0547 5.27441 28.0547Z" fill="#1D252C"/>
<path d="M5.27441 32.2734H22.7822C23.3647 32.2734 23.8369 31.8013 23.8369 31.2188C23.8369 30.6362 23.3647 30.1641 22.7822 30.1641H5.27441C4.69191 30.1641 4.21973 30.6362 4.21973 31.2188C4.21973 31.8013 4.69191 32.2734 5.27441 32.2734Z" fill="#1D252C"/>
<path d="M5.27441 36.4922H18.5635C19.146 36.4922 19.6182 36.02 19.6182 35.4375C19.6182 34.855 19.146 34.3828 18.5635 34.3828H5.27441C4.69191 34.3828 4.21973 34.855 4.21973 35.4375C4.21973 36.02 4.69191 36.4922 5.27441 36.4922Z" fill="#1D252C"/>
<path d="M14.3447 44.9297H19.7243C20.2143 47.3338 22.3448 49.1484 24.8916 49.1484C27.7994 49.1484 30.165 46.7828 30.165 43.875C30.165 40.9672 27.7994 38.6016 24.8916 38.6016C22.345 38.6016 20.2143 40.4162 19.7243 42.8203H14.3447C13.7622 42.8203 13.29 43.2925 13.29 43.875C13.29 44.4575 13.7622 44.9297 14.3447 44.9297ZM24.8916 42.8203H21.9089C22.3443 41.5928 23.5166 40.7109 24.8916 40.7109C26.6363 40.7109 28.0557 42.1303 28.0557 43.875C28.0557 45.6197 26.6363 47.0391 24.8916 47.0391C23.5167 47.0391 22.3443 46.1572 21.9089 44.9297H24.8916C25.474 44.9297 25.9463 44.4575 25.9463 43.875C25.9463 43.2925 25.4741 42.8203 24.8916 42.8203Z" fill="#1D252C"/>
<path d="M35.7549 8.4375C36.3373 8.4375 36.8096 7.96532 36.8096 7.38281C36.8096 6.80031 36.3373 6.32812 35.7549 6.32812H33.6455C33.0631 6.32812 32.5908 6.80031 32.5908 7.38281C32.5908 7.96532 33.0631 8.4375 33.6455 8.4375H35.7549Z" fill="#1D252C"/>
<path d="M29.4268 8.4375C30.0092 8.4375 30.4814 7.96532 30.4814 7.38281C30.4814 6.80031 30.0092 6.32812 29.4268 6.32812H27.3174C26.735 6.32812 26.2627 6.80031 26.2627 7.38281C26.2627 7.96532 26.735 8.4375 27.3174 8.4375H29.4268Z" fill="#1D252C"/>
<path d="M23.0986 8.4375C23.6811 8.4375 24.1533 7.96532 24.1533 7.38281C24.1533 6.80031 23.6811 6.32812 23.0986 6.32812H20.9893C20.4068 6.32812 19.9346 6.80031 19.9346 7.38281C19.9346 7.96532 20.4068 8.4375 20.9893 8.4375H23.0986Z" fill="#1D252C"/>
<path d="M20.6729 54C21.2553 54 21.7275 53.5278 21.7275 52.9453C21.7275 52.3628 21.2553 51.8906 20.6729 51.8906C20.0904 51.8906 19.6182 52.3628 19.6182 52.9453C19.6182 53.5278 20.0904 54 20.6729 54Z" fill="#1D252C"/>
<path d="M1.05566 54H15.9268C16.5093 54 16.9814 53.5278 16.9814 52.9453C16.9814 52.3628 16.5093 51.8906 15.9268 51.8906H2.11035V10.5469H9.49316C10.0757 10.5469 10.5479 10.0747 10.5479 9.49219V2.10938H38.9189V31.9203C38.4405 32.4864 37.9938 32.9833 37.6072 33.3799L35.3713 31.144C33.311 29.0823 29.9741 29.0813 27.9131 31.1438L26.4217 32.6351C26.0099 33.0469 26.0099 33.7148 26.4217 34.1266L38.9188 46.6237V51.8906H25.4188C24.8363 51.8906 24.3642 52.3628 24.3642 52.9453C24.3642 53.5278 24.8363 54 25.4188 54H39.9735C40.5559 54 41.0282 53.5278 41.0282 52.9453V48.7331L41.3371 49.042C41.749 49.4536 42.4169 49.4539 42.8288 49.042L44.3201 47.5507C46.3808 45.49 46.3812 42.1538 44.3201 40.0928L42.0845 37.8571C44.0851 35.9077 48.4858 32.6697 50.798 31.6627C54.0435 30.2499 55.2146 25.8372 52.4455 23.0681C49.6973 20.3186 45.3042 21.4358 43.865 24.6905C43.3252 25.9104 42.2069 27.6255 41.0283 29.2328V1.05469C41.0283 0.472184 40.556 0 39.9736 0H9.49316C9.20555 0 8.93523 0.121289 8.74739 0.308918L0.309895 8.74642C0.119102 8.93679 0.000976562 9.20595 0.000976562 9.49219V52.9453C0.000976562 53.5278 0.47316 54 1.05566 54ZM42.8285 41.5843C44.0649 42.8206 44.0651 44.8225 42.8285 46.0592L42.083 46.8047L28.6592 33.3809L29.4049 32.6351C30.6412 31.3982 32.6425 31.3975 33.8795 32.6353L42.8285 41.5843ZM40.8003 32.9593C42.6281 30.7549 44.8811 27.6071 45.794 25.5439C46.6138 23.6901 49.2192 22.8242 50.9539 24.5596C52.6893 26.2949 51.8076 28.9227 49.9559 29.7287C47.3316 30.8718 42.7638 34.2428 40.5928 36.3654L39.0989 34.8714C39.5989 34.3598 40.1831 33.7039 40.8003 32.9593ZM8.43848 3.60091V8.4375H3.60189L8.43848 3.60091Z" fill="#1D252C"/>
</svg>
