<svg width="56" height="56" viewBox="0 0 56 56" fill="none" xmlns="http://www.w3.org/2000/svg">
<circle cx="28" cy="28" r="28" fill="currentColor"/>
<path d="M22.996 19.2519H34.1857M22.996 19.2519V16.7435C22.996 16.0508 23.5527 15.4893 24.2393 15.4893H32.9424C33.629 15.4893 34.1857 16.0508 34.1857 16.7435V19.2519M22.996 19.2519H15.5363C14.8496 19.2519 14.293 19.8134 14.293 20.5061V26.8699M34.1857 19.2519H41.6454C42.3321 19.2519 42.8887 19.8134 42.8887 20.5061V26.777M26.7259 28.0312V29.9125C26.7259 30.2588 27.0042 30.5396 27.3475 30.5396H29.8341C30.1775 30.5396 30.4558 30.2588 30.4558 29.9125V28.0312M26.7259 28.0312V27.4041C26.7259 27.0577 27.0042 26.777 27.3475 26.777H29.8341C30.1775 26.777 30.4558 27.0577 30.4558 27.4041V28.0312M26.7259 28.0312H15.4441C14.8084 28.0312 14.293 27.5113 14.293 26.8699M30.4558 28.0312H41.6454C42.3321 28.0312 42.8887 27.4697 42.8887 26.777M42.8887 26.777V38.0648C42.8887 38.7575 42.3321 39.319 41.6454 39.319H15.5363C14.8496 39.319 14.293 38.7575 14.293 38.0648V26.8699" stroke="currentColor" fill="currentColor" stroke-width="1.5"/>
</svg>
