<svg width="48" height="48" viewBox="0 0 48 48" fill="none" xmlns="http://www.w3.org/2000/svg">
<path d="M17.25 3C15.1855 3 13.5 4.68547 13.5 6.75V18H5.88721C4.29774 18 3 19.3098 3 20.9019V33.0981C3 34.6902 4.29774 36 5.88721 36H13.5V41.25C13.5 43.3145 15.1855 45 17.25 45H41.25C43.3145 45 45 43.3145 45 41.25V15C45 14.317 44.7221 13.6727 44.2559 13.1953L35.0361 3.75586C34.5538 3.26199 33.8944 3 33.2197 3H17.25ZM17.25 4.5H33V12C33 13.649 34.351 15 36 15H43.5V41.25C43.5 42.5095 42.5095 43.5 41.25 43.5H17.25C15.9905 43.5 15 42.5095 15 41.25V36H30.1128C31.7023 36 33 34.6902 33 33.0981V20.9019C33 19.3098 31.7023 18 30.1128 18H15V6.75C15 5.49053 15.9905 4.5 17.25 4.5ZM34.5 5.354L42.457 13.5H36C35.156 13.5 34.5 12.844 34.5 12V5.354ZM5.88721 19.5H30.1128C30.8917 19.5 31.5 20.1093 31.5 20.9019V33.0981C31.5 33.8907 30.8917 34.5 30.1128 34.5H5.88721C5.10832 34.5 4.5 33.8907 4.5 33.0981V20.9019C4.5 20.1093 5.10832 19.5 5.88721 19.5Z" fill="currentColor"/>
<path d="M8.25 22.5C7.8358 22.5 7.50005 22.8358 7.5 23.25V30.75C7.5 31.1642 7.83579 31.5 8.25 31.5C8.66421 31.5 9 31.1642 9 30.75V28.5H10.5C12.149 28.5 13.5 27.149 13.5 25.5C13.5 23.851 12.149 22.5 10.5 22.5H8.25ZM9 24H10.5C11.344 24 12 24.656 12 25.5C12 26.344 11.344 27 10.5 27H9V24Z" fill="currentColor"/>
<path d="M15.75 22.5C15.5511 22.5 15.3603 22.579 15.2197 22.7197C15.079 22.8603 15 23.0511 15 23.25V30.75C15 30.9489 15.079 31.1397 15.2197 31.2803C15.3603 31.421 15.5511 31.5 15.75 31.5H16.3931C18.9213 31.5 21 29.4915 21 27C21 24.5085 18.9213 22.5 16.3931 22.5H15.75ZM16.5 24.0205C18.1904 24.0772 19.5 25.3729 19.5 27C19.5 28.6271 18.1904 29.9228 16.5 29.9795V24.0205Z" fill="currentColor"/>
<path d="M23.25 22.5C22.8358 22.5 22.5 22.8358 22.5 23.25V30.75C22.5 31.1642 22.8358 31.5 23.25 31.5C23.6642 31.5 24 31.1642 24 30.75V27.6519H27.75C28.1642 27.6519 28.5 27.3161 28.5 26.9019C28.5 26.4876 28.1642 26.1519 27.75 26.1519H24V24H27.75C28.1642 24 28.5 23.6642 28.5 23.25C28.5 22.8358 28.1642 22.5 27.75 22.5H23.25Z" fill="currentColor"/>
</svg>
