<svg width="20" height="20" viewBox="0 0 20 20" fill="none" xmlns="http://www.w3.org/2000/svg">
<path d="M19.5514 15.8055L16.4628 12.7165C15.8477 12.1039 14.8288 12.1226 14.1922 12.7593L12.6362 14.3152C12.538 14.2608 12.4362 14.2043 12.3292 14.1442C11.3466 13.5998 10.0017 12.8536 8.58632 11.4372C7.16701 10.018 6.4198 8.67086 5.87387 7.68761C5.81592 7.58336 5.76084 7.48306 5.70644 7.38769L6.75081 6.34471L7.26415 5.83067C7.90189 5.19294 7.91956 4.17434 7.30552 3.56L4.21685 0.470639C3.6032 -0.143008 2.58391 -0.12435 1.94617 0.513385L1.07565 1.38884L1.09964 1.41253C0.807826 1.78491 0.56369 2.21454 0.382439 2.67773C0.215008 3.11862 0.110759 3.53947 0.0630774 3.96091C-0.344639 7.34209 1.20034 10.432 5.3934 14.6255C11.1894 20.4211 15.8604 19.9834 16.0618 19.9618C16.501 19.9095 16.9214 19.8046 17.349 19.6385C17.8082 19.4591 18.2375 19.2156 18.6095 18.9245L18.6286 18.9411L19.5104 18.0776C20.1468 17.4399 20.1652 16.4213 19.5514 15.8055ZM18.8243 17.3909L18.4357 17.7788L18.2809 17.9276C18.0371 18.1632 17.6152 18.4943 16.9991 18.7352C16.6493 18.8699 16.3045 18.9564 15.9536 18.9981C15.9095 19.0024 11.5161 19.3772 6.07872 13.9402C1.45543 9.31709 0.714535 6.65311 1.02511 4.07295C1.06401 3.73098 1.14979 3.38684 1.28692 3.02721C1.52997 2.40754 1.86068 1.986 2.09455 1.74186L2.63189 1.1992C2.89083 0.939561 3.2947 0.919719 3.53143 1.15645L6.62 4.24502C6.85634 4.48205 6.83768 4.88592 6.57834 5.14634L4.49247 7.23014L4.68498 7.55414C4.79199 7.7347 4.90513 7.93707 5.02596 8.15692C5.59972 9.19171 6.38475 10.6082 7.9008 12.1228C9.41291 13.6357 10.8273 14.4201 11.8589 14.9923C12.0818 15.1156 12.2854 15.2291 12.468 15.3379L12.7927 15.5304L14.8772 13.4452C15.1372 13.1862 15.5425 13.1671 15.7792 13.4031L18.8664 16.491C19.1024 16.7276 19.0837 17.1315 18.8243 17.3909Z" fill="#1D252C"/>
</svg>
