<svg width="4" height="8" viewBox="0 0 4 8" fill="none" xmlns="http://www.w3.org/2000/svg">
<path d="M1.53887 5.77898C1.54589 5.3549 1.60211 5.01348 1.70751 4.75472C1.81291 4.49596 2.03953 4.19227 2.38735 3.84367C2.73518 3.49146 2.95828 3.24349 3.05665 3.09973C3.15854 2.95238 3.23584 2.79245 3.28854 2.61995C3.34475 2.44385 3.37286 2.24438 3.37286 2.02156C3.37286 1.57233 3.25516 1.22013 3.01976 0.96496C2.78788 0.706199 2.46289 0.576819 2.0448 0.576819C1.62319 0.576819 1.28239 0.700809 1.0224 0.948787C0.76592 1.19317 0.634168 1.52561 0.627141 1.94609H0C0.00702679 1.35669 0.20202 0.885894 0.58498 0.533693C0.96794 0.177898 1.45455 0 2.0448 0C2.6491 0 3.12516 0.181491 3.47299 0.544474C3.82433 0.903863 4 1.39263 4 2.01078C4 2.39892 3.91392 2.7637 3.74177 3.10512C3.56961 3.44295 3.24286 3.83827 2.76153 4.2911C2.36451 4.63252 2.16601 5.12848 2.16601 5.77898H1.53887ZM1.45455 7.57951C1.45455 7.45732 1.49144 7.3549 1.56522 7.27224C1.64251 7.18598 1.74967 7.14286 1.88669 7.14286C2.0202 7.14286 2.1256 7.18598 2.2029 7.27224C2.28371 7.3549 2.32411 7.45732 2.32411 7.57951C2.32411 7.69811 2.28371 7.79874 2.2029 7.8814C2.1256 7.96047 2.0202 8 1.88669 8C1.74967 8 1.64251 7.96047 1.56522 7.8814C1.49144 7.79874 1.45455 7.69811 1.45455 7.57951Z" fill="currentColor"/>
</svg>
