<svg width="20" height="20" viewBox="0 0 20 20" fill="none" xmlns="http://www.w3.org/2000/svg">
<path fill-rule="evenodd" clip-rule="evenodd" d="M13.2371 14.0138L19.0543 19.8311C19.105 19.8838 19.1656 19.9259 19.2326 19.9549C19.2997 19.9839 19.3719 19.9992 19.445 20C19.5181 20.0007 19.5906 19.9869 19.6583 19.9592C19.7259 19.9316 19.7874 19.8908 19.8391 19.8391C19.8908 19.7874 19.9316 19.7259 19.9592 19.6583C19.9869 19.5906 20.0007 19.5181 20 19.445C19.9992 19.3719 19.9839 19.2997 19.9549 19.2326C19.9259 19.1656 19.8838 19.1049 19.8311 19.0543L19.8266 19.0499L14.0138 13.2371L14.1899 13.0206C15.3084 11.6451 15.9808 9.89464 15.9808 7.99041C15.9808 3.5876 12.3932 0 7.99041 0C3.5876 0 0 3.5876 0 7.99041C0 12.3932 3.5876 15.9808 7.99041 15.9808C9.89465 15.9808 11.6451 15.3084 13.0206 14.1899L13.2371 14.0138ZM12.9407 12.7863L12.9193 12.802C12.8745 12.8349 12.8349 12.8745 12.802 12.9193L12.7863 12.9407L12.7671 12.9591C11.53 14.1484 9.84953 14.8822 7.99041 14.8822C4.17401 14.8822 1.09862 11.8068 1.09862 7.99041C1.09862 4.17401 4.17401 1.09862 7.99041 1.09862C11.8068 1.09862 14.8822 4.17401 14.8822 7.99041C14.8822 9.84953 14.1484 11.53 12.9591 12.7671L12.9407 12.7863Z" fill="#1D252C"/>
</svg>
