<svg width="49" height="54" viewBox="0 0 49 54" fill="none" xmlns="http://www.w3.org/2000/svg">
<path d="M46.4532 35.0988H32.4005V29.6988H28.8004V24.0809C28.8004 22.1567 29.6302 20.3494 31.0198 19.2442C33.6137 17.1841 35.1005 14.1051 35.1005 10.7985C35.1005 7.72406 33.7838 4.78642 31.4887 2.73889C29.1955 0.692259 26.1112 -0.282455 23.034 0.0712504C18.2163 0.619358 14.249 4.50111 13.601 9.29998C13.088 13.1016 14.5523 16.7998 17.5187 19.1938C18.9471 20.3467 19.8003 22.2359 19.8003 24.2456V29.6988H16.2002V35.0988H2.14743C0.963913 35.0988 0 36.0619 0 37.2463V47.3525C0 48.536 0.963014 49.4999 2.14743 49.4999H2.78194C3.21214 52.0497 5.42977 54 8.10101 54H40.5015C43.1718 54 45.3894 52.0497 45.8205 49.4999H46.455C47.6386 49.4999 48.6025 48.5369 48.6025 47.3525V37.2463C48.6007 36.0628 47.6377 35.0988 46.4532 35.0988ZM18.6492 17.7934C16.1768 15.7981 14.9564 12.7128 15.3857 9.54118C15.9257 5.54693 19.2288 2.31768 23.2392 1.85958C25.8484 1.56617 28.3522 2.35188 30.2908 4.08261C32.2042 5.78903 33.3014 8.23706 33.3014 10.7994C33.3014 13.5543 32.062 16.1185 29.9011 17.8357C28.0579 19.3009 27.0013 21.577 27.0013 24.0809V29.6988H21.6012V24.2465C21.6003 21.6599 20.5248 19.3072 18.6492 17.7934ZM18.0002 31.4988H19.8003H28.8004H30.6004V35.0988H18.0002V31.4988ZM40.5006 52.1991H8.10011C6.42609 52.1991 5.01397 51.0507 4.61436 49.499H43.9863C43.5867 51.0507 42.1755 52.1991 40.5006 52.1991ZM46.8007 47.3525C46.8007 47.5442 46.6449 47.6999 46.4532 47.6999H45.9006H2.70004H2.14743C1.95573 47.6999 1.80002 47.5442 1.80002 47.3525V37.2463C1.80002 37.0546 1.95573 36.8989 2.14743 36.8989H16.2002H32.4005H46.4532C46.6449 36.8989 46.8007 37.0546 46.8007 37.2463V47.3525Z" fill="black"/>
</svg>
