<svg width="14" height="14" viewBox="0 0 14 14" fill="none" xmlns="http://www.w3.org/2000/svg">
<path d="M13.6961 6.37227C13.9716 6.10371 14.0689 5.70956 13.95 5.34316C13.8309 4.97676 13.5206 4.7152 13.1393 4.6597L9.74948 4.16715C9.60511 4.14612 9.48036 4.05557 9.41588 3.92465L7.90038 0.853008C7.73022 0.507914 7.38484 0.293457 6.99994 0.293457C6.61532 0.293457 6.26995 0.507914 6.09978 0.853008L4.584 3.92465C4.51952 4.05557 4.3945 4.14612 4.25012 4.16715L0.860294 4.65998C0.479317 4.7152 0.168985 4.97676 0.0498417 5.34316C-0.0690209 5.70956 0.0282558 6.10371 0.303826 6.37227L2.75649 8.76298C2.86105 8.86502 2.90899 9.01192 2.88432 9.15545L2.30543 12.5315C2.24039 12.9108 2.39317 13.2868 2.70463 13.5133C3.0158 13.7401 3.42089 13.7695 3.76206 13.5898L6.79361 11.9958C6.92285 11.928 7.07703 11.928 7.20627 11.9958L10.2381 13.5898C10.3861 13.6677 10.5465 13.7062 10.706 13.7062C10.9132 13.7062 11.1195 13.6414 11.2955 13.5133C11.607 13.2868 11.7598 12.9108 11.6947 12.5315L11.1156 9.15573C11.0909 9.01192 11.1388 8.8653 11.2434 8.76326L13.6961 6.37227ZM10.5633 9.25048L11.1422 12.6263C11.1713 12.7962 11.1055 12.9585 10.9659 13.06C10.826 13.1612 10.6519 13.1735 10.4991 13.0939L7.46726 11.4996C7.32121 11.4231 7.16029 11.3844 6.99994 11.3844C6.83959 11.3844 6.67896 11.4231 6.53262 11.4999L3.50134 13.0939C3.348 13.1735 3.17391 13.1612 3.0343 13.06C2.8947 12.9585 2.8291 12.7965 2.85797 12.6263L3.43687 9.25048C3.49265 8.92473 3.38472 8.59225 3.14812 8.36182L0.695176 5.97083C0.571548 5.85028 0.529497 5.6804 0.583041 5.5164C0.636305 5.35213 0.770026 5.23943 0.940751 5.21448L4.3303 4.72193C4.65745 4.67455 4.94031 4.46935 5.08636 4.17275L6.60214 1.10111C6.6784 0.94636 6.82725 0.85413 6.99966 0.85413C7.17235 0.85413 7.32093 0.94636 7.39746 1.10111L8.91324 4.17275C9.05929 4.46935 9.34187 4.67455 9.66902 4.72193L13.0589 5.21448C13.2296 5.23943 13.3633 5.35213 13.4166 5.5164C13.4698 5.6804 13.4281 5.85028 13.3044 5.97083L10.8518 8.36154C10.6152 8.59225 10.5072 8.92445 10.5633 9.25048Z" fill="currentColor"/>
</svg>
