<svg width="54" height="37" viewBox="0 0 54 37" fill="none" xmlns="http://www.w3.org/2000/svg">
<path fill-rule="evenodd" clip-rule="evenodd" d="M10.5815 34.4665H43.4643C43.2612 31.187 42.0817 28.0413 40.075 25.4354C38.0259 22.7744 35.2123 20.8035 32.0114 19.7867C28.8104 18.77 25.3751 18.7562 22.1661 19.7471C18.9571 20.7379 16.1276 22.6862 14.0572 25.3306C11.9895 27.9492 10.7768 31.139 10.5815 34.4665ZM44.5248 36.5253L9.52072 36.5253C9.2477 36.5253 8.98586 36.4168 8.79281 36.2238C8.59984 36.0308 8.49139 35.7691 8.49131 35.4962C8.478 31.3466 9.87155 27.3149 12.4445 24.0592C14.8236 21.0254 18.0898 18.809 21.7879 17.719C25.4862 16.6289 29.4325 16.7195 33.0768 17.9781C36.7212 19.2367 39.8823 21.6006 42.1198 24.7406C44.3572 27.8806 45.5596 31.6403 45.5593 35.4959C45.5593 35.6315 45.5325 35.7658 45.4805 35.891C45.4284 36.0162 45.3521 36.13 45.256 36.2256C45.1599 36.3213 45.0458 36.397 44.9203 36.4484C44.7949 36.4998 44.6603 36.5259 44.5248 36.5253Z" fill="#1D252C"/>
<path fill-rule="evenodd" clip-rule="evenodd" d="M27.022 18.3995C25.2025 18.3995 23.4238 17.8599 21.9109 16.8491C20.398 15.8382 19.2189 14.4014 18.5226 12.7203C17.8263 11.0393 17.6441 9.18955 17.999 7.40497C18.354 5.62039 19.2302 3.98116 20.5168 2.69455C21.8034 1.40794 23.4427 0.531749 25.2272 0.176775C27.0118 -0.1782 28.8616 0.00398634 30.5426 0.700294C32.2236 1.3966 33.6604 2.57575 34.6713 4.08865C35.6822 5.60154 36.2218 7.38021 36.2218 9.19975C36.2218 11.6397 35.2525 13.9797 33.5272 15.705C31.8019 17.4302 29.4619 18.3995 27.022 18.3995ZM27.022 2.06852C25.6097 2.06852 24.2291 2.48733 23.0547 3.27198C21.8804 4.05664 20.9651 5.1719 20.4247 6.47673C19.8842 7.78157 19.7428 9.21737 20.0183 10.6026C20.2938 11.9878 20.9739 13.2602 21.9726 14.2588C22.9713 15.2575 24.2437 15.9376 25.6289 16.2132C27.0141 16.4887 28.4499 16.3473 29.7547 15.8068C31.0596 15.2663 32.1748 14.3511 32.9595 13.1767C33.7441 12.0024 34.1629 10.6218 34.1629 9.20945C34.1629 7.31555 33.4106 5.49923 32.0714 4.16005C30.7322 2.82087 28.9159 2.06852 27.022 2.06852Z" fill="#1D252C"/>
<path fill-rule="evenodd" clip-rule="evenodd" d="M2.55257 17.0929C0.898182 19.2824 0.0021147 21.9513 0 24.6955C0 24.9686 0.108456 25.2305 0.301507 25.4236C0.494558 25.6166 0.756392 25.7251 1.02941 25.7251L13.2492 25.7251C13.404 25.7248 13.5567 25.6897 13.696 25.6223C13.8354 25.5548 13.9581 25.4563 14.0544 25.335C16.259 22.5355 19.3066 20.5203 22.7459 19.5878C22.902 19.5467 23.0461 19.4694 23.1668 19.3622C23.2876 19.2549 23.3815 19.1206 23.4408 18.9702C23.5001 18.8199 23.5232 18.6577 23.5081 18.4967C23.4932 18.3362 23.4407 18.1815 23.3549 18.045C21.9075 15.7135 19.7399 13.9171 17.1802 12.9276C14.6206 11.9381 11.8082 11.8093 9.16892 12.5609C6.52959 13.3125 4.20695 14.9034 2.55257 17.0929ZM12.7582 23.6663C14.8975 21.0979 17.6859 19.1513 20.8316 18.0278C19.5447 16.4428 17.8246 15.2628 15.8781 14.6336C13.844 13.976 11.6582 13.9508 9.60941 14.5613C7.56061 15.1718 5.74513 16.3893 4.40266 18.053C3.10513 19.661 2.30843 21.6129 2.10869 23.6663H12.7582Z" fill="#1D252C"/>
<path fill-rule="evenodd" clip-rule="evenodd" d="M12.6258 13.7146C11.352 13.7149 10.1068 13.3374 9.04752 12.6299C7.98827 11.9224 7.16264 10.9167 6.67505 9.73988C6.18746 8.56309 6.05981 7.26814 6.30824 6.0188C6.55668 4.76946 7.17004 3.62186 8.07076 2.72115C8.97147 1.82043 10.1191 1.20707 11.3684 0.958634C12.6177 0.710197 13.9127 0.837847 15.0895 1.32544C16.2663 1.81303 17.272 2.63866 17.9795 3.69791C18.687 4.75715 19.0645 6.00243 19.0642 7.27623C19.0624 8.98317 18.3834 10.6198 17.1764 11.8268C15.9694 13.0338 14.3328 13.7127 12.6258 13.7146ZM12.6257 2.89517C11.7592 2.89491 10.912 3.15163 10.1914 3.63286C9.47079 4.11409 8.90905 4.79822 8.57726 5.59872C8.24547 6.39923 8.15852 7.28014 8.32741 8.13006C8.49631 8.97999 8.91345 9.76073 9.5261 10.3736C10.1387 10.9864 10.9194 11.4038 11.7692 11.5729C12.6191 11.7421 13.5 11.6554 14.3006 11.3238C15.1012 10.9923 15.7855 10.4308 16.267 9.71028C16.7484 8.98985 17.0054 8.14284 17.0054 7.27636C17.0044 6.11495 16.5426 5.00139 15.7215 4.18002C14.9004 3.3587 13.7871 2.89662 12.6257 2.89517Z" fill="#1D252C"/>
<path fill-rule="evenodd" clip-rule="evenodd" d="M52.9733 25.5438L40.6486 25.5438C40.495 25.5439 40.3433 25.5095 40.2046 25.4433C40.066 25.3771 39.9439 25.2807 39.8474 25.1612C37.6256 22.4136 34.5839 20.4479 31.1662 19.5508C31.0115 19.5105 30.8682 19.4346 30.7478 19.3292C30.6274 19.2238 30.5332 19.0917 30.4727 18.9434C30.4123 18.7952 30.3872 18.6349 30.3996 18.4753C30.4119 18.3157 30.4613 18.1613 30.5437 18.0241C31.9633 15.655 34.1205 13.8166 36.6848 12.7908C39.2492 11.765 42.0792 11.6084 44.7411 12.3449C47.403 13.0814 49.75 14.6705 51.4223 16.8686C53.0947 19.0667 54.0001 21.7525 53.9999 24.5144C53.9999 24.7868 53.8919 25.0481 53.6996 25.2411C53.5073 25.434 53.2457 25.5429 52.9733 25.5438ZM33.0728 17.9776C36.1994 19.0667 38.982 20.9668 41.135 23.485H51.8938C51.6914 21.4192 50.8848 19.4569 49.5725 17.8445C48.215 16.1766 46.381 14.9626 44.3154 14.3644C42.2497 13.7663 40.0508 13.8125 38.0121 14.497C36.0602 15.1524 34.3441 16.363 33.0728 17.9776Z" fill="#1D252C"/>
<path d="M41.3761 13.4356H41.3762C43.0575 13.4342 44.6695 12.7656 45.8584 11.5767C47.0473 10.3878 47.7159 8.77577 47.7174 7.09443V7.09434C47.7174 5.84015 47.3455 4.61412 46.6487 3.5713C45.9519 2.52847 44.9615 1.71569 43.8028 1.23573C42.6441 0.755775 41.369 0.630196 40.1389 0.874877C38.9089 1.11956 37.7789 1.72351 36.8921 2.61036C36.0052 3.4972 35.4013 4.62712 35.1566 5.85721C34.9119 7.0873 35.0375 8.36233 35.5175 9.52105C35.9974 10.6798 36.8102 11.6702 37.853 12.3669C38.8959 13.0637 40.1219 13.4356 41.3761 13.4356ZM38.8874 3.36973C39.624 2.87753 40.49 2.61481 41.376 2.61479L41.3761 2.61479C42.5638 2.61589 43.7025 3.0882 44.5424 3.92804C45.3822 4.7679 45.8545 5.90669 45.8556 7.09443C45.8556 7.98037 45.5929 8.84641 45.1007 9.58304C44.6085 10.3197 43.9089 10.8938 43.0903 11.2329C42.2718 11.5719 41.3711 11.6607 40.5022 11.4878C39.6332 11.315 38.835 10.8883 38.2086 10.2619C37.5821 9.63538 37.1554 8.8372 36.9826 7.96825C36.8098 7.09931 36.8985 6.19862 37.2375 5.38009C37.5766 4.56156 38.1507 3.86195 38.8874 3.36973Z" fill="#1D252C" stroke="#1D252C" stroke-width="0.2"/>
</svg>
