<svg width="54" height="54" viewBox="0 0 54 54" fill="none" xmlns="http://www.w3.org/2000/svg">
<path d="M53.1 26.1H53.0775C52.6104 12.4236 41.5764 1.3896 27.9 0.9225V0.9C27.9 0.4032 27.4977 0 27 0C26.5023 0 26.1 0.4032 26.1 0.9V0.9225C12.4236 1.3896 1.3896 12.4236 0.9225 26.1H0.9C0.4023 26.1 0 26.5032 0 27C0 27.4968 0.4023 27.9 0.9 27.9H0.9225C1.3896 41.5764 12.4236 52.6104 26.1 53.0775V53.1C26.1 53.5968 26.5023 54 27 54C27.4977 54 27.9 53.5968 27.9 53.1V53.0775C41.5764 52.6104 52.6104 41.5764 53.0775 27.9H53.1C53.5977 27.9 54 27.4968 54 27C54 26.5032 53.5977 26.1 53.1 26.1ZM51.2775 26.1H46.7775C46.3185 15.8967 38.1033 7.6815 27.9 7.2225V2.7225C40.5837 3.1878 50.8122 13.4163 51.2775 26.1ZM26.1 27.9V32.319C23.8437 31.9383 22.0626 30.1563 21.681 27.9H26.1ZM21.681 26.1C22.0617 23.8437 23.8437 22.0626 26.1 21.681V26.1H21.681ZM27.9 27.9H32.319C31.9383 30.1563 30.1563 31.9374 27.9 32.319V27.9ZM27.9 26.1V21.681C30.1563 22.0617 31.9374 23.8437 32.319 26.1H27.9ZM26.1 19.8621C22.8492 20.2698 20.2707 22.8492 19.8621 26.1H15.345C15.7851 20.367 20.367 15.7851 26.1 15.3459V19.8621ZM19.8621 27.9C20.2698 31.1508 22.8492 33.7293 26.1 34.1379V38.655C20.367 38.2149 15.7851 33.633 15.3459 27.9H19.8621ZM27.9 34.1379C31.1508 33.7302 33.7293 31.1508 34.1379 27.9H38.655C38.2149 33.633 33.633 38.2149 27.9 38.6541V34.1379ZM34.1379 26.1C33.7302 22.8492 31.1508 20.2707 27.9 19.8621V15.345C33.633 15.7851 38.2149 20.367 38.6541 26.1H34.1379ZM26.1 13.5459C19.3743 13.9923 13.9923 19.3752 13.5459 26.1H9.0459C9.504 16.8939 16.8939 9.504 26.1 9.0459V13.5459ZM13.5459 27.9C13.9923 34.6248 19.3743 40.0077 26.1 40.4541V44.9541C16.8939 44.496 9.504 37.1061 9.0459 27.9H13.5459ZM27.9 40.4541C34.6257 40.0077 40.0077 34.6248 40.4541 27.9H44.9541C44.496 37.1061 37.1061 44.496 27.9 44.9541V40.4541ZM40.4541 26.1C40.0077 19.3752 34.6257 13.9923 27.9 13.5459V9.0459C37.1061 9.504 44.496 16.8939 44.9541 26.1H40.4541ZM26.1 2.7225V7.2225C15.8967 7.6815 7.6815 15.8967 7.2225 26.1H2.7225C3.1878 13.4163 13.4163 3.1878 26.1 2.7225ZM2.7225 27.9H7.2225C7.6815 38.1033 15.8967 46.3185 26.1 46.7775V51.2775C13.4163 50.8122 3.1878 40.5837 2.7225 27.9ZM27.9 51.2775V46.7775C38.1033 46.3185 46.3185 38.1033 46.7775 27.9H51.2775C50.8122 40.5837 40.5837 50.8122 27.9 51.2775Z" fill="#1D252C"/>
</svg>
