<svg width="54" height="46" viewBox="0 0 54 46" fill="none" xmlns="http://www.w3.org/2000/svg">
<path d="M24.3284 22.9305C24.1157 23.0553 23.8722 23.0825 23.6507 23.0254C23.4293 22.9678 23.2297 22.8254 23.1045 22.6132V22.6127C22.9797 22.4001 22.9524 22.1562 23.01 21.9351C23.0671 21.7141 23.2091 21.5141 23.4214 21.3893L39.2739 11.9164L40.6779 7.53894C40.7127 7.4304 40.7658 7.33284 40.8331 7.24934C40.9034 7.16233 40.9886 7.09026 41.0831 7.03533L49.1665 2.36654H49.1669C49.3814 2.24261 49.6262 2.21712 49.8472 2.27645C50.0691 2.33578 50.2682 2.47992 50.3921 2.69437V2.69481C50.4545 2.80292 50.4919 2.91718 50.5059 3.03276C50.5205 3.15141 50.5112 3.27094 50.4796 3.38432L49.7611 7.03137L53.4077 8.34447C53.6402 8.42797 53.8177 8.59847 53.9148 8.80546C54.0124 9.01244 54.0308 9.25722 53.9473 9.48969C53.9104 9.59209 53.8572 9.68305 53.7918 9.76128C53.7483 9.81313 53.699 9.86015 53.6454 9.90015L53.6503 9.90762L53.5527 9.96387L45.4685 14.6313C45.3524 14.6981 45.2272 14.7364 45.1015 14.7482C44.971 14.7601 44.8405 14.7434 44.7196 14.7003L40.1739 13.4611L24.3293 22.93L24.3284 22.9305ZM28.5296 0.777024C30.5766 1.32591 32.4829 2.13802 34.2214 3.16767C36.0179 4.23159 37.636 5.52755 39.0454 7.005C39.1095 7.0718 39.1064 7.17815 39.0392 7.24187C39.0348 7.24627 39.03 7.25066 39.0251 7.25418L37.763 8.20868C37.6927 8.26185 37.593 8.25086 37.5358 8.18495C36.2557 6.86745 34.7923 5.71168 33.172 4.76158C31.6018 3.84048 29.8818 3.11274 28.0361 2.61791C25.3207 1.89061 22.5868 1.7368 19.9633 2.08221C17.2378 2.44125 14.6313 3.33906 12.2877 4.69214C9.94365 6.04567 7.86282 7.85403 6.18937 10.0346C4.57832 12.1339 3.34477 14.5782 2.61747 17.2936C1.89017 20.009 1.73636 22.7428 2.08177 25.3659C2.44081 28.0906 3.33862 30.6979 4.69214 33.0415L4.69654 33.0503C6.04919 35.3904 7.85579 37.4686 10.0342 39.1403C12.133 40.7513 14.5773 41.9853 17.2922 42.7126C20.0072 43.4399 22.7411 43.5937 25.3642 43.2483C28.0888 42.8893 30.6957 41.9915 33.0397 40.6379C35.3838 39.2849 37.4651 37.4761 39.1385 35.2959C40.7496 33.1966 41.9836 30.7519 42.7104 28.0374C43.1951 26.229 43.4254 24.4132 43.4228 22.6281C43.4206 20.7864 43.1705 18.974 42.6964 17.2342C42.6735 17.1507 42.7183 17.065 42.797 17.0338L44.2428 16.3931C44.3276 16.3558 44.4269 16.3944 44.4639 16.4788C44.4683 16.4885 44.4718 16.4981 44.4735 16.5078C45.0202 18.4366 45.3142 20.4515 45.3278 22.5046C45.341 24.4941 45.0905 26.5173 44.5513 28.5296C43.7568 31.4937 42.4098 34.1625 40.6507 36.4548C38.8234 38.8362 36.5514 40.8106 33.9934 42.2881L33.9841 42.2934C31.4278 43.7673 28.585 44.746 25.6129 45.1371C22.7477 45.5146 19.7629 45.3472 16.7996 44.5531C13.8359 43.759 11.1675 42.412 8.87489 40.6529C6.49436 38.8256 4.51944 36.5536 3.04198 33.9951C1.56497 31.4357 0.584542 28.5898 0.192547 25.6134C-0.184507 22.7481 -0.0170744 19.7633 0.777024 16.8001C1.57112 13.8359 2.9185 11.1671 4.6772 8.87489C6.50446 6.49348 8.77645 4.51856 11.3345 3.04154C13.8935 1.56453 16.7394 0.584542 19.7154 0.192546C22.5807 -0.184507 25.5659 -0.0170744 28.5296 0.777024ZM24.5341 15.9853C24.8228 16.0662 25.1032 16.1642 25.3743 16.2789C25.6529 16.3966 25.921 16.5311 26.1767 16.681C26.2563 16.7275 26.2831 16.8299 26.2365 16.9099C26.2251 16.9297 26.2101 16.946 26.193 16.9587V16.9591L24.8012 18.0116C24.7494 18.0507 24.6822 18.0551 24.6272 18.0288C24.5292 17.987 24.4299 17.9488 24.331 17.9141C24.2317 17.8789 24.1284 17.8468 24.0216 17.8165L23.9729 17.8055L23.9667 17.8038C23.308 17.6276 22.6448 17.5902 22.0094 17.6737C21.3489 17.7607 20.7169 17.9787 20.1487 18.3065C19.5805 18.6348 19.0756 19.0734 18.6699 19.602C18.2793 20.1109 17.98 20.7037 17.8033 21.3621C17.6271 22.0208 17.5898 22.6839 17.6733 23.3198C17.7603 23.9803 17.9778 24.6123 18.3061 25.1809C18.6343 25.7491 19.0729 26.2536 19.6012 26.6593C20.1105 27.0504 20.7033 27.3492 21.3612 27.5259C21.3695 27.5281 21.3783 27.5311 21.3858 27.5347C22.0357 27.7052 22.6901 27.7399 23.3176 27.6568C23.9781 27.5694 24.6105 27.3514 25.1792 27.0231C25.7487 26.6944 26.2536 26.2554 26.6593 25.7281L26.6588 25.7276C27.0499 25.2192 27.3488 24.6272 27.5259 23.9702L27.5549 23.8547C27.5685 23.8015 27.6063 23.7602 27.6542 23.7408L29.3492 22.9898C29.434 22.9524 29.5329 22.9911 29.5707 23.0755C29.5821 23.1023 29.5865 23.1304 29.5839 23.1577C29.5685 23.3739 29.5417 23.5919 29.5052 23.8103C29.4683 24.0269 29.4217 24.2431 29.3641 24.458L29.3637 24.4589H29.3641L29.3628 24.4633L29.3606 24.4708C29.1171 25.3747 28.7058 26.189 28.1688 26.8887C27.6098 27.6177 26.9146 28.222 26.1324 28.6742L26.1231 28.6794C25.3427 29.1281 24.4752 29.4261 23.5681 29.5456C22.6984 29.6599 21.7927 29.6102 20.894 29.3729C20.8852 29.372 20.8765 29.3703 20.8681 29.3681H20.8677C19.9606 29.1251 19.1432 28.7124 18.4414 28.1736C17.7124 27.6142 17.1072 26.9185 16.655 26.1341C16.2028 25.3506 15.9022 24.4787 15.7827 23.5681C15.6671 22.6901 15.7181 21.776 15.9611 20.869C16.2042 19.9619 16.6168 19.1446 17.1556 18.4427C17.715 17.7132 18.4111 17.1086 19.1947 16.6564L19.2039 16.6511C19.9848 16.202 20.8532 15.9036 21.7611 15.784C22.6387 15.6685 23.5527 15.7194 24.4593 15.9625L24.4668 15.9646C24.4782 15.9677 24.4888 15.9708 24.4976 15.9739C24.5108 15.977 24.5231 15.9809 24.5341 15.9853ZM26.5191 8.27811C27.7109 8.5976 28.8306 9.05287 29.8651 9.62329C30.9317 10.2113 31.9073 10.9214 32.78 11.73C32.8477 11.7933 32.8517 11.8992 32.7888 11.9669C32.7818 11.9739 32.7752 11.9805 32.7673 11.9862L31.492 12.9509C31.4239 13.0023 31.3294 12.9939 31.2714 12.9346C30.5326 12.2798 29.7126 11.7046 28.8218 11.2255C27.9539 10.7593 27.0192 10.3849 26.0264 10.119C24.3271 9.66372 22.6158 9.56748 20.974 9.78369C19.2694 10.0083 17.6381 10.5699 16.1712 11.4167L16.1624 11.4211C14.6995 12.2671 13.4004 13.3973 12.3545 14.7597C11.3464 16.0732 10.5743 17.6034 10.1194 19.3023C9.66416 21.0017 9.56792 22.7125 9.78369 24.3539C10.0083 26.0594 10.5703 27.6911 11.4167 29.1576C12.2635 30.624 13.3951 31.9266 14.7597 32.9734C16.0736 33.9819 17.6034 34.7541 19.3023 35.2093C21.0013 35.6651 22.7125 35.7613 24.3534 35.5451C26.059 35.3201 27.6907 34.7585 29.1576 33.9116H29.1571C30.624 33.0643 31.9266 31.9327 32.9738 30.5687C33.9815 29.2551 34.7541 27.7254 35.2089 26.0264C35.459 25.0935 35.6009 24.1583 35.6418 23.2341C35.6844 22.2827 35.6202 21.341 35.459 20.4229C35.4453 20.3434 35.4897 20.2674 35.5613 20.2384L37.0322 19.5866C37.1166 19.5493 37.2159 19.588 37.2533 19.6723C37.2603 19.6877 37.2638 19.7031 37.266 19.7185C37.4901 20.825 37.5899 21.9654 37.5534 23.1203C37.5182 24.2466 37.3539 25.3862 37.0502 26.5195C36.5281 28.4676 35.6426 30.2215 34.4864 31.7284C33.2858 33.2929 31.7921 34.591 30.1099 35.5622L30.1103 35.5627C28.4285 36.5334 26.5573 37.1781 24.6013 37.4356C22.7178 37.6835 20.756 37.5736 18.8088 37.052C16.8607 36.5299 15.1068 35.644 13.5995 34.4877C12.0346 33.2867 10.7364 31.7934 9.76567 30.1121L9.7604 30.1024C8.79227 28.4232 8.14979 26.5556 7.89271 24.603C7.64485 22.7195 7.75472 20.7578 8.27679 18.8101C8.79887 16.8625 9.68393 15.1081 10.8406 13.6012C12.0416 12.0359 13.5349 10.7378 15.2167 9.76699L15.2259 9.76172C16.9055 8.79359 18.7728 8.15111 20.7248 7.89446C22.6097 7.64617 24.5718 7.75648 26.5191 8.27811ZM47.8565 7.44007L48.3561 4.90616L42.2776 8.41566L41.1679 11.8764L44.8932 12.892L50.9845 9.37499L48.4322 8.45521C48.2256 8.38138 48.0591 8.23548 47.9562 8.05355C47.8538 7.87381 47.8134 7.65804 47.8565 7.44007Z" fill="#1D252C"/>
</svg>
