<svg width="18" height="18" viewBox="0 0 18 18" fill="none" xmlns="http://www.w3.org/2000/svg">
<path d="M8.53887 10.779C8.54589 10.3549 8.60211 10.0135 8.70751 9.75472C8.81291 9.49596 9.03953 9.19227 9.38735 8.84367C9.73518 8.49146 9.95828 8.24349 10.0567 8.09973C10.1585 7.95238 10.2358 7.79245 10.2885 7.61995C10.3448 7.44385 10.3729 7.24438 10.3729 7.02156C10.3729 6.57233 10.2552 6.22013 10.0198 5.96496C9.78788 5.7062 9.46289 5.57682 9.0448 5.57682C8.62319 5.57682 8.28239 5.70081 8.0224 5.94879C7.76592 6.19317 7.63417 6.52561 7.62714 6.94609H7C7.00703 6.35669 7.20202 5.88589 7.58498 5.53369C7.96794 5.1779 8.45455 5 9.0448 5C9.6491 5 10.1252 5.18149 10.473 5.54447C10.8243 5.90386 11 6.39263 11 7.01078C11 7.39892 10.9139 7.7637 10.7418 8.10512C10.5696 8.44295 10.2429 8.83827 9.76153 9.2911C9.36451 9.63252 9.16601 10.1285 9.16601 10.779H8.53887ZM8.45455 12.5795C8.45455 12.4573 8.49144 12.3549 8.56522 12.2722C8.64251 12.186 8.74967 12.1429 8.88669 12.1429C9.0202 12.1429 9.1256 12.186 9.2029 12.2722C9.28371 12.3549 9.32411 12.4573 9.32411 12.5795C9.32411 12.6981 9.28371 12.7987 9.2029 12.8814C9.1256 12.9605 9.0202 13 8.88669 13C8.74967 13 8.64251 12.9605 8.56522 12.8814C8.49144 12.7987 8.45455 12.6981 8.45455 12.5795Z" fill="currentColor"/>
<circle cx="9" cy="9" r="8.75" stroke="currentColor" stroke-width="0.5"/>
</svg>
