<svg width="54" height="54" viewBox="0 0 54 54" fill="none" xmlns="http://www.w3.org/2000/svg">
<path d="M27 54C12.15 54 0 41.85 0 27C0 12.15 12.15 0 27 0C41.85 0 54 12.15 54 27C54 41.85 41.85 54 27 54ZM27 3C13.8 3 3 13.8 3 27C3 40.2 13.8 51 27 51C40.2 51 51 40.2 51 27C51 13.8 40.2 3 27 3Z" fill="#1D252C"/>
<path d="M27 41.9999C26.1 41.9999 25.5 41.3999 25.5 40.4999V24.8999C25.5 23.9999 26.1 23.3999 27 23.3999C27.9 23.3999 28.5 23.9999 28.5 24.8999V40.4999C28.5 41.3999 27.9 41.9999 27 41.9999Z" fill="#1D252C"/>
<path d="M27 19.6497C26.1 19.6497 25.5 19.0497 25.5 18.1497V13.1997C25.5 12.2997 26.1 11.6997 27 11.6997C27.9 11.6997 28.5 12.2997 28.5 13.1997V18.1497C28.5 18.8997 27.9 19.6497 27 19.6497Z" fill="#1D252C"/>
</svg>
