<svg width="21" height="18" viewBox="0 0 21 18" fill="none" xmlns="http://www.w3.org/2000/svg">
<path d="M20.9565 2.79875C20.1804 3.125 19.3534 3.34125 18.4913 3.44625C19.3782 2.93875 20.0552 2.14125 20.3734 1.18C19.5465 1.6525 18.6334 1.98625 17.6604 2.1725C16.8752 1.37125 15.756 0.875 14.5352 0.875C12.1665 0.875 10.2595 2.7175 10.2595 4.97625C10.2595 5.30125 10.2882 5.61375 10.3587 5.91125C6.8017 5.745 3.65431 4.11125 1.53996 1.6225C1.17083 2.23625 0.954305 2.93875 0.954305 3.695C0.954305 5.115 1.71735 6.37375 2.85474 7.1025C2.16735 7.09 1.493 6.89875 0.921697 6.5975C0.921697 6.61 0.921697 6.62625 0.921697 6.6425C0.921697 8.635 2.40474 10.29 4.34952 10.6712C4.00126 10.7625 3.6217 10.8062 3.22778 10.8062C2.95387 10.8062 2.67735 10.7913 2.41778 10.7362C2.97213 12.36 4.54518 13.5538 6.41561 13.5925C4.95996 14.6838 3.1117 15.3412 1.11083 15.3412C0.759958 15.3412 0.423436 15.3263 0.0869141 15.285C1.98213 16.4563 4.22822 17.125 6.65039 17.125C14.5234 17.125 18.8278 10.875 18.8278 5.4575C18.8278 5.27625 18.8213 5.10125 18.8121 4.9275C19.6613 4.35 20.3747 3.62875 20.9565 2.79875Z" fill="currentColor"/>
</svg>
