<svg width="54" height="54" viewBox="0 0 54 54" fill="none" xmlns="http://www.w3.org/2000/svg">
<path fill-rule="evenodd" clip-rule="evenodd" d="M3.04516 50.9565H50.9479C50.6522 46.108 48.9338 41.4573 46.0106 37.6047C43.0255 33.6706 38.9267 30.7566 34.2636 29.2535C29.6005 27.7504 24.5961 27.7299 19.9213 29.1948C15.2464 30.6598 11.1246 33.5401 8.10835 37.4497C5.09623 41.3211 3.32966 46.0371 3.04516 50.9565ZM52.4929 54.0003L1.49976 54.0003C1.10203 54.0003 0.7206 53.84 0.439366 53.5546C0.158241 53.2693 0.000260843 52.8824 0.000137437 52.4789C-0.0192395 46.3439 2.01085 40.3834 5.7591 35.5701C9.22494 31.0847 13.983 27.808 19.3704 26.1964C24.758 24.5848 30.5067 24.7187 35.8158 26.5795C41.1249 28.4402 45.7299 31.9352 48.9893 36.5775C52.2488 41.2197 54.0003 46.7782 54 52.4784C54 52.6789 53.961 52.8774 53.8851 53.0626C53.8093 53.2477 53.6982 53.4158 53.5581 53.5573C53.4181 53.6987 53.2519 53.8106 53.0691 53.8867C52.8864 53.9626 52.6903 54.0012 52.4929 54.0003Z" fill="#1D252C"/>
<path fill-rule="evenodd" clip-rule="evenodd" d="M26.9956 27.2024C24.345 27.2024 21.7538 26.4047 19.5499 24.9102C17.3459 23.4157 15.6282 21.2915 14.6138 18.8062C13.5994 16.3209 13.334 13.5861 13.8511 10.9478C14.3683 8.30938 15.6447 5.88587 17.519 3.98371C19.3933 2.08154 21.7813 0.786155 24.381 0.261349C26.9808 -0.263456 29.6754 0.00589353 32.1243 1.03534C34.5732 2.06478 36.6663 3.80808 38.139 6.04479C39.6116 8.2815 40.3976 10.9112 40.3976 13.6012C40.3976 17.2085 38.9856 20.668 36.4722 23.2187C33.9589 25.7694 30.55 27.2024 26.9956 27.2024ZM26.9956 3.05817C24.9381 3.05817 22.9269 3.67735 21.2162 4.83741C19.5054 5.99747 18.1721 7.64631 17.3847 9.57542C16.5974 11.5045 16.3914 13.6273 16.7928 15.6752C17.1942 17.7231 18.1849 19.6043 19.6398 21.0807C21.0946 22.5572 22.9482 23.5627 24.9661 23.9701C26.9841 24.3774 29.0757 24.1684 30.9766 23.3693C32.8774 22.5702 34.5021 21.2171 35.6452 19.4809C36.7882 17.7448 37.3984 15.7036 37.3984 13.6155C37.3984 10.8156 36.3024 8.13025 34.3515 6.15035C32.4006 4.17046 29.7546 3.05817 26.9956 3.05817Z" fill="#1D252C"/>
</svg>
