<svg width="36" height="40" viewBox="0 0 36 40" fill="none" xmlns="http://www.w3.org/2000/svg">
<g filter="url(#filter0_d_166_8092)">
<path d="M17.77 15.4145C19.8877 15.4145 21.7212 14.655 23.2197 13.1565C24.7177 11.6582 25.4775 9.82493 25.4775 7.70702C25.4775 5.58983 24.718 3.75634 23.2195 2.25756C21.7209 0.75952 19.8874 0 17.77 0C15.6521 0 13.8188 0.75952 12.3206 2.25781C10.8223 3.7561 10.0625 5.58959 10.0625 7.70702C10.0625 9.82493 10.8223 11.6584 12.3206 13.1567C13.8193 14.6548 15.6528 15.4145 17.77 15.4145ZM13.6467 3.58373C14.7964 2.43408 16.145 1.87524 17.77 1.87524C19.3948 1.87524 20.7436 2.43408 21.8935 3.58373C23.0432 4.73363 23.6023 6.08251 23.6023 7.70702C23.6023 9.33201 23.0432 10.6806 21.8935 11.8305C20.7436 12.9804 19.3948 13.5393 17.77 13.5393C16.1455 13.5393 14.7969 12.9802 13.6467 11.8305C12.4968 10.6809 11.9377 9.33201 11.9377 7.70702C11.9377 6.08251 12.4968 4.73363 13.6467 3.58373Z" fill="#currentColor"/>
<path d="M31.258 24.6062C31.2148 23.9826 31.1274 23.3025 30.9987 22.5842C30.8689 21.8606 30.7016 21.1765 30.5014 20.5513C30.2944 19.905 30.0134 19.2668 29.6655 18.6553C29.3049 18.0205 28.8811 17.4678 28.4055 17.0129C27.9082 16.5371 27.2993 16.1545 26.5952 15.8755C25.8935 15.5979 25.1159 15.4573 24.2841 15.4573C23.9575 15.4573 23.6416 15.5913 23.0315 15.9885C22.656 16.2334 22.2168 16.5166 21.7265 16.8298C21.3073 17.0969 20.7395 17.3472 20.0381 17.5737C19.3537 17.7952 18.6589 17.9075 17.9729 17.9075C17.2873 17.9075 16.5925 17.7952 15.9077 17.5737C15.207 17.3474 14.6389 17.0972 14.2204 16.8301C13.7348 16.5198 13.2954 16.2366 12.9143 15.9883C12.3047 15.5911 11.9888 15.457 11.6621 15.457C10.8301 15.457 10.0527 15.5979 9.35131 15.8757C8.6477 16.1543 8.03857 16.5369 7.54077 17.0132C7.06518 17.4683 6.64135 18.0207 6.281 18.6553C5.93359 19.2668 5.65234 19.9048 5.44531 20.5515C5.24536 21.1767 5.07812 21.8606 4.94824 22.5842C4.81934 23.3015 4.73218 23.9819 4.68896 24.6069C4.64648 25.218 4.625 25.854 4.625 26.4966C4.625 28.167 5.15601 29.5193 6.20312 30.5166C7.2373 31.5007 8.60546 31.9997 10.2698 31.9997H25.6779C27.3418 31.9997 28.7099 31.5007 29.7443 30.5166C30.7917 29.52 31.3227 28.1672 31.3227 26.4963C31.3225 25.8515 31.3007 25.2156 31.258 24.6062ZM28.4514 29.1579C27.768 29.8083 26.8608 30.1245 25.6777 30.1245H10.2698C9.08642 30.1245 8.17919 29.8083 7.49609 29.1582C6.82592 28.5202 6.50024 27.6494 6.50024 26.4966C6.50024 25.897 6.52002 25.3049 6.55957 24.7366C6.59814 24.1789 6.677 23.5664 6.79394 22.9155C6.90942 22.2727 7.05639 21.6694 7.2312 21.1233C7.39892 20.5996 7.62768 20.081 7.91137 19.5815C8.18212 19.1055 8.49365 18.697 8.8374 18.3679C9.15893 18.0601 9.5642 17.8081 10.0417 17.6191C10.4834 17.4443 10.9797 17.3486 11.5185 17.3342C11.5842 17.3691 11.7012 17.4358 11.8906 17.5593C12.2761 17.8105 12.7204 18.0972 13.2117 18.4109C13.7654 18.7639 14.4787 19.0828 15.331 19.3579C16.2024 19.6396 17.091 19.7827 17.9731 19.7827C18.8552 19.7827 19.7441 19.6396 20.615 19.3581C21.468 19.0825 22.1811 18.7639 22.7356 18.4104C23.2383 18.0891 23.6701 17.8108 24.0556 17.5593C24.2451 17.436 24.362 17.3691 24.4277 17.3342C24.9668 17.3486 25.4631 17.4443 25.905 17.6191C26.3823 17.8081 26.7876 18.0603 27.1091 18.3679C27.4528 18.6968 27.7644 19.1052 28.0351 19.5818C28.3191 20.081 28.5481 20.5998 28.7155 21.123C28.8906 21.6699 29.0378 22.2729 29.153 22.9153C29.2697 23.5674 29.3488 24.1802 29.3874 24.7368V24.7373C29.4272 25.3034 29.4472 25.8952 29.4475 26.4966C29.4472 27.6496 29.1215 28.5202 28.4514 29.1579Z" fill="#currentColor"/>
</g>
<defs>
<filter id="filter0_d_166_8092" x="-2" y="0" width="40" height="40" filterUnits="userSpaceOnUse" color-interpolation-filters="sRGB">
<feFlood flood-opacity="0" result="BackgroundImageFix"/>
<feColorMatrix in="SourceAlpha" type="matrix" values="0 0 0 0 0 0 0 0 0 0 0 0 0 0 0 0 0 0 127 0" result="hardAlpha"/>
<feOffset dy="4"/>
<feGaussianBlur stdDeviation="2"/>
<feComposite in2="hardAlpha" operator="out"/>
<feColorMatrix type="matrix" values="0 0 0 0 0 0 0 0 0 0 0 0 0 0 0 0 0 0 0.25 0"/>
<feBlend mode="normal" in2="BackgroundImageFix" result="effect1_dropShadow_166_8092"/>
<feBlend mode="normal" in="SourceGraphic" in2="effect1_dropShadow_166_8092" result="shape"/>
</filter>
</defs>
</svg>
