<svg width="24" height="26" viewBox="0 0 24 26" fill="none" xmlns="http://www.w3.org/2000/svg">
<path fill-rule="evenodd" clip-rule="evenodd" d="M11.999 0.333008C10.4309 0.332528 8.9039 0.834729 7.64217 1.7659C6.38044 2.69707 5.45043 4.00818 4.98864 5.50677C4.52684 7.00537 4.55759 8.61253 5.07636 10.0924C5.59513 11.5722 6.57461 12.8468 7.87102 13.729C5.62102 14.5543 3.66946 16.034 2.2675 17.9777C0.86555 19.9214 0.0773542 22.2402 0.00435667 24.6357C-0.00359982 24.9009 0.0941266 25.1584 0.276037 25.3516C0.457947 25.5447 0.70914 25.6577 0.974357 25.6657C1.23957 25.6736 1.49709 25.5759 1.69025 25.394C1.88341 25.2121 1.9964 24.9609 2.00436 24.6957C2.08376 22.0976 3.17164 19.6326 5.03746 17.8229C6.90328 16.0132 9.40042 15.0011 11.9997 15.0011C14.599 15.0011 17.0961 16.0132 18.9619 17.8229C20.8277 19.6326 21.9156 22.0976 21.995 24.6957C21.996 24.8288 22.0236 24.9604 22.0762 25.0828C22.1287 25.2051 22.2052 25.3157 22.3011 25.4081C22.3969 25.5005 22.5103 25.5728 22.6345 25.6208C22.7587 25.6688 22.8912 25.6915 23.0243 25.6876C23.1574 25.6837 23.2884 25.6533 23.4096 25.5981C23.5307 25.5429 23.6397 25.464 23.73 25.3662C23.8202 25.2683 23.8901 25.1534 23.9354 25.0282C23.9807 24.903 24.0005 24.77 23.9937 24.637C23.921 22.2413 23.1329 19.9222 21.7309 17.9782C20.3289 16.0342 18.3772 14.5543 16.127 13.729C17.4234 12.8468 18.4029 11.5722 18.9217 10.0924C19.4405 8.61253 19.4712 7.00537 19.0094 5.50677C18.5476 4.00818 17.6176 2.69707 16.3559 1.7659C15.0941 0.834729 13.5672 0.332528 11.999 0.333008ZM6.66569 7.66634C6.66569 6.25185 7.22759 4.8953 8.22779 3.89511C9.22798 2.89491 10.5845 2.33301 11.999 2.33301C13.4135 2.33301 14.7701 2.89491 15.7703 3.89511C16.7705 4.8953 17.3324 6.25185 17.3324 7.66634C17.3324 9.08083 16.7705 10.4374 15.7703 11.4376C14.7701 12.4378 13.4135 12.9997 11.999 12.9997C10.5845 12.9997 9.22798 12.4378 8.22779 11.4376C7.22759 10.4374 6.66569 9.08083 6.66569 7.66634Z" fill="currentColor"/>
</svg>
