<svg width="24" height="14" viewBox="0 0 24 14" fill="none" xmlns="http://www.w3.org/2000/svg">
<path d="M23.8414 6.61535L18.387 1.16088C18.191 0.932089 17.8467 0.905418 17.6179 1.1014C17.3891 1.29733 17.3624 1.64167 17.5584 1.87046C17.5767 1.89179 17.5966 1.91171 17.6179 1.92995L22.1396 6.45715H0.545428C0.244214 6.45715 0 6.70136 0 7.00262C0 7.30388 0.244214 7.54805 0.545428 7.54805H22.1396L17.6179 12.0698C17.3891 12.2657 17.3624 12.61 17.5584 12.8388C17.7544 13.0676 18.0987 13.0943 18.3275 12.8983C18.3488 12.88 18.3687 12.8602 18.387 12.8388L23.8414 7.38437C24.0529 7.1717 24.0529 6.82811 23.8414 6.61535Z" fill="currentColor"/>
</svg>
