<svg width="51" height="54" viewBox="0 0 51 54" fill="none" xmlns="http://www.w3.org/2000/svg">
<path d="M46.9211 13.8612H46.1499V3.38648C46.1499 1.5175 44.6294 0 42.7634 0H41.2708L41.107 0.0125812C29.7737 1.8845 3.36158 9.76406 3.1022 9.84062C0 10.747 0 13.0164 0 14.3768V17.248V46.5533V50.6143C0 52.4796 1.52045 54 3.38648 54H46.9211C48.7893 54 50.3068 52.4796 50.3068 50.6143V42.5134V29.0103V17.248C50.3068 15.3787 48.7893 13.8612 46.9211 13.8612ZM3.67584 11.7805C3.93844 11.7 30.1043 3.8924 41.3541 2.02048H42.7631C43.5161 2.02048 44.1302 2.63455 44.1302 3.38648V13.8623H3.38648C2.89876 13.8623 2.43994 13.9705 2.02316 14.1554C2.02637 13.0079 2.12194 12.2337 3.67584 11.7805ZM48.2863 40.4967H34.9979C34.246 40.4967 33.6319 39.8796 33.6319 39.1277V32.3957C33.6319 31.6438 34.246 31.0297 34.9979 31.0297H48.2863V40.4967ZM34.9979 29.0103C33.1327 29.0103 31.6122 30.5308 31.6122 32.396V39.128C31.6122 40.9962 33.1327 42.5137 34.9979 42.5137H48.2863V50.6146C48.2863 51.3665 47.6752 51.9806 46.9203 51.9806H3.38648C2.63348 51.9806 2.02048 51.3665 2.02048 50.6146V46.5536V17.248C2.02048 16.495 2.63455 15.882 3.38648 15.882H46.9211C47.676 15.882 48.2871 16.495 48.2871 17.248V29.0103H34.9979Z" fill="#1D252C"/>
<path d="M37.1103 37.1972C37.9304 37.1972 38.5952 36.5324 38.5952 35.7124C38.5952 34.8923 37.9304 34.2275 37.1103 34.2275C36.2903 34.2275 35.6255 34.8923 35.6255 35.7124C35.6255 36.5324 36.2903 37.1972 37.1103 37.1972Z" fill="#1D252C"/>
</svg>
