<?xml version="1.0" encoding="utf-8"?><svg viewBox="0 0 164 46" xmlns="http://www.w3.org/2000/svg" xmlns:xlink="http://www.w3.org/1999/xlink"><style>:root>svg{display:none}:root>svg:target{display:block}</style><svg fill="none" viewBox="0 0 12 14" id="Calendar" xmlns="http://www.w3.org/2000/svg"><path d="M10.667 1.75h-.584V.583H8.917V1.75H3.083V.583H1.917V1.75h-.584A1.17 1.17 0 00.167 2.917v9.333a1.17 1.17 0 001.166 1.167h9.334a1.17 1.17 0 001.166-1.167V2.917a1.17 1.17 0 00-1.166-1.167zm0 10.5H1.333V4.667h9.334v7.583z" fill="#999"/></svg><svg fill="none" viewBox="0 0 14 10" id="Check" xmlns="http://www.w3.org/2000/svg"><path d="M13.827.247a.592.592 0 00-.832 0L4.666 8.52 1.005 4.91a.592.592 0 00-.833 0 .58.58 0 000 .825l4.08 4.021a.598.598 0 00.833 0l8.742-8.685a.578.578 0 000-.824c-.23-.228.23.227 0 0z" fill="#fff"/></svg><svg fill="none" viewBox="0 0 148 29" id="High_pass" xmlns="http://www.w3.org/2000/svg"><path d="M0 23V2h5.55v7.8h8.1V2h5.55v21h-5.55v-8.1h-8.1V23H0zM22.486 3.2c0-.72.27-1.32.81-1.8.54-.5 1.22-.75 2.04-.75.82 0 1.5.25 2.04.75.54.48.81 1.08.81 1.8 0 .7-.27 1.3-.81 1.8s-1.22.75-2.04.75c-.82 0-1.5-.25-2.04-.75s-.81-1.1-.81-1.8zm.3 19.8V7.4h5.1V23h-5.1zM32.454 20.63c-1.34-1.48-2.01-3.39-2.01-5.73 0-2.34.67-4.25 2.01-5.73 1.34-1.48 2.97-2.22 4.89-2.22 1.38 0 2.57.4 3.57 1.2.46.36.82.76 1.08 1.2h.3V7.4h5.1v21.3h-14.85v-4.05h9.75V20.6h-.3c-.28.44-.64.82-1.08 1.14-.98.74-2.17 1.11-3.57 1.11-1.92 0-3.55-.74-4.89-2.22zm4.14-8.37c-.6.64-.9 1.52-.9 2.64s.3 2 .9 2.64c.6.64 1.4.96 2.4.96s1.8-.32 2.4-.96c.6-.64.9-1.52.9-2.64s-.3-2-.9-2.64c-.6-.64-1.4-.96-2.4-.96s-1.8.32-2.4.96zM50.38 23V2h5.1v7.5h.3c.28-.48.64-.9 1.08-1.26 1.02-.86 2.21-1.29 3.57-1.29 1.84 0 3.27.56 4.29 1.68 1.04 1.1 1.56 2.69 1.56 4.77V23h-5.1v-8.85c0-.9-.24-1.6-.72-2.1s-1.14-.75-1.98-.75c-.86 0-1.58.32-2.16.96-.56.62-.84 1.45-.84 2.49V23h-5.1zM77.538 28.7V7.4h5.1v2.1h.3c.28-.46.66-.88 1.14-1.26 1.1-.86 2.27-1.29 3.51-1.29 1.92 0 3.55.76 4.89 2.28 1.34 1.5 2.01 3.49 2.01 5.97 0 2.48-.67 4.48-2.01 6-1.34 1.5-2.97 2.25-4.89 2.25-1.26 0-2.43-.42-3.51-1.26a4.61 4.61 0 01-1.14-1.29h-.3v7.8h-5.1zm6-16.38c-.6.68-.9 1.64-.9 2.88s.3 2.2.9 2.88c.6.68 1.4 1.02 2.4 1.02s1.8-.34 2.4-1.02c.6-.68.9-1.64.9-2.88s-.3-2.2-.9-2.88c-.6-.68-1.4-1.02-2.4-1.02s-1.8.34-2.4 1.02zM98.284 21.2c-1.34-1.52-2.01-3.52-2.01-6s.67-4.47 2.01-5.97c1.34-1.52 2.97-2.28 4.89-2.28 1.24 0 2.41.43 3.51 1.29.46.38.84.8 1.14 1.26h.3V7.4h5.1V23h-5.1v-2.1h-.3c-.28.48-.66.91-1.14 1.29-1.08.84-2.25 1.26-3.51 1.26-1.92 0-3.55-.75-4.89-2.25zm4.14-8.88c-.6.68-.9 1.64-.9 2.88s.3 2.2.9 2.88c.6.68 1.4 1.02 2.4 1.02s1.8-.34 2.4-1.02c.6-.68.9-1.64.9-2.88s-.3-2.2-.9-2.88c-.6-.68-1.4-1.02-2.4-1.02s-1.8.34-2.4 1.02zM115.31 17.9h5.1c.08.3.25.58.51.84.54.54 1.32.81 2.34.81 1.4 0 2.1-.35 2.1-1.05 0-.32-.2-.57-.6-.75-.4-.2-1-.4-1.8-.6-.66-.16-1.09-.26-1.29-.3-.2-.04-.62-.15-1.26-.33-.64-.2-1.1-.37-1.38-.51-.26-.16-.63-.38-1.11-.66-.46-.3-.8-.6-1.02-.9-.2-.32-.39-.71-.57-1.17-.18-.48-.27-.99-.27-1.53 0-1.32.59-2.45 1.77-3.39 1.18-.94 2.84-1.41 4.98-1.41 2.68 0 4.8.88 6.36 2.64a6.53 6.53 0 011.29 2.61h-4.95c-.12-.32-.26-.57-.42-.75-.46-.5-1.12-.75-1.98-.75-1.2 0-1.8.35-1.8 1.05 0 .34.2.6.6.78.4.18 1.01.35 1.83.51 2.06.48 3.45.9 4.17 1.26 1.8.88 2.7 2.23 2.7 4.05 0 1.44-.64 2.65-1.92 3.63-1.26.98-3.07 1.47-5.43 1.47-2.9 0-5.11-.92-6.63-2.76a6.113 6.113 0 01-1.32-2.79zM131.951 17.9h5.1c.08.3.25.58.51.84.54.54 1.32.81 2.34.81 1.4 0 2.1-.35 2.1-1.05 0-.32-.2-.57-.6-.75-.4-.2-1-.4-1.8-.6-.66-.16-1.09-.26-1.29-.3-.2-.04-.62-.15-1.26-.33-.64-.2-1.1-.37-1.38-.51-.26-.16-.63-.38-1.11-.66-.46-.3-.8-.6-1.02-.9-.2-.32-.39-.71-.57-1.17-.18-.48-.27-.99-.27-1.53 0-1.32.59-2.45 1.77-3.39 1.18-.94 2.84-1.41 4.98-1.41 2.68 0 4.8.88 6.36 2.64a6.53 6.53 0 011.29 2.61h-4.95c-.12-.32-.26-.57-.42-.75-.46-.5-1.12-.75-1.98-.75-1.2 0-1.8.35-1.8 1.05 0 .34.2.6.6.78.4.18 1.01.35 1.83.51 2.06.48 3.45.9 4.17 1.26 1.8.88 2.7 2.23 2.7 4.05 0 1.44-.64 2.65-1.92 3.63-1.26.98-3.07 1.47-5.43 1.47-2.9 0-5.11-.92-6.63-2.76a6.113 6.113 0 01-1.32-2.79z" fill="#fff"/></svg><svg fill="none" viewBox="0 0 20 20" id="LogIn" xmlns="http://www.w3.org/2000/svg"><path d="M6.224 18.898l.129-.483-.13.483zM4.5 15a.5.5 0 00-1 0h1zm-.398 1.776l.483-.129-.483.13zM6.224 1.102l.129.483-.13-.483zM3.5 5a.5.5 0 001 0h-1zm.602-1.776l-.483-.13.483.13zm14.571 14.138l-.445-.227.445.227zm-1.311 1.311l.227.446-.227-.446zm1.311-16.035l-.445.227.445-.227zm-1.311-1.311l.227-.446-.227.446zm-7.008 4.32a.5.5 0 00-.708.707l.708-.708zM14 10l.354.354a.5.5 0 000-.708L14 10zm-4.354 3.646a.5.5 0 00.708.708l-.708-.708zM1 9.5a.5.5 0 000 1v-1zm17.5-3.7v8.4h1V5.8h-1zM8 1.5h6.2v-1H8v1zm6.2 17H8v1h6.2v-1zm-6.2 0c-.962 0-1.345-.004-1.647-.085l-.259.966c.461.123 1.008.119 1.906.119v-1zM3.5 15c0 .898-.004 1.445.12 1.906l.965-.259c-.08-.302-.085-.685-.085-1.647h-1zm2.853 3.415a2.5 2.5 0 01-1.768-1.768l-.966.259a3.5 3.5 0 002.475 2.475l.259-.966zM8 .5C7.102.5 6.555.496 6.094.62l.259.965C6.655 1.505 7.038 1.5 8 1.5v-1zM4.5 5c0-.962.004-1.345.085-1.647l-.966-.259C3.496 3.555 3.5 4.102 3.5 5h1zM6.094.62A3.5 3.5 0 003.62 3.093l.966.259a2.5 2.5 0 011.768-1.768L6.094.62zM18.5 14.2c0 .848 0 1.455-.04 1.93-.038.469-.11.766-.233 1.005l.892.454c.205-.403.295-.847.338-1.378.043-.525.043-1.18.043-2.011h-1zm-4.3 5.3c.832 0 1.486 0 2.011-.043.531-.043.975-.133 1.378-.338l-.454-.892c-.239.122-.536.195-1.005.234-.475.039-1.082.039-1.93.039v1zm4.027-2.365a2.5 2.5 0 01-1.092 1.092l.454.892a3.5 3.5 0 001.53-1.53l-.892-.454zM19.5 5.8c0-.832 0-1.486-.043-2.011-.043-.531-.133-.975-.338-1.378l-.892.454c.122.239.195.536.234 1.005.039.475.039 1.082.039 1.93h1zm-5.3-4.3c.848 0 1.455 0 1.93.04.469.038.766.11 1.005.232l.454-.89c-.403-.206-.847-.296-1.378-.34C15.686.5 15.031.5 14.2.5v1zm4.919.911a3.5 3.5 0 00-1.53-1.53l-.454.891a2.5 2.5 0 011.092 1.093l.892-.454zM9.646 6.354l4 4 .708-.708-4-4-.708.708zm4 3.292l-4 4 .708.708 4-4-.708-.708zM1 10.5h13v-1H1v1z" fill="#6D7889"/></svg><svg fill="none" viewBox="0 0 13 20" id="classmates" xmlns="http://www.w3.org/2000/svg"><path d="M5.58 14.088c-1.55-.162-2.948-.544-4.145-1.48-.148-.116-.301-.229-.437-.359-.524-.503-.577-1.079-.162-1.673.355-.508.95-.644 1.569-.352.12.056.234.127.343.203 2.23 1.533 5.295 1.575 7.534.069.222-.17.459-.309.734-.38.534-.137 1.032.06 1.319.527.328.534.323 1.055-.08 1.47-.62.635-1.364 1.095-2.191 1.416-.783.303-1.64.456-2.488.557.128.14.189.208.269.288 1.151 1.157 2.308 2.31 3.456 3.47.39.396.473.886.257 1.346-.235.503-.762.833-1.28.798-.326-.023-.582-.186-.809-.414-.869-.875-1.754-1.733-2.606-2.624-.247-.26-.367-.21-.585.015-.875.9-1.763 1.786-2.657 2.667-.401.396-.879.467-1.344.241-.495-.24-.81-.745-.786-1.252.017-.343.186-.606.422-.84 1.14-1.139 2.276-2.28 3.413-3.42.075-.076.145-.156.255-.273z" fill="currentColor"/><path d="M6.525 10.123c-2.766-.01-5.034-2.302-5.018-5.073A5.07 5.07 0 016.586 0c2.799.008 5.045 2.297 5.031 5.127-.014 2.765-2.298 5.006-5.092 4.996zm2.514-5.066a2.465 2.465 0 00-2.473-2.472 2.469 2.469 0 00-2.48 2.502A2.465 2.465 0 006.578 7.54a2.46 2.46 0 002.46-2.483z" fill="currentColor"/></svg><svg fill="none" viewBox="0 0 14 14" id="close" xmlns="http://www.w3.org/2000/svg"><path d="M7.384 7.614L13.842.953a.57.57 0 00-.001-.79.532.532 0 00-.768.001L7 6.43.927.164A.532.532 0 00.16.163.565.565 0 000 .558c0 .143.053.286.158.395l6.458 6.66a.534.534 0 00.768 0z" fill="currentColor"/><path d="M7.384 6.386l6.458 6.661a.57.57 0 01-.001.79.532.532 0 01-.768-.001L7 7.57.927 13.836a.532.532 0 01-.767.001.565.565 0 01-.16-.395c0-.143.053-.286.158-.395l6.458-6.66a.534.534 0 01.768 0z" fill="currentColor"/></svg><svg fill="none" viewBox="0 0 11 20" id="fb" xmlns="http://www.w3.org/2000/svg"><path d="M10.478.004L7.884 0C4.971 0 3.088 1.932 3.088 4.922v2.27H.48a.408.408 0 00-.408.407v3.288c0 .226.183.408.408.408h2.608v8.297c0 .226.182.408.408.408h3.402a.408.408 0 00.408-.408v-8.297h3.049a.408.408 0 00.407-.408l.002-3.288a.408.408 0 00-.408-.408h-3.05V5.268c0-.925.22-1.394 1.424-1.394l1.748-.001a.408.408 0 00.407-.408V.412a.408.408 0 00-.407-.408z" fill="currentColor"/></svg><svg fill="none" viewBox="0 0 46 46" id="important" xmlns="http://www.w3.org/2000/svg"><circle cx="23" cy="23" r="23" fill="#428BF9"/><path d="M24.187 16.639l-.163 8.86h-1.162l-.154-8.86h1.48zm-.722 12.49a.942.942 0 01-.955-.946c0-.264.091-.488.275-.671a.927.927 0 01.68-.284c.258 0 .481.094.67.284a.9.9 0 01.284.67.9.9 0 01-.283.672.932.932 0 01-.671.275z" fill="#fff"/></svg><svg fill="none" viewBox="0 0 30 30" id="instagram" xmlns="http://www.w3.org/2000/svg"><path d="M12.129 15a2.871 2.871 0 105.742 0 2.871 2.871 0 00-5.742 0z" fill="currentColor"/><path d="M8.286 9.92c.138-.374.358-.712.644-.99.278-.286.616-.507.99-.645.304-.118.76-.258 1.6-.296.908-.041 1.18-.05 3.48-.05s2.573.008 3.48.05c.84.038 1.297.178 1.6.296.374.138.713.359.99.645.286.278.506.616.645.99.118.303.258.76.296 1.6.042.908.05 1.18.05 3.48s-.008 2.572-.05 3.48c-.038.84-.178 1.296-.296 1.6a2.67 2.67 0 01-.645.99 2.667 2.667 0 01-.99.645c-.303.118-.76.258-1.6.296-.907.042-1.18.05-3.48.05s-2.572-.008-3.48-.05c-.84-.038-1.296-.178-1.6-.296a2.852 2.852 0 01-1.634-1.635c-.118-.304-.259-.76-.297-1.6-.041-.908-.05-1.18-.05-3.48s.009-2.572.05-3.48c.038-.84.178-1.296.297-1.6zM15 19.423a4.423 4.423 0 100-8.846 4.423 4.423 0 000 8.846zm-4.598-7.987a1.034 1.034 0 100-2.068 1.034 1.034 0 000 2.068z" fill="currentColor"/><path d="M15 0c8.283 0 15 6.717 15 15 0 8.283-6.717 15-15 15-8.283 0-15-6.717-15-15C0 6.717 6.717 0 15 0zM6.439 18.551c.041.917.187 1.543.4 2.09a4.404 4.404 0 002.52 2.52c.547.213 1.173.358 2.09.4.918.042 1.212.052 3.55.052 2.34 0 2.633-.01 3.552-.052.917-.042 1.543-.187 2.09-.4a4.22 4.22 0 001.526-.994c.438-.43.777-.95.994-1.525.213-.548.358-1.174.4-2.09.042-.92.052-1.213.052-3.552 0-2.34-.01-2.633-.052-3.551-.041-.917-.187-1.543-.4-2.09a4.22 4.22 0 00-.994-1.526 4.218 4.218 0 00-1.525-.994c-.548-.213-1.174-.358-2.09-.4-.92-.042-1.213-.052-3.552-.052-2.34 0-2.633.01-3.551.052-.917.042-1.543.187-2.09.4a4.222 4.222 0 00-1.527.994 4.22 4.22 0 00-.993 1.525c-.213.548-.359 1.174-.4 2.09-.042.92-.052 1.213-.052 3.552 0 2.34.01 2.633.052 3.551z" fill="currentColor"/></svg><svg fill="none" viewBox="0 0 37 43" id="logo-first" xmlns="http://www.w3.org/2000/svg"><path fill-rule="evenodd" clip-rule="evenodd" d="M21.921 2.138c2.015 0 3.958.29 5.788.83V7.9a16.318 16.318 0 00-4.094-1.061v.966c1.824.244 3.607.79 5.176 1.723v-6.21a19.797 19.797 0 018.047 5.37l.005.006-4.337 6.128v1.804l.039.025 4.293-6.063v21.09l-4.298-6.075-.033.022v1.816l4.304 6.08a19.8 19.8 0 01-8.013 5.338v-4.292c-.352.19-.712.366-1.081.527v4.117c-1.832.541-3.779.833-5.796.833-.68 0-1.353-.033-2.017-.098v-2.683h.003v-.962a15.54 15.54 0 01-1.08-.15l-.004 3.66a20.1 20.1 0 01-7.55-2.766V22.229H10.19v14.099c-4.852-3.453-7.999-8.993-7.999-15.237 0-6.245 3.147-11.784 7.999-15.237v12.433H5.419v1.039h5.854V5.155h-.031a20.1 20.1 0 017.583-2.784v4.557a16.301 16.301 0 00-3.93 1.164v1.06a15.315 15.315 0 015.011-1.402V2.236a20.745 20.745 0 012.015-.098zm-1.987 30.63a11.495 11.495 0 01-5.053-1.968v-1.384a10.28 10.28 0 003.971 2.033l.001-19.968c.353-.082.712-.148 1.077-.198l.003 20.387h.001v1.097zm7.835-19.779c.364.233.746.508 1.078.779l.005 16.5c-1.444 1.256-3.405 2.101-5.311 2.432v-1.104a10.312 10.312 0 004.23-1.872l-.002-16.735zM21.922 0c5.761 0 11.003 2.137 14.916 5.63v1.792c-3.752-3.786-9.047-6.145-14.916-6.145-11.372 0-20.593 8.858-20.593 19.782s9.221 19.783 20.593 19.783c5.869 0 11.165-2.36 14.916-6.146v1.791c-3.913 3.493-9.155 5.63-14.916 5.63C9.817 42.118 0 32.688 0 21.06 0 9.43 9.817 0 21.922 0z" fill="url(#jpaint0_radial_2_95)"/><defs><radialGradient id="jpaint0_radial_2_95" cx="0" cy="0" r="1" gradientUnits="userSpaceOnUse" gradientTransform="matrix(12.9631 0 0 12.8037 20.635 20.215)"><stop stop-color="#47993D"/><stop offset="1" stop-color="#337B43"/></radialGradient></defs></svg><svg fill="none" viewBox="0 0 164 32" id="logo-second" xmlns="http://www.w3.org/2000/svg"><path d="M61.325 2.709h.485v-.56h-2.623v.56h.486v5.058h-.486v.559l2.625-.001v-.56h-.486l1.827-3.381.002 3.383h-.485v.559h2.623v-.559h-.486V2.71h.486v-.56H62.67v.558h.484v.002l-1.823 3.387-.007-3.387zM152.563 2.707h.486v-.56h-2.623v.56h.485v5.058h-.485v.559l2.624-.001v-.56h-.486l1.827-3.381.002 3.383h-.485v.559h2.623v-.559h-.486V2.707h.486v-.56h-2.622v.558h.484v.002l-1.822 3.387-.008-3.387zM146.963 18.885h.738v-.85h-3.986v.85h.738v7.686h-.738v.85l3.988-.002v-.85h-.738v-.001l2.776-5.138.004 5.141h-.738v.85h3.987v-.85h-.738v-7.686h.738v-.85l-3.984-.002v.85h.735v.002l-2.77 5.147-.012-5.147zM163.47 18.035h-4.724c-.96 0-3.347.026-3.347 2.293 0 1.728 1.107 2.224 2.485 2.224v.235c-1.352.448-1.649.687-1.943 1.681l-.444 1.465c-.147.474-.32.687-1.009.781v.95h1.404c.738 0 1.698-.212 2.041-1.377l.688-2.293c.196-.661.418-.922 1.6-.922v3.5h-.738v.85h3.987v-.85h-.738v-7.687h.738v-.85zm-3.249 1.063v3.027h-.764c-.858 0-1.302-.38-1.302-1.49 0-1.11.444-1.537 1.28-1.537h.786zM122.652 23.402c0 2.202 1.107 4.263 4.355 4.263 1.725-.003 3.004-.55 3.497-.857v-2.083h-1.181c-.174.973-.516 1.848-1.947 1.848-1.55 0-1.968-1.063-1.968-2.296v-1.49h4.456c.836 0 .96-.38.96-.944 0-2.083-1.057-4.046-3.817-4.046-3.248 0-4.355 2.057-4.355 4.256v1.349zm2.756-1.678v-.568c0-1.182.195-2.296 1.599-2.296 1.405 0 1.6 1.114 1.6 2.296v.568h-3.199zM97.379 23.402c0 2.202 1.106 4.263 4.355 4.263 1.724-.003 3.004-.55 3.497-.857v-2.083h-1.182c-.173.973-.516 1.848-1.946 1.848-1.551 0-1.969-1.063-1.969-2.296v-1.49h4.457c.836 0 .96-.38.96-.944 0-2.083-1.058-4.046-3.817-4.046-3.248 0-4.355 2.057-4.355 4.256v1.349zm2.755-1.678v-.568c0-1.182.196-2.296 1.6-2.296 1.404 0 1.6 1.114 1.6 2.296v.568h-3.2zM76.195 23.402c0 2.202 1.107 4.263 4.356 4.263 1.724-.003 3.004-.55 3.496-.857v-2.083h-1.181c-.174.973-.516 1.848-1.947 1.848-1.55 0-1.968-1.063-1.968-2.296v-1.49h4.457c.835 0 .96-.38.96-.944 0-2.083-1.058-4.046-3.817-4.046-3.25 0-4.356 2.057-4.356 4.256v1.349zm2.756-1.678v-.568c0-1.182.195-2.296 1.6-2.296 1.404 0 1.6 1.114 1.6 2.296v.568h-3.2zM86.976 30.858h-.738v.85h3.987v-.85h-.738v-3.956c.595.528 1.604.763 2.39.763 2.733 0 3.497-2.13 3.497-4.072v-1.728c0-1.942-.764-4.068-3.497-4.068-.862 0-1.87.213-2.782 1.041l-.444-.803h-2.413v.85h.738v11.973zm2.51-11.05c.325-.333.987-.64 1.653-.64 1.231 0 1.427 1.135 1.427 2.317v2.488c0 1.183-.196 2.318-1.427 2.318-.666-.003-1.332-.31-1.652-.643v-5.84zM65.66 19.95v3.453c0 2.202 1.107 4.263 4.36 4.263 3.248 0 4.354-2.061 4.354-4.263v-1.35c0-2.198-1.106-4.255-4.355-4.255-1.6 0-2.955 1.276-3.226 2.198v-.803c0-1.797.395-3.735 3.964-4.043l2.213-.188c.396-.025.667-.119.911-.26l.173-2.13c-.27.12-.493.192-.835.214l-2.586.213c-4.356.354-4.973 4.35-4.973 6.95zm2.756 1.207c0-1.186.195-2.296 1.603-2.296 1.404 0 1.6 1.11 1.6 2.296v3.146c0 1.182-.196 2.296-1.6 2.296-1.408 0-1.603-1.114-1.603-2.296v-3.146zM24.218 14.938h.937v-1.063h-4.826v1.063h.934v1.183c-.445-.116-.911-.141-1.356-.141-2.24 0-4.11.85-4.11 3.688v1.75c0 2.839 1.87 3.689 4.11 3.689.445 0 .912-.022 1.356-.141v1.395h-.934v1.063h4.826v-1.063h-.938v-1.395c.445.115.912.14 1.356.14 2.24 0 4.11-.85 4.11-3.688v-1.75c0-2.839-1.87-3.688-4.11-3.688-.445 0-.911.021-1.355.14v-1.182zm-2.955 2.365v6.48a1.235 1.235 0 01-.614.141c-1.604 0-1.897-1.276-1.897-2.245v-2.271c0-.97.294-2.246 1.897-2.246.271 0 .418.047.614.141zm2.954 0c.196-.094.347-.141.614-.141 1.604 0 1.897 1.276 1.897 2.246v2.27c0 .97-.293 2.246-1.897 2.246-.267 0-.418-.047-.613-.14v-6.48zM132.699 18.035v.85h.738v7.688h-.738v.85h3.987v-.85h-.738v-3.927h2.71v3.927h-.738v.85h3.987v-.85h-.738v-7.688h.738v-.85h-3.987v.85h.738v2.698h-2.71v-2.698h.738v-.85h-3.987zM115.323 18.885h.738v-.85h-3.986v.85h.738v2.886h-.271c-.862 0-1.084-.474-1.329-1.323l-.418-1.49c-.271-.995-1.355-1.161-2.145-1.161a3.49 3.49 0 00-.81.072v2.01c.441-.332.591-.379.911-.379.542 0 .836.427.911.734l.294 1.063c.124.427.493.662.96.781v.214c-1.649.166-2.044 1.204-2.214 1.916l-.346 1.44c-.173.665-.32.994-1.129.994v.951c.173.047.64.094 1.054.094 1.603 0 2.217-.405 2.586-1.967l.346-1.443c.294-1.277.986-1.443 1.6-1.443v3.74h-.738v.849h3.986v-.85h-.738v-3.739c.618 0 1.307.166 1.6 1.443l.347 1.443c.369 1.562.986 1.967 2.586 1.967.418 0 .888-.047 1.058-.094v-.951c-.814 0-.96-.33-1.134-.994l-.342-1.44c-.173-.712-.569-1.75-2.217-1.916v-.214c.467-.119.835-.354.96-.78l.293-1.064c.076-.307.373-.734.911-.734.324 0 .471.047.915.38v-2.01a3.524 3.524 0 00-.813-.073c-.791 0-1.875.166-2.146 1.157l-.418 1.494c-.244.85-.466 1.323-1.328 1.323h-.272v-2.886zM56.68 19.976c0-2.723.666-4.094 2.39-4.094 1.355.004 1.968.829 2.24 2.202h1.772V15.34c-1.204-.709-2.533-.875-4.012-.875-4.017 0-5.715 2.575-5.715 5.771v1.725c0 3.193 1.698 5.775 5.715 5.775 2.857 0 4.728-1.87 4.728-3.692h-2.733c0 1.183-.37 2.27-1.995 2.27-1.724 0-2.39-1.373-2.39-4.093v-2.245zM45.566 22.033v1.61h5.808v-1.61h-5.808zM36.28 15.835h.933v-1.063H32.39v1.063h.933v10.527h-.933v1.063h4.822v-1.063h-.934v-5.276h.715c.712 0 1.65.329 1.867 1.255l.911 3.76c.347 1.396 1.306 1.635 2.71 1.635.49 0 .983-.022 1.574-.094v-1.16c-1.058 0-1.329-.261-1.724-1.892l-.538-2.25c-.271-1.088-1.306-1.605-2.537-1.677v-.307c.59-.167.862-.26 1.106-.923l.764-1.988c.196-.5.614-.782 1.254-.782.271 0 .52.12.964.452v-2.39a2.729 2.729 0 00-1.133-.26c-1.258 0-1.92.59-2.39 1.772l-1.058 2.744c-.245.637-.738.803-1.77.803l-.715.004v-3.953zM4.732 15.835h.934V14.77H.844v1.064h.933V26.36H.844v1.063h4.822v-1.063h-.934v-5.345h4.453v5.345h-.933v1.063h4.822v-1.063h-.934V15.835h.934V14.77H8.252v1.064h.933v3.88H4.732v-3.88zM163.425 2.068h-3.108c-.632 0-2.202.017-2.202 1.509 0 1.137.728 1.463 1.635 1.463v.155c-.89.295-1.085.452-1.278 1.106l-.293.964c-.096.311-.21.452-.663.514v.625h.923c.486 0 1.117-.14 1.343-.906l.453-1.509c.129-.435.275-.606 1.053-.606v2.303h-.486v.559h2.623v-.56h-.485V2.628h.485v-.559zm-2.137.7v1.991h-.503c-.565 0-.857-.25-.857-.98s.292-1.011.842-1.011h.518zM141.885 7.763h-.486V3.934c0-.825-.275-1.946-2.315-1.946-1.59 0-2.497.7-2.497 1.744h1.588c0-.592.374-1.044.795-1.044.631 0 .778.514.778 1.137v.685c-1.848.45-3.24.854-3.24 2.365 0 1.137.681 1.606 1.57 1.606.761 0 1.409-.266 1.944-.609l.357.45h1.506v-.56zm-2.137-.545c-.243.233-.632.311-.811.311-.42 0-.616-.373-.616-.904 0-.949.503-1.213 1.427-1.415v2.008zM113.699 5.676c0 1.449.728 2.805 2.868 2.805 2.138 0 2.866-1.356 2.866-2.805V4.79c0-1.447-.746-2.8-2.883-2.8-2.138 0-2.851 1.353-2.851 2.8v.887zm1.813-1.477c0-.78.129-1.511 1.055-1.511.924 0 1.053.73 1.053 1.51v2.07c0 .778-.129 1.511-1.053 1.511-.926 0-1.055-.733-1.055-1.51v-2.07zM100.476 2.148h-3.108c-.632 0-2.202.017-2.202 1.509 0 1.137.728 1.463 1.634 1.463v.155c-.889.295-1.084.452-1.278 1.106l-.292.964c-.096.311-.21.452-.664.514v.626h.924c.486 0 1.117-.14 1.343-.907l.453-1.508c.129-.436.275-.607 1.052-.607v2.303h-.485v.559h2.623v-.56h-.486V2.709h.486v-.56zm-2.138.7v1.991h-.503c-.564 0-.856-.25-.856-.98s.292-1.011.842-1.011h.517zM93.498 7.767h-.485V3.938c0-.825-.275-1.946-2.316-1.946-1.59 0-2.497.7-2.497 1.744h1.588c0-.592.374-1.044.795-1.044.632 0 .778.514.778 1.137v.685c-1.848.45-3.24.854-3.24 2.365 0 1.137.681 1.606 1.57 1.606.76 0 1.41-.266 1.945-.609l.356.45h1.506v-.56zm-2.137-.545c-.243.233-.632.311-.81.311-.421 0-.617-.373-.617-.904 0-.95.503-1.213 1.427-1.415v2.008zM66.563 5.678c0 1.449.728 2.805 2.868 2.805 2.137 0 2.865-1.356 2.865-2.805v-.887c0-1.447-.745-2.8-2.883-2.8-2.137 0-2.85 1.353-2.85 2.8v.887zM68.376 4.2c0-.78.128-1.51 1.055-1.51.923 0 1.052.73 1.052 1.51v2.07c0 .778-.129 1.511-1.052 1.511-.927 0-1.055-.733-1.055-1.51V4.2zM24.54 5.678c0 1.449.727 2.805 2.864 2.805 1.135-.002 1.977-.362 2.301-.564V6.55h-.777c-.114.64-.34 1.216-1.28 1.216-1.021 0-1.296-.7-1.296-1.511v-.98h2.932c.55 0 .632-.25.632-.621 0-1.37-.696-2.663-2.512-2.663-2.137 0-2.865 1.354-2.865 2.8v.888zm1.812-1.104V4.2c0-.777.129-1.51 1.052-1.51.924 0 1.053.733 1.053 1.51v.374h-2.105zM17.883 2.148v.56h.485v5.058h-.485v.559h2.69c1.28 0 2.622-.388 2.622-1.775 0-.825-.55-1.354-1.57-1.54v-.094c.89-.265 1.31-.652 1.31-1.383 0-.966-.842-1.385-1.798-1.385h-3.254zm2.137 3.25h.567c.488 0 .795.296.795.67v.889c0 .373-.307.669-.795.669h-.567V5.399zm0-2.55h.585c.532 0 .693.217.693.669v.513c0 .45-.16.669-.696.669h-.582V2.848zM143.18 2.148v.56h.485v5.058h-.485v.559h2.622v-.56h-.485V5.183h1.783v2.584h-.485v.559h2.623v-.56h-.486V2.708h.486v-.559h-2.623v.56h.485v1.775h-1.783V2.707h.485v-.559h-2.622zM129.207 2.148v.56h.485v5.058h-.485v.559h2.623v-.56h-.486V2.849h1.831v4.918h-.486v.559h2.623v-.56h-.485V2.708h.485v-.559h-6.105zM120.613 2.148v.56h.486v5.058h-.486v.559h1.699v-.56h-.485l-.004-4.698 1.755 3.716h.567l1.764-3.706v4.689h-.486v.559h2.623v-.56h-.486V2.708h.486v-.559h-2.477l-1.31 2.753-1.298-2.753h-2.348zM109.072 2.15h-2.623v.558h.486v5.059h-.486v.559h2.623v-.56h-.485v-2.46h.274c.407 0 .86.11 1.053.95l.228.949c.243 1.028.649 1.294 1.701 1.294.275 0 .582-.03.694-.062v-.625c-.533 0-.629-.217-.743-.654l-.225-.948c-.114-.468-.374-1.151-1.459-1.26v-.14c.307-.08.55-.234.631-.515l.193-.7c.05-.202.246-.482.6-.482.21 0 .309.03.599.25V2.04a2.29 2.29 0 00-.532-.048c-.52 0-1.234.11-1.41.761l-.277.983c-.161.56-.307.871-.874.871h-.453V2.708h.485V2.15zM80.852 2.148v.56h.485v5.058h-.485v.559h2.622v-.56h-.485V5.183h1.783v2.584h-.485v.559h2.623v-.56h-.486V2.708h.486v-.559h-2.623v.56h.485v1.775H82.99V2.707h.485v-.559h-2.622zM73.574 2.148v.56h.486v5.058h-.486v.559h2.623v-.56h-.485V5.183h1.783v2.584h-.486v.559h2.623v-.56h-.485V2.708h.485v-.559H77.01v.56h.486v1.775h-1.783V2.707h.485v-.559h-2.623zM51.566 7.766v.559h5.2l.373 2.555h.778l.371-2.553v-.561h-1.181V2.707h.485v-.559H54.97v.56h.485v4.917h-1.751V2.707h.485v-.559h-2.623v.56h.486v5.058h-.486zM46.356 2.707h.486v-.56h-2.623v.56h.485v5.058h-.485v.559l2.624-.001v-.56h-.486l1.827-3.38.003 3.382H47.7v.559h2.623v-.559h-.485V2.707h.485v-.56h-2.622v.558h.485v.002l-1.823 3.387-.008-3.387zM41.16 2.848h.778l.503 1.401h.728l-.146-2.1h-5.377l-.146 2.1h.728l.503-1.401h.785l-.008 4.918h-.485v.559h2.623v-.56h-.485l-.002-4.917zM31.246 5.682c0 1.447.728 2.803 2.866 2.803.906-.002 1.506-.19 2.187-.533V6.458h-.81c-.065.578-.39 1.325-1.377 1.325-.924 0-1.053-.733-1.053-1.51v-2.07c0-.888.21-1.511.956-1.511.681 0 .778.606.778 1.199h1.506c0-1.247-.939-1.899-2.187-1.899-2.138 0-2.866 1.354-2.866 2.8v.89zM10.55 2.148v.56h.486v5.058h-.485v.559h2.623v-.56h-.486V5.183h1.784v2.584h-.486v.559h2.623v-.56h-.486V2.708h.486v-.559h-2.623v.56h.486v1.775h-1.784V2.707h.486v-.559H10.55zM3.43.7h.616V0H.871v.7h.614v6.925H.871v.7h3.174v-.7H3.43L6.443 2.18v5.446h-.616v.7h3.175v-.7h-.617V.7H9V0H5.826v.7h.615L3.43 6.148V.7z" fill="#170909"/></svg><svg fill="none" viewBox="0 0 18 18" id="phone" xmlns="http://www.w3.org/2000/svg"><path d="M16.343 12.098a10.49 10.49 0 01-3.236-.513.896.896 0 00-.926.22l-1.44 1.806c-2.593-1.238-5.023-3.575-6.315-6.261l1.787-1.522a.935.935 0 00.22-.935 10.223 10.223 0 01-.513-3.236.916.916 0 00-.907-.907H1.84C1.346.75.75.97.75 1.657c0 8.516 7.086 15.593 15.593 15.593.65 0 .907-.578.907-1.082v-3.162a.916.916 0 00-.907-.908z" fill="currentColor"/></svg><svg fill="none" viewBox="0 0 17 17" id="search" xmlns="http://www.w3.org/2000/svg"><path d="M16.444 14.688l-3.212-2.747a6.968 6.968 0 001.456-4.285c0-1.88-.734-3.642-2.06-4.97A6.98 6.98 0 007.655.624a6.99 6.99 0 00-4.97 2.06A6.975 6.975 0 00.624 7.656c0 1.878.734 3.645 2.06 4.971a6.975 6.975 0 004.971 2.06c1.57 0 3.061-.51 4.282-1.453l3.212 2.745a.193.193 0 00.272 0l1.022-1.02a.195.195 0 00.056-.136.193.193 0 00-.056-.136zm-5.075-3.32a5.222 5.222 0 01-3.713 1.538 5.222 5.222 0 01-3.712-1.537 5.222 5.222 0 01-1.538-3.713c0-1.401.546-2.72 1.538-3.712a5.222 5.222 0 013.712-1.538c1.402 0 2.721.544 3.713 1.538a5.222 5.222 0 011.537 3.712 5.218 5.218 0 01-1.537 3.713z" fill="currentColor"/></svg><svg fill="none" viewBox="0 0 21 18" id="twitter" xmlns="http://www.w3.org/2000/svg"><path d="M20.956 2.799a9.226 9.226 0 01-2.465.647 4.113 4.113 0 001.882-2.266 8.779 8.779 0 01-2.713.992A4.376 4.376 0 0014.535.875c-2.369 0-4.276 1.842-4.276 4.101 0 .325.03.638.1.935-3.557-.166-6.705-1.8-8.819-4.288a3.998 3.998 0 00-.586 2.072c0 1.42.763 2.679 1.9 3.408a4.367 4.367 0 01-1.932-.505v.045c0 1.992 1.483 3.647 3.428 4.028a4.443 4.443 0 01-1.122.135c-.274 0-.55-.015-.81-.07.554 1.624 2.127 2.818 3.998 2.856a8.837 8.837 0 01-5.305 1.75c-.351 0-.688-.016-1.024-.057 1.895 1.171 4.141 1.84 6.563 1.84 7.873 0 12.178-6.25 12.178-11.668 0-.18-.007-.356-.016-.53A8.348 8.348 0 0020.956 2.8z" fill="currentColor"/></svg><svg fill="none" viewBox="0 0 20 19" id="vc" xmlns="http://www.w3.org/2000/svg"><path fill-rule="evenodd" clip-rule="evenodd" d="M15.271.027c-1.539.16-2.956 1.29-3.474 2.77a4.13 4.13 0 00.042 2.922c.996 2.569 4.24 3.522 6.463 1.9.287-.208.852-.788.845-.866-.002-.021-.245-.22-.54-.443l-.538-.404-.298.301c-.597.606-1.594.93-2.414.788-1.353-.236-2.243-1.345-2.243-2.792 0-.878.269-1.555.845-2.127.789-.782 2.002-.989 3.15-.536l.364.143.018.713.017.712h1.399V1.054l-.473-.309c-.87-.568-2.042-.834-3.163-.718zM2.213.88l.017.682.708.017.708.017.088.225c.048.124.594 1.637 1.213 3.362L6.07 8.318h.67l.671.001 1.255-3.348L9.92 1.622l.666-.03.667-.03.017-.682.017-.682H8.872l-.999 2.894C7.324 4.685 6.86 6.006 6.84 6.03c-.02.023-.49-1.28-1.043-2.894L4.79.199H3.493L2.195.198l.017.682zm.597 9.775v.636H4.15v5.395H2.81v1.334h6.22v-1.334H5.606l.019-1.833.018-1.834.2-.405c.109-.222.322-.53.473-.685.31-.317.907-.62 1.278-.649l.244-.018-.022.59-.022.591h1.416v-2.425h-.818c-.927 0-1.35.096-1.86.422-.316.201-.794.66-.976.936l-.108.163-.04-.503c-.02-.276-.039-.618-.039-.76v-.258H2.809v.637zm7.906-.591c-.016.025-.024.332-.02.682l.01.636.588.018.589.017.029 2.165c.032 2.376.055 2.55.425 3.244.434.812 1.188 1.29 2.215 1.405.975.108 2.043-.387 2.526-1.172.084-.137.169-.249.189-.25.02 0 .074.265.122.59l.085.59 1.113.017 1.113.017V16.69l-.534-.017-.533-.018-.016-3.319-.016-3.319h-2.864v1.391l.674.017.674.017-.005 1.83c-.006 1.958-.019 2.06-.335 2.597-.195.33-.647.737-.998.896-.21.096-.406.13-.742.131-.797.003-1.256-.342-1.488-1.117-.083-.28-.098-.728-.098-3.045v-2.717h-1.337c-.736 0-1.35.02-1.366.046zM.017 17.338l.017.712h1.402l.018-.712.017-.712H0l.017.712z" fill="currentColor"/></svg><svg fill="none" viewBox="0 0 20 12" id="vk" xmlns="http://www.w3.org/2000/svg"><path d="M19.894 10.6a1.36 1.36 0 00-.068-.13c-.347-.625-1.01-1.392-1.989-2.301l-.02-.021-.01-.01-.011-.01h-.01c-.445-.424-.726-.71-.844-.855-.216-.278-.264-.559-.146-.844.083-.215.396-.67.937-1.364.285-.367.51-.662.677-.885 1.201-1.596 1.722-2.617 1.562-3.061l-.062-.104c-.042-.062-.15-.12-.323-.172-.174-.052-.396-.06-.666-.026l-3 .021a.389.389 0 00-.208.005l-.135.032-.052.026-.042.031a.463.463 0 00-.114.11.716.716 0 00-.104.181c-.327.84-.698 1.621-1.114 2.343-.257.43-.493.804-.709 1.12a5.387 5.387 0 01-.541.697c-.146.15-.278.27-.396.36-.118.09-.208.128-.27.114a7.733 7.733 0 01-.178-.042.693.693 0 01-.234-.255 1.141 1.141 0 01-.12-.406 4.45 4.45 0 01-.036-.422 8.705 8.705 0 01.005-.5c.007-.215.01-.36.01-.437 0-.264.006-.55.016-.859l.026-.734c.007-.18.01-.371.01-.573 0-.201-.012-.359-.036-.473a1.62 1.62 0 00-.109-.334.561.561 0 00-.213-.25 1.203 1.203 0 00-.35-.14C10.66.348 10.192.303 9.623.296c-1.291-.013-2.12.07-2.489.25-.146.077-.278.18-.396.313-.125.152-.142.236-.052.25.417.062.712.211.885.447l.063.125c.049.09.097.25.146.48.048.228.08.482.093.76.035.506.035.94 0 1.301-.034.361-.067.642-.098.844a1.689 1.689 0 01-.266.718.18.18 0 01-.052.052.78.78 0 01-.281.052c-.098 0-.216-.048-.354-.146a2.499 2.499 0 01-.432-.4 5.36 5.36 0 01-.506-.714A12.448 12.448 0 015.3 3.545l-.166-.302a25.963 25.963 0 01-.427-.849c-.18-.371-.34-.73-.48-1.077a.687.687 0 00-.249-.334l-.052-.03a.713.713 0 00-.167-.09 1.105 1.105 0 00-.24-.067L.668.816c-.292 0-.49.067-.594.199l-.042.062A.337.337 0 000 1.244c0 .076.02.17.063.28.416.98.869 1.924 1.358 2.833.49.91.915 1.642 1.276 2.197.36.556.729 1.08 1.104 1.573.375.493.623.808.744.947.122.14.217.243.287.313l.26.25c.167.166.411.366.734.598.323.233.68.462 1.073.688.392.225.848.41 1.37.551.52.143 1.027.2 1.52.172h1.197c.243-.02.427-.097.552-.229l.041-.052a.687.687 0 00.078-.192c.025-.087.037-.183.037-.287a3.429 3.429 0 01.067-.807c.052-.239.111-.42.178-.541a1.329 1.329 0 01.4-.458.682.682 0 01.084-.037c.166-.055.362-.001.588.162.226.163.438.364.636.604.197.24.435.508.713.807.278.298.52.52.729.666l.208.125c.139.084.32.16.542.23.221.069.416.086.583.051l2.665-.041c.264 0 .469-.044.614-.13.146-.087.233-.183.26-.287a.805.805 0 00.006-.354 1.311 1.311 0 00-.073-.276z" fill="currentColor"/></svg></svg>