<?xml version="1.0" encoding="utf-8"?><svg viewBox="0 0 168 56" xmlns="http://www.w3.org/2000/svg" xmlns:xlink="http://www.w3.org/1999/xlink"><style>:root>svg{display:none}:root>svg:target{display:block}</style><svg fill="none" viewBox="0 0 12 14" id="Calendar" xmlns="http://www.w3.org/2000/svg"><path d="M10.667 1.75h-.584V.583H8.917V1.75H3.083V.583H1.917V1.75h-.584A1.17 1.17 0 00.167 2.917v9.333a1.17 1.17 0 001.166 1.167h9.334a1.17 1.17 0 001.166-1.167V2.917a1.17 1.17 0 00-1.166-1.167zm0 10.5H1.333V4.667h9.334v7.583z" fill="#999"/></svg><svg fill="none" viewBox="0 0 14 10" id="Check" xmlns="http://www.w3.org/2000/svg"><path d="M13.827.247a.592.592 0 00-.832 0L4.666 8.52 1.005 4.91a.592.592 0 00-.833 0 .58.58 0 000 .825l4.08 4.021a.598.598 0 00.833 0l8.742-8.685a.578.578 0 000-.824c-.23-.228.23.227 0 0z" fill="currentColor"/></svg><svg fill="none" viewBox="0 0 148 29" id="High_pass" xmlns="http://www.w3.org/2000/svg"><path d="M0 23V2h5.55v7.8h8.1V2h5.55v21h-5.55v-8.1h-8.1V23H0zM22.486 3.2c0-.72.27-1.32.81-1.8.54-.5 1.22-.75 2.04-.75.82 0 1.5.25 2.04.75.54.48.81 1.08.81 1.8 0 .7-.27 1.3-.81 1.8s-1.22.75-2.04.75c-.82 0-1.5-.25-2.04-.75s-.81-1.1-.81-1.8zm.3 19.8V7.4h5.1V23h-5.1zM32.454 20.63c-1.34-1.48-2.01-3.39-2.01-5.73 0-2.34.67-4.25 2.01-5.73 1.34-1.48 2.97-2.22 4.89-2.22 1.38 0 2.57.4 3.57 1.2.46.36.82.76 1.08 1.2h.3V7.4h5.1v21.3h-14.85v-4.05h9.75V20.6h-.3c-.28.44-.64.82-1.08 1.14-.98.74-2.17 1.11-3.57 1.11-1.92 0-3.55-.74-4.89-2.22zm4.14-8.37c-.6.64-.9 1.52-.9 2.64s.3 2 .9 2.64c.6.64 1.4.96 2.4.96s1.8-.32 2.4-.96c.6-.64.9-1.52.9-2.64s-.3-2-.9-2.64c-.6-.64-1.4-.96-2.4-.96s-1.8.32-2.4.96zM50.38 23V2h5.1v7.5h.3c.28-.48.64-.9 1.08-1.26 1.02-.86 2.21-1.29 3.57-1.29 1.84 0 3.27.56 4.29 1.68 1.04 1.1 1.56 2.69 1.56 4.77V23h-5.1v-8.85c0-.9-.24-1.6-.72-2.1s-1.14-.75-1.98-.75c-.86 0-1.58.32-2.16.96-.56.62-.84 1.45-.84 2.49V23h-5.1zM77.538 28.7V7.4h5.1v2.1h.3c.28-.46.66-.88 1.14-1.26 1.1-.86 2.27-1.29 3.51-1.29 1.92 0 3.55.76 4.89 2.28 1.34 1.5 2.01 3.49 2.01 5.97 0 2.48-.67 4.48-2.01 6-1.34 1.5-2.97 2.25-4.89 2.25-1.26 0-2.43-.42-3.51-1.26a4.61 4.61 0 01-1.14-1.29h-.3v7.8h-5.1zm6-16.38c-.6.68-.9 1.64-.9 2.88s.3 2.2.9 2.88c.6.68 1.4 1.02 2.4 1.02s1.8-.34 2.4-1.02c.6-.68.9-1.64.9-2.88s-.3-2.2-.9-2.88c-.6-.68-1.4-1.02-2.4-1.02s-1.8.34-2.4 1.02zM98.284 21.2c-1.34-1.52-2.01-3.52-2.01-6s.67-4.47 2.01-5.97c1.34-1.52 2.97-2.28 4.89-2.28 1.24 0 2.41.43 3.51 1.29.46.38.84.8 1.14 1.26h.3V7.4h5.1V23h-5.1v-2.1h-.3c-.28.48-.66.91-1.14 1.29-1.08.84-2.25 1.26-3.51 1.26-1.92 0-3.55-.75-4.89-2.25zm4.14-8.88c-.6.68-.9 1.64-.9 2.88s.3 2.2.9 2.88c.6.68 1.4 1.02 2.4 1.02s1.8-.34 2.4-1.02c.6-.68.9-1.64.9-2.88s-.3-2.2-.9-2.88c-.6-.68-1.4-1.02-2.4-1.02s-1.8.34-2.4 1.02zM115.31 17.9h5.1c.08.3.25.58.51.84.54.54 1.32.81 2.34.81 1.4 0 2.1-.35 2.1-1.05 0-.32-.2-.57-.6-.75-.4-.2-1-.4-1.8-.6-.66-.16-1.09-.26-1.29-.3-.2-.04-.62-.15-1.26-.33-.64-.2-1.1-.37-1.38-.51-.26-.16-.63-.38-1.11-.66-.46-.3-.8-.6-1.02-.9-.2-.32-.39-.71-.57-1.17-.18-.48-.27-.99-.27-1.53 0-1.32.59-2.45 1.77-3.39 1.18-.94 2.84-1.41 4.98-1.41 2.68 0 4.8.88 6.36 2.64a6.53 6.53 0 011.29 2.61h-4.95c-.12-.32-.26-.57-.42-.75-.46-.5-1.12-.75-1.98-.75-1.2 0-1.8.35-1.8 1.05 0 .34.2.6.6.78.4.18 1.01.35 1.83.51 2.06.48 3.45.9 4.17 1.26 1.8.88 2.7 2.23 2.7 4.05 0 1.44-.64 2.65-1.92 3.63-1.26.98-3.07 1.47-5.43 1.47-2.9 0-5.11-.92-6.63-2.76a6.113 6.113 0 01-1.32-2.79zM131.951 17.9h5.1c.08.3.25.58.51.84.54.54 1.32.81 2.34.81 1.4 0 2.1-.35 2.1-1.05 0-.32-.2-.57-.6-.75-.4-.2-1-.4-1.8-.6-.66-.16-1.09-.26-1.29-.3-.2-.04-.62-.15-1.26-.33-.64-.2-1.1-.37-1.38-.51-.26-.16-.63-.38-1.11-.66-.46-.3-.8-.6-1.02-.9-.2-.32-.39-.71-.57-1.17-.18-.48-.27-.99-.27-1.53 0-1.32.59-2.45 1.77-3.39 1.18-.94 2.84-1.41 4.98-1.41 2.68 0 4.8.88 6.36 2.64a6.53 6.53 0 011.29 2.61h-4.95c-.12-.32-.26-.57-.42-.75-.46-.5-1.12-.75-1.98-.75-1.2 0-1.8.35-1.8 1.05 0 .34.2.6.6.78.4.18 1.01.35 1.83.51 2.06.48 3.45.9 4.17 1.26 1.8.88 2.7 2.23 2.7 4.05 0 1.44-.64 2.65-1.92 3.63-1.26.98-3.07 1.47-5.43 1.47-2.9 0-5.11-.92-6.63-2.76a6.113 6.113 0 01-1.32-2.79z" fill="#fff"/></svg><svg fill="none" viewBox="0 0 20 20" id="LogIn" xmlns="http://www.w3.org/2000/svg"><path d="M6.224 18.898l.129-.483-.13.483zM4.5 15a.5.5 0 00-1 0h1zm-.398 1.776l.483-.129-.483.13zM6.224 1.102l.129.483-.13-.483zM3.5 5a.5.5 0 001 0h-1zm.602-1.776l-.483-.13.483.13zm14.571 14.138l-.445-.227.445.227zm-1.311 1.311l.227.446-.227-.446zm1.311-16.035l-.445.227.445-.227zm-1.311-1.311l.227-.446-.227.446zm-7.008 4.32a.5.5 0 00-.708.707l.708-.708zM14 10l.354.354a.5.5 0 000-.708L14 10zm-4.354 3.646a.5.5 0 00.708.708l-.708-.708zM1 9.5a.5.5 0 000 1v-1zm17.5-3.7v8.4h1V5.8h-1zM8 1.5h6.2v-1H8v1zm6.2 17H8v1h6.2v-1zm-6.2 0c-.962 0-1.345-.004-1.647-.085l-.259.966c.461.123 1.008.119 1.906.119v-1zM3.5 15c0 .898-.004 1.445.12 1.906l.965-.259c-.08-.302-.085-.685-.085-1.647h-1zm2.853 3.415a2.5 2.5 0 01-1.768-1.768l-.966.259a3.5 3.5 0 002.475 2.475l.259-.966zM8 .5C7.102.5 6.555.496 6.094.62l.259.965C6.655 1.505 7.038 1.5 8 1.5v-1zM4.5 5c0-.962.004-1.345.085-1.647l-.966-.259C3.496 3.555 3.5 4.102 3.5 5h1zM6.094.62A3.5 3.5 0 003.62 3.093l.966.259a2.5 2.5 0 011.768-1.768L6.094.62zM18.5 14.2c0 .848 0 1.455-.04 1.93-.038.469-.11.766-.233 1.005l.892.454c.205-.403.295-.847.338-1.378.043-.525.043-1.18.043-2.011h-1zm-4.3 5.3c.832 0 1.486 0 2.011-.043.531-.043.975-.133 1.378-.338l-.454-.892c-.239.122-.536.195-1.005.234-.475.039-1.082.039-1.93.039v1zm4.027-2.365a2.5 2.5 0 01-1.092 1.092l.454.892a3.5 3.5 0 001.53-1.53l-.892-.454zM19.5 5.8c0-.832 0-1.486-.043-2.011-.043-.531-.133-.975-.338-1.378l-.892.454c.122.239.195.536.234 1.005.039.475.039 1.082.039 1.93h1zm-5.3-4.3c.848 0 1.455 0 1.93.04.469.038.766.11 1.005.232l.454-.89c-.403-.206-.847-.296-1.378-.34C15.686.5 15.031.5 14.2.5v1zm4.919.911a3.5 3.5 0 00-1.53-1.53l-.454.891a2.5 2.5 0 011.092 1.093l.892-.454zM9.646 6.354l4 4 .708-.708-4-4-.708.708zm4 3.292l-4 4 .708.708 4-4-.708-.708zM1 10.5h13v-1H1v1z" fill="#6D7889"/></svg><svg fill="none" viewBox="0 0 152 46" id="app-store" xmlns="http://www.w3.org/2000/svg"><rect width="151.093" height="46" rx="5" fill="currentColor"/><g clip-path="url(#aeclip0_532_5423)"><g clip-path="url(#aeclip1_532_5423)" fill="currentColor"><path d="M25.406 36c-3.87-.022-7.07-7.921-7.07-11.944 0-6.571 4.93-8.01 6.83-8.01.855 0 1.77.336 2.576.634.564.207 1.147.422 1.471.422.195 0 .652-.183 1.056-.343.861-.343 1.933-.769 3.181-.769h.008c.932 0 3.758.205 5.457 2.756l.398.598-.573.432c-.818.618-2.311 1.744-2.311 3.975 0 2.642 1.69 3.658 2.503 4.147.359.216.73.438.73.925 0 .317-2.535 7.138-6.217 7.138-.9 0-1.537-.271-2.099-.51-.568-.242-1.058-.45-1.869-.45-.41 0-.93.194-1.48.4-.75.28-1.6.6-2.565.6h-.026zM33.842 10c.096 3.457-2.377 5.855-4.846 5.705C28.589 12.946 31.465 10 33.842 10z"/></g><path d="M53.719 33.333l4.8-11.28h2.272l4.8 11.28h-2.576L61.99 30.82h-4.736l-1.024 2.512h-2.512zm4.416-4.688h2.976l-1.488-3.632-1.488 3.632zM67.063 35.893V24.757h2.432v1.232c.683-.928 1.574-1.392 2.672-1.392 1.067 0 1.984.4 2.752 1.2.768.8 1.152 1.888 1.152 3.264 0 1.365-.384 2.448-1.152 3.248-.757.789-1.674 1.184-2.752 1.184-1.066 0-1.957-.427-2.672-1.28v3.68h-2.432zm2.992-5.12c.406.437.902.656 1.488.656.587 0 1.083-.219 1.488-.656.406-.448.608-1.03.608-1.744 0-.694-.202-1.259-.608-1.696-.405-.448-.901-.672-1.488-.672-.586 0-1.082.224-1.488.672-.394.437-.592 1.013-.592 1.728 0 .693.198 1.264.592 1.712zM77.86 35.893V24.757h2.432v1.232c.683-.928 1.574-1.392 2.672-1.392 1.067 0 1.984.4 2.752 1.2.768.8 1.152 1.888 1.152 3.264 0 1.365-.384 2.448-1.152 3.248-.757.789-1.674 1.184-2.752 1.184-1.066 0-1.957-.427-2.672-1.28v3.68H77.86zm2.992-5.12c.406.437.902.656 1.488.656.587 0 1.083-.219 1.488-.656.406-.448.608-1.03.608-1.744 0-.694-.202-1.259-.608-1.696-.405-.448-.901-.672-1.488-.672-.586 0-1.082.224-1.488.672-.394.437-.592 1.013-.592 1.728 0 .693.198 1.264.592 1.712zM97.694 33.493c-1.835 0-3.419-.598-4.752-1.792l1.456-1.744c1.099.906 2.213 1.36 3.344 1.36.501 0 .896-.096 1.184-.288a.91.91 0 00.432-.8c0-.32-.15-.576-.448-.768-.299-.203-.901-.422-1.808-.656a14.41 14.41 0 01-1.552-.464 5.643 5.643 0 01-1.136-.624 2.354 2.354 0 01-.784-.96c-.16-.395-.24-.864-.24-1.408 0-1.014.363-1.83 1.088-2.448.736-.619 1.68-.928 2.832-.928 1.59 0 2.976.474 4.16 1.424l-1.28 1.856c-1.056-.736-2.027-1.104-2.912-1.104-.459 0-.816.096-1.072.288a.853.853 0 00-.368.72c0 .362.155.634.464.816.31.181.96.4 1.952.656 1.216.32 2.112.73 2.688 1.232.576.501.864 1.221.864 2.16 0 1.088-.379 1.941-1.136 2.56-.747.608-1.739.912-2.976.912zM106.506 33.477c-.8 0-1.418-.192-1.856-.576-.426-.395-.64-1.062-.64-2v-4.064h-1.024v-2.08h1.024v-2.192h2.432v2.192h2.016v2.08h-2.016V30.5c0 .554.262.832.784.832.427 0 .827-.102 1.2-.304v1.952c-.554.33-1.194.496-1.92.496zM117.537 32.229c-.886.864-1.99 1.296-3.312 1.296-1.323 0-2.427-.427-3.312-1.28-.875-.864-1.312-1.926-1.312-3.184 0-1.248.442-2.304 1.328-3.168.896-.864 2.005-1.296 3.328-1.296 1.322 0 2.421.432 3.296 1.296.885.853 1.328 1.909 1.328 3.168 0 1.248-.448 2.304-1.344 3.168zm-3.28-.8c.672 0 1.21-.224 1.616-.672.405-.459.608-1.024.608-1.696 0-.651-.214-1.206-.64-1.664-.416-.47-.955-.704-1.616-.704-.672 0-1.211.229-1.616.688-.406.448-.608 1.008-.608 1.68 0 .65.208 1.21.624 1.68.426.458.97.688 1.632.688zM120.642 33.333v-8.576h2.432v1.728c.554-1.312 1.466-1.942 2.736-1.888v2.544h-.128c-.832 0-1.478.256-1.936.768-.448.501-.672 1.253-.672 2.256v3.168h-2.432zM131.159 33.525c-1.302 0-2.374-.411-3.216-1.232-.843-.832-1.264-1.91-1.264-3.232 0-1.248.4-2.304 1.2-3.168.8-.864 1.813-1.296 3.04-1.296 1.354 0 2.389.448 3.104 1.344.714.896 1.072 2 1.072 3.312 0 .128-.011.341-.032.64h-5.968c.117.544.357.96.72 1.248.362.288.821.432 1.376.432.757 0 1.45-.294 2.08-.88l1.392 1.232c-.864 1.066-2.032 1.6-3.504 1.6zm-2.096-5.152h3.664c-.075-.555-.272-.998-.592-1.328-.31-.331-.715-.496-1.216-.496-.491 0-.902.165-1.232.496-.32.32-.528.762-.624 1.328zM54 17.206v-.938a3.24 3.24 0 001.964.634c.533 0 .955-.129 1.268-.387.316-.257.474-.604.474-1.04 0-.95-.64-1.423-1.923-1.423h-.767v-.717h.706c.546 0 .969-.119 1.268-.356.302-.237.453-.572.453-1.005 0-.37-.125-.668-.376-.892-.247-.223-.59-.335-1.026-.335-.618 0-1.22.195-1.804.583v-.876c.543-.303 1.169-.454 1.876-.454.701 0 1.253.167 1.655.5.402.333.603.771.603 1.314 0 .96-.467 1.564-1.402 1.815v.02c.509.059.912.25 1.211.573.3.323.449.723.449 1.2 0 .678-.24 1.217-.722 1.62-.48.398-1.139.597-1.974.597s-1.48-.144-1.933-.433zM63.84 17.515h-.845v-.824h-.02c-.369.632-.91.948-1.625.948-.525 0-.938-.139-1.237-.417-.295-.279-.443-.648-.443-1.109 0-.986.58-1.56 1.742-1.721l1.583-.222c0-.897-.363-1.345-1.088-1.345-.635 0-1.21.216-1.721.65v-.867c.519-.33 1.116-.495 1.793-.495 1.24 0 1.861.657 1.861 1.97v3.432zm-.845-2.67l-1.273.176c-.392.055-.688.152-.887.293-.2.138-.299.384-.299.738 0 .257.091.469.273.634.186.161.432.242.737.242.42 0 .765-.146 1.037-.438.274-.296.412-.669.412-1.119v-.526z" fill="currentColor"/><path d="M68.366 12.959h-2.088v4.556h-.845v-5.278h2.933v.722z" fill="#currentColor"/><path d="M70.34 16.753h-.02v3.19h-.846v-7.706h.846v.928h.02c.416-.701 1.024-1.052 1.825-1.052.68 0 1.211.238 1.593.712.381.47.572 1.103.572 1.897 0 .883-.215 1.59-.644 2.123-.43.53-1.018.794-1.763.794-.684 0-1.212-.295-1.583-.886zm-.02-2.13v.738c0 .436.14.807.422 1.113.285.303.646.454 1.083.454.512 0 .912-.196 1.2-.588.293-.392.439-.936.439-1.634 0-.587-.136-1.048-.407-1.381-.272-.334-.64-.5-1.103-.5-.492 0-.887.172-1.186.515-.299.34-.448.768-.448 1.284zM79.881 12.237l-2.427 6.124C77.02 19.454 76.412 20 75.629 20c-.22 0-.404-.022-.552-.067v-.758c.183.062.35.093.5.093.426 0 .746-.254.96-.763l.422-1-2.062-5.268h.938l1.428 4.062c.017.052.053.186.108.402h.031a5.96 5.96 0 01.103-.392l1.5-4.072h.876zM80.35 17.366v-.83c.461.258.999.387 1.614.387.931 0 1.397-.296 1.397-.887 0-.584-.51-.876-1.531-.876h-.52v-.717h.494c.897 0 1.346-.278 1.346-.835a.655.655 0 00-.31-.567c-.206-.14-.488-.211-.845-.211-.512 0-1.026.129-1.541.386v-.788c.584-.213 1.12-.32 1.608-.32 1.285 0 1.928.473 1.928 1.418 0 .306-.096.57-.289.794-.189.22-.455.366-.799.438v.026c.392.03.706.163.943.396.237.234.356.53.356.887 0 .481-.194.864-.582 1.15-.389.285-.923.427-1.603.427-.726 0-1.28-.092-1.666-.278zM89.928 17.515h-.763v-4.21c-.076.147-.19.355-.345.623l-2.439 3.587h-.876v-5.278h.773v4.16c.042-.1.13-.27.268-.51l2.505-3.65h.877v5.278z" fill="currentColor"/><path d="M94.954 12.959H93.37v4.556h-.845V12.96h-1.588v-.722h4.016v.722z" fill="#currentColor"/><path d="M100.211 15.088h-3.727c.014.587.172 1.04.475 1.36.302.32.718.48 1.247.48.595 0 1.141-.196 1.64-.588v.794c-.465.337-1.078.505-1.84.505-.746 0-1.332-.239-1.759-.716-.426-.481-.639-1.157-.639-2.026 0-.821.232-1.49.696-2.005a2.244 2.244 0 011.737-.779c.691 0 1.225.224 1.603.67.378.447.567 1.068.567 1.861v.444zm-.866-.717c-.003-.488-.122-.868-.355-1.139-.23-.271-.552-.407-.964-.407-.399 0-.737.142-1.016.428-.278.285-.45.658-.515 1.118h2.85zM104.392 17.515v-5.278h2.299c.519 0 .928.115 1.227.345.302.23.453.545.453.944 0 .684-.337 1.1-1.01 1.247.807.103 1.211.51 1.211 1.222 0 .43-.166.79-.5 1.082-.33.292-.74.438-1.232.438h-2.448zm.845-4.556v1.484h1.268c.681 0 1.021-.264 1.021-.793 0-.461-.306-.691-.918-.691h-1.371zm0 2.206v1.629h1.464c.684 0 1.026-.277 1.026-.83 0-.533-.383-.8-1.15-.8h-1.34z" fill="currentColor"/></g><defs><clipPath id="aeclip0_532_5423"><path fill="currentColor" transform="translate(16 10)" d="M0 0h119.093v26H0z"/></clipPath><clipPath id="aeclip1_532_5423"><path fill="currentColor" transform="translate(16 10)" d="M0 0h26v26H0z"/></clipPath></defs></svg><svg fill="none" viewBox="0 0 10 6" id="arrow-bottom" xmlns="http://www.w3.org/2000/svg"><path d="M5.274 5.287L9.887.66a.388.388 0 00-.55-.547L5 4.464.662.114A.388.388 0 10.113.66l4.613 4.626a.387.387 0 00.548 0z" fill="#1D252C"/></svg><svg fill="none" viewBox="0 0 4 8" id="arrow-left" xmlns="http://www.w3.org/2000/svg"><path d="M.518 4L3.937.387a.235.235 0 000-.32.206.206 0 00-.303 0L.064 3.84a.235.235 0 000 .32l3.57 3.772a.204.204 0 00.301 0 .235.235 0 000-.32L.518 4z" fill="currentColor"/></svg><svg fill="none" viewBox="0 0 6 13" id="arrow-right" xmlns="http://www.w3.org/2000/svg"><path d="M5.168 6.5L.094 1.08a.355.355 0 010-.48.303.303 0 01.45 0l5.3 5.66a.355.355 0 010 .481L.544 12.4a.31.31 0 01-.224.101.3.3 0 01-.224-.1.355.355 0 010-.48L5.168 6.5z" fill="currentColor"/></svg><svg fill="none" viewBox="0 0 24 40" id="change-btn" xmlns="http://www.w3.org/2000/svg"><g clip-path="url(#aiclip0_101_12343)"><path d="M23.841 11.615l-5.454-5.454a.545.545 0 10-.77.769l4.523 4.527H.545a.546.546 0 000 1.091H22.14l-4.522 4.522a.545.545 0 10.769.769l5.454-5.455a.545.545 0 000-.769z" fill="currentColor"/></g><g clip-path="url(#aiclip1_101_12343)"><path d="M.159 27.615l5.454-5.454a.545.545 0 11.77.769L1.86 27.457h21.595a.546.546 0 010 1.091H1.86l4.522 4.522a.545.545 0 11-.769.769L.159 28.384a.545.545 0 010-.769z" fill="currentColor"/></g><defs><clipPath id="aiclip0_101_12343"><path fill="#fff" d="M0 0h24v24H0z"/></clipPath><clipPath id="aiclip1_101_12343"><path fill="#fff" transform="matrix(-1 0 0 1 24 16)" d="M0 0h24v24H0z"/></clipPath></defs></svg><svg fill="none" viewBox="0 0 13 20" id="classmates" xmlns="http://www.w3.org/2000/svg"><path d="M5.58 14.088c-1.55-.162-2.948-.544-4.145-1.48-.148-.116-.301-.229-.437-.359-.524-.503-.577-1.079-.162-1.673.355-.508.95-.644 1.569-.352.12.056.234.127.343.203 2.23 1.533 5.295 1.575 7.534.069.222-.17.459-.309.734-.38.534-.137 1.032.06 1.319.527.328.534.323 1.055-.08 1.47-.62.635-1.364 1.095-2.191 1.416-.783.303-1.64.456-2.488.557.128.14.189.208.269.288 1.151 1.157 2.308 2.31 3.456 3.47.39.396.473.886.257 1.346-.235.503-.762.833-1.28.798-.326-.023-.582-.186-.809-.414-.869-.875-1.754-1.733-2.606-2.624-.247-.26-.367-.21-.585.015-.875.9-1.763 1.786-2.657 2.667-.401.396-.879.467-1.344.241-.495-.24-.81-.745-.786-1.252.017-.343.186-.606.422-.84 1.14-1.139 2.276-2.28 3.413-3.42.075-.076.145-.156.255-.273z" fill="currentColor"/><path d="M6.525 10.123c-2.766-.01-5.034-2.302-5.018-5.073A5.07 5.07 0 016.586 0c2.799.008 5.045 2.297 5.031 5.127-.014 2.765-2.298 5.006-5.092 4.996zm2.514-5.066a2.465 2.465 0 00-2.473-2.472 2.469 2.469 0 00-2.48 2.502A2.465 2.465 0 006.578 7.54a2.46 2.46 0 002.46-2.483z" fill="currentColor"/></svg><svg fill="none" viewBox="0 0 14 14" id="close" xmlns="http://www.w3.org/2000/svg"><path d="M7.384 7.614L13.842.953a.57.57 0 00-.001-.79.532.532 0 00-.768.001L7 6.43.927.164A.532.532 0 00.16.163.565.565 0 000 .558c0 .143.053.286.158.395l6.458 6.66a.534.534 0 00.768 0z" fill="currentColor"/><path d="M7.384 6.386l6.458 6.661a.57.57 0 01-.001.79.532.532 0 01-.768-.001L7 7.57.927 13.836a.532.532 0 01-.767.001.565.565 0 01-.16-.395c0-.143.053-.286.158-.395l6.458-6.66a.534.534 0 01.768 0z" fill="currentColor"/></svg><svg fill="none" viewBox="0 0 54 54" id="coins" xmlns="http://www.w3.org/2000/svg"><path d="M27 40.71a1.055 1.055 0 100 2.111 1.055 1.055 0 000-2.11z" fill="#1D252C"/><path d="M49.474 6.473c-2.595-1.046-5.97-1.621-9.501-1.621-3.532 0-6.906.575-9.502 1.62-1.533.618-2.704 1.373-3.471 2.22-.767-.847-1.938-1.602-3.471-2.22-2.596-1.045-5.97-1.62-9.502-1.62-3.531 0-6.906.575-9.501 1.62C1.607 7.649 0 9.32 0 11.18v25.312c0 1.86 1.607 3.532 4.526 4.707 2.414.973 5.502 1.538 8.763 1.612v.01c0 3.607 5.894 6.327 13.711 6.327 7.816 0 13.71-2.72 13.71-6.328v-.009c3.262-.074 6.35-.64 8.764-1.612C52.393 40.024 54 38.352 54 36.492V11.18c0-1.86-1.607-3.532-4.526-4.707zm2.417 23.691c0 .9-1.228 1.954-3.205 2.75-2.14.862-5.012 1.383-7.975 1.458v-4.208-.009c3.261-.074 6.35-.64 8.763-1.612.948-.382 1.756-.816 2.417-1.291v2.912zM25.945 17.508c0 .9-1.228 1.954-3.204 2.75-2.317.933-5.493 1.469-8.714 1.469-3.22 0-6.396-.536-8.713-1.469-1.977-.796-3.205-1.85-3.205-2.75v-2.913c.661.476 1.47.91 2.417 1.292 2.595 1.045 5.97 1.62 9.501 1.62 3.532 0 6.906-.575 9.502-1.62.947-.382 1.755-.816 2.416-1.292v2.913zM4.526 22.215c2.595 1.045 5.97 1.62 9.501 1.62 3.532 0 6.906-.575 9.502-1.62.947-.382 1.755-.816 2.416-1.291v2.93c-2.728.093-5.345.54-7.461 1.286-2.123.748-3.65 1.745-4.481 2.914-3.212-.002-6.378-.537-8.689-1.468-1.977-.796-3.205-1.85-3.205-2.75v-2.912c.661.475 1.47.91 2.417 1.29zm-2.417 5.037c.661.475 1.47.91 2.417 1.291 2.414.972 5.502 1.538 8.763 1.612v4.217c-2.963-.075-5.835-.596-7.975-1.458-1.977-.796-3.205-1.85-3.205-2.75v-2.912zm13.401 2.394c.782-1.82 5.293-3.7 11.49-3.7s10.708 1.88 11.49 3.698c.075.177.112.347.112.52 0 .927-1.144 1.957-3.058 2.755-2.265.944-5.3 1.464-8.544 1.464-3.244 0-6.279-.52-8.544-1.464-1.914-.798-3.058-1.828-3.058-2.755 0-.173.037-.343.112-.518zm36.38-5.81c0 .9-1.227 1.954-3.204 2.75-2.31.931-5.476 1.466-8.688 1.468-.83-1.168-2.358-2.166-4.482-2.914-2.116-.745-4.733-1.193-7.461-1.285v-2.931c.66.475 1.469.91 2.416 1.29 2.596 1.046 5.97 1.622 9.502 1.622 3.531 0 6.906-.576 9.501-1.621.947-.382 1.756-.816 2.417-1.291v2.912zm0-6.328c0 .9-1.227 1.954-3.204 2.75-2.317.933-5.493 1.469-8.713 1.469-3.22 0-6.397-.536-8.714-1.469-1.976-.796-3.204-1.85-3.204-2.75v-2.913c.66.476 1.469.91 2.416 1.292 2.596 1.045 5.97 1.62 9.502 1.62 3.531 0 6.906-.575 9.501-1.62.947-.382 1.756-.816 2.417-1.292v2.913zM31.26 8.429c2.316-.933 5.492-1.468 8.713-1.468 3.22 0 6.396.535 8.713 1.468 1.977.796 3.205 1.85 3.205 2.75 0 .901-1.228 1.955-3.205 2.751-2.317.933-5.493 1.468-8.713 1.468-3.22 0-6.397-.535-8.714-1.468-1.976-.796-3.204-1.85-3.204-2.75 0-.9 1.228-1.955 3.204-2.75zm-25.946 0c2.317-.933 5.493-1.468 8.713-1.468 3.22 0 6.397.535 8.714 1.468 1.976.796 3.204 1.85 3.204 2.75 0 .901-1.228 1.955-3.204 2.751-2.317.933-5.493 1.468-8.714 1.468-3.22 0-6.396-.535-8.713-1.468-1.977-.796-3.205-1.85-3.205-2.75 0-.9 1.228-1.955 3.205-2.75zm0 30.814c-1.977-.797-3.205-1.85-3.205-2.75V33.58c.661.475 1.47.91 2.417 1.291 2.414.972 5.502 1.538 8.763 1.612v4.218c-2.963-.075-5.836-.597-7.975-1.458zm30.23 6.332c-2.265.944-5.3 1.464-8.544 1.464-3.244 0-6.279-.52-8.544-1.464-1.914-.797-3.058-1.827-3.058-2.755v-2.85c.24.172.503.344.796.513 1.638.948 3.866 1.65 6.445 2.028a1.055 1.055 0 00.306-2.087c-4.902-.72-7.547-2.563-7.547-3.932v-2.86C17.786 35.379 22 36.492 27 36.492c5 0 9.214-1.113 11.602-2.86v2.86c0 1.37-2.645 3.212-7.547 3.932a1.055 1.055 0 10.306 2.087c2.579-.379 4.807-1.08 6.445-2.028a9.28 9.28 0 00.796-.514v2.851c0 .928-1.144 1.958-3.058 2.755zm13.142-6.332c-2.14.861-5.012 1.383-7.975 1.457v-4.217c3.261-.074 6.35-.64 8.763-1.612.947-.382 1.756-.816 2.417-1.291v2.912c0 .9-1.228 1.954-3.205 2.75z" fill="#1D252C"/></svg><svg fill="none" viewBox="0 0 55 55" id="contract" xmlns="http://www.w3.org/2000/svg"><g clip-path="url(#amclip0_101_785)" fill="#1D252C"><path d="M7.489 49.377h28.8v3.6a1.8 1.8 0 002.721 1.544l2.679-1.608 2.678 1.605a1.8 1.8 0 002.722-1.54V42.035a3.619 3.619 0 002.003-2.927l.036-.45c.029-.373.176-.727.42-1.01l.288-.342a3.576 3.576 0 000-4.644l-.298-.355c-.24-.28-.383-.63-.41-.997l-.037-.45a3.578 3.578 0 00-3.281-3.286l-.45-.036a1.768 1.768 0 01-1.013-.43l-.338-.283a3.427 3.427 0 00-1.42-.7V3.479a2.7 2.7 0 00-2.7-2.7h-25.2c-.019 0-.036.01-.053.01a1.14 1.14 0 00-.32.08.915.915 0 00-.264.18l-9 9a.89.89 0 00-.18.263c-.012.027-.02.056-.03.084a.901.901 0 00-.046.233c0 .02-.01.037-.01.056v35.993a2.7 2.7 0 002.703 2.7zm35.129 1.996a1.779 1.779 0 00-1.85-.004l-2.68 1.608v-10.53c.108.016.214.042.317.077.053.017.108.022.159.044.162.068.313.159.45.27l.348.302a3.561 3.561 0 004.649-.005l.326-.283c.141-.117.3-.213.469-.284.052-.018.105-.033.16-.045.105-.035.213-.06.323-.076v10.53l-2.672-1.603zm.565-22.887c.57.492 1.282.79 2.033.851l.45.036a1.78 1.78 0 011.632 1.636l.036.45a3.54 3.54 0 00.835 2.024l.29.345c.571.668.571 1.651 0 2.319l-.277.329a3.547 3.547 0 00-.85 2.037l-.035.445c-.061.76-.592 1.399-1.327 1.6-.1.025-.202.04-.304.047l-.45.036a3.626 3.626 0 00-2.04.847l-.335.292c-.66.568-1.636.57-2.298.005l-.36-.31a3.61 3.61 0 00-2.023-.834l-.47-.037a1.394 1.394 0 01-.197-.032.95.95 0 00-.076-.035 1.814 1.814 0 01-1.339-1.59l-.02-.253-.016-.204a3.553 3.553 0 00-.84-2.027l-.29-.344a1.743 1.743 0 010-2.29l.278-.329c.492-.572.79-1.286.85-2.038l.036-.45a1.78 1.78 0 011.63-1.637l.45-.036a3.552 3.552 0 002.028-.846l.346-.292a1.785 1.785 0 012.31 0l.343.285zM40.789 3.478v22.56a3.56 3.56 0 00-1.416.736l-.347.291a1.767 1.767 0 01-1.01.427l-.45.036a3.583 3.583 0 00-3.28 3.293l-.035.45a1.76 1.76 0 01-.42 1.015l-.287.34a3.634 3.634 0 000 4.687l.299.354c.239.28.382.63.41.997l.02.251.014.174v.028c0 .042.015.082.02.123.016.119.032.236.058.35.026.115.062.227.098.338.012.037.023.076.038.113.047.13.103.258.166.382l.011.022a3.613 3.613 0 001.61 1.587v5.546h-28.8a.9.9 0 01-.9-.9v-35.1h6.3a2.7 2.7 0 002.7-2.7v-6.3h24.3a.9.9 0 01.9.9zm-27 .372v5.027a.9.9 0 01-.9.9H7.86L13.79 3.85z"/><path fill-rule="evenodd" clip-rule="evenodd" d="M11.09 16.077a.9.9 0 000 1.8h25.2a.9.9 0 100-1.8h-25.2zM28.19 34.078h-17.1a.9.9 0 000 1.8h17.1a.9.9 0 000-1.8zM36.289 20.578h-4.5a.9.9 0 100 1.8h4.5a.9.9 0 100-1.8zM11.09 22.378h16.2a.9.9 0 100-1.8h-16.2a.9.9 0 000 1.8zM16.49 38.577h-5.4a.9.9 0 000 1.8h5.4a.9.9 0 000-1.8zM11.09 26.877h4.5a.9.9 0 100-1.8h-4.5a.9.9 0 000 1.8zM32.69 25.077h-12.6a.9.9 0 100 1.8h12.6a.9.9 0 100-1.8zM11.09 31.377h2.7a.9.9 0 100-1.8h-2.7a.9.9 0 000 1.8zM29.089 29.577h-10.8a.9.9 0 100 1.8h10.8a.9.9 0 100-1.8z"/></g><defs><clipPath id="amclip0_101_785"><path fill="#fff" transform="translate(.777 .777)" d="M0 0h54v54H0z"/></clipPath></defs></svg><svg fill="none" viewBox="0 0 54 54" id="contract-2" xmlns="http://www.w3.org/2000/svg"><path d="M45.8 0H12.13a1.06 1.06 0 00-1.06 1.06v3.577H8.2a1.06 1.06 0 00-1.06 1.06V52.94c0 .586.475 1.06 1.06 1.06h33.121a1.06 1.06 0 001.06-1.06V50.15h3.42a1.06 1.06 0 001.06-1.06V1.06A1.06 1.06 0 0045.8 0zm-1.059 48.03h-2.36V5.697a1.06 1.06 0 00-1.06-1.06H29.807a1.06 1.06 0 000 2.12h10.455V51.88H9.26V6.757h11.007a1.06 1.06 0 100-2.12h-7.079V2.12h31.553v45.91z" fill="#1D252C"/><path d="M12.167 16.05c0 .586.475 1.06 1.06 1.06h20.515a1.06 1.06 0 000-2.12H13.227a1.06 1.06 0 00-1.06 1.06zM13.227 21.348h20.516a1.06 1.06 0 000-2.119H13.227a1.06 1.06 0 000 2.12zM13.227 25.587h20.516a1.06 1.06 0 000-2.12H13.227a1.06 1.06 0 000 2.12zM13.227 29.825h20.516a1.06 1.06 0 000-2.119H13.227a1.06 1.06 0 000 2.12zM22.58 31.945h-9.353a1.06 1.06 0 000 2.119h9.353a1.06 1.06 0 000-2.12zM22.58 36.183h-9.353a1.06 1.06 0 000 2.12h9.353a1.06 1.06 0 100-2.12zM27.446 36.782c0 1.412.608 2.684 1.576 3.57l-1.555 7.785c-.115.693.52 1.527 1.442 1.188l3.377-1.39 3.375 1.373c.65.281 1.625-.3 1.434-1.214l-1.715-7.6a4.828 4.828 0 001.74-3.712 4.843 4.843 0 00-4.837-4.837 4.843 4.843 0 00-4.837 4.837zm5.237 9.026a1.06 1.06 0 00-.803.002l-1.947.801 1.034-5.176a4.819 4.819 0 002.462.046l1.151 5.1-1.897-.773zm-.4-6.308c-1.498-.016-2.717-1.22-2.717-2.718a2.721 2.721 0 012.717-2.718 2.721 2.721 0 012.718 2.718s-.082 2.746-2.718 2.718zM25.02 6.752a1.055 1.055 0 100-2.11 1.055 1.055 0 000 2.11z" fill="#1D252C"/></svg><svg fill="none" viewBox="0 0 54 54" id="document" xmlns="http://www.w3.org/2000/svg"><g clip-path="url(#aoclip0_101_804)" fill="#1D252C"><path d="M8.082 48.6h2.7v2.7a2.7 2.7 0 002.7 2.7h32.4a2.7 2.7 0 002.7-2.7V8.1a2.7 2.7 0 00-2.7-2.7h-2.7V2.7a2.7 2.7 0 00-2.7-2.7h-25.2c-.018 0-.036.01-.055.01a.914.914 0 00-.234.048c-.028.01-.055.017-.082.03a.875.875 0 00-.265.18l-9 9a.9.9 0 00-.18.263c-.013.028-.02.056-.03.085a.853.853 0 00-.046.23c0 .02-.011.038-.011.058V45.9a2.7 2.7 0 002.703 2.7zm37.8-41.4a.9.9 0 01.9.9v43.2a.9.9 0 01-.9.9h-32.4a.9.9 0 01-.9-.9v-2.7h27.9a2.7 2.7 0 002.7-2.7V7.2h2.7zm-4.5-4.5v43.2a.9.9 0 01-.9.9h-32.4a.9.9 0 01-.9-.9V10.8h6.3a2.7 2.7 0 002.7-2.7V1.8h24.3a.9.9 0 01.9.9zm-27 .373V8.1a.9.9 0 01-.9.9H8.456l5.928-5.927z"/><path fill-rule="evenodd" clip-rule="evenodd" d="M11.683 15.3a.9.9 0 000 1.8h25.2a.9.9 0 100-1.8h-25.2zM36.883 33.3h-25.2a.9.9 0 000 1.8h25.2a.9.9 0 100-1.8zM36.882 19.8h-4.5a.9.9 0 100 1.8h4.5a.9.9 0 100-1.8zM28.783 20.7a.9.9 0 00-.9-.9h-16.2a.9.9 0 000 1.8h16.2a.9.9 0 00.9-.9zM17.083 37.8h-5.4a.9.9 0 000 1.8h5.4a.9.9 0 000-1.8zM11.683 26.1h4.5a.9.9 0 100-1.8h-4.5a.9.9 0 000 1.8zM36.883 24.3h-16.2a.9.9 0 100 1.8h16.2a.9.9 0 100-1.8zM11.683 30.6h2.7a.9.9 0 100-1.8h-2.7a.9.9 0 000 1.8zM18.883 30.6h10.8a.9.9 0 100-1.8h-10.8a.9.9 0 100 1.8zM36.883 28.8h-2.7a.9.9 0 100 1.8h2.7a.9.9 0 100-1.8z"/></g><defs><clipPath id="aoclip0_101_804"><path fill="#fff" d="M0 0h54v54H0z"/></clipPath></defs></svg><svg fill="none" viewBox="0 0 11 20" id="fb" xmlns="http://www.w3.org/2000/svg"><path d="M10.478.004L7.884 0C4.971 0 3.088 1.932 3.088 4.922v2.27H.48a.408.408 0 00-.408.407v3.288c0 .226.183.408.408.408h2.608v8.297c0 .226.182.408.408.408h3.402a.408.408 0 00.408-.408v-8.297h3.049a.408.408 0 00.407-.408l.002-3.288a.408.408 0 00-.408-.408h-3.05V5.268c0-.925.22-1.394 1.424-1.394l1.748-.001a.408.408 0 00.407-.408V.412a.408.408 0 00-.407-.408z" fill="currentColor"/></svg><svg fill="none" viewBox="0 0 168 46" id="google-play" xmlns="http://www.w3.org/2000/svg"><rect width="167.392" height="46" rx="5" fill="currentColor"/><path d="M60.068 33.524c-1.739 0-3.158-.544-4.256-1.632-1.088-1.088-1.632-2.474-1.632-4.16 0-1.61.56-2.976 1.68-4.096 1.12-1.13 2.517-1.696 4.192-1.696.97 0 1.792.128 2.464.384.672.246 1.317.63 1.936 1.152L62.9 25.348c-.47-.394-.923-.682-1.36-.864-.438-.181-.96-.272-1.568-.272-.896 0-1.659.347-2.288 1.04-.619.683-.928 1.51-.928 2.48 0 1.024.314 1.872.944 2.544.64.672 1.456 1.008 2.448 1.008.917 0 1.69-.224 2.32-.672v-1.6h-2.48v-2.128h4.864v4.864c-1.398 1.184-2.992 1.776-4.784 1.776zM74.487 32.228c-.886.864-1.99 1.296-3.312 1.296-1.323 0-2.427-.426-3.312-1.28-.875-.864-1.312-1.925-1.312-3.184 0-1.248.442-2.304 1.328-3.168.896-.864 2.005-1.296 3.328-1.296 1.322 0 2.42.432 3.296 1.296.885.854 1.328 1.91 1.328 3.168 0 1.248-.448 2.304-1.344 3.168zm-3.28-.8c.672 0 1.21-.224 1.616-.672.405-.458.608-1.024.608-1.696 0-.65-.214-1.205-.64-1.664-.416-.469-.955-.704-1.616-.704-.672 0-1.211.23-1.616.688-.406.448-.608 1.008-.608 1.68 0 .651.208 1.211.624 1.68.426.459.97.688 1.632.688zM85.112 32.228c-.886.864-1.99 1.296-3.312 1.296-1.323 0-2.427-.426-3.312-1.28-.875-.864-1.312-1.925-1.312-3.184 0-1.248.442-2.304 1.328-3.168.896-.864 2.005-1.296 3.328-1.296 1.322 0 2.42.432 3.296 1.296.885.854 1.328 1.91 1.328 3.168 0 1.248-.448 2.304-1.344 3.168zm-3.28-.8c.672 0 1.21-.224 1.616-.672.405-.458.608-1.024.608-1.696 0-.65-.214-1.205-.64-1.664-.416-.469-.955-.704-1.616-.704-.672 0-1.211.23-1.616.688-.406.448-.608 1.008-.608 1.68 0 .651.208 1.211.624 1.68.426.459.97.688 1.632.688zM92.057 35.924c-1.398 0-2.662-.298-3.792-.896l.832-1.824c.928.523 1.893.784 2.896.784 1.632 0 2.448-.778 2.448-2.336v-.416c-.384.47-.795.822-1.232 1.056-.427.224-.95.336-1.568.336-1.056 0-1.958-.362-2.704-1.088-.736-.725-1.104-1.706-1.104-2.944 0-1.226.373-2.197 1.12-2.912a3.72 3.72 0 012.688-1.088c1.066 0 1.989.427 2.768 1.28v-1.12h2.432v6.64c0 1.526-.363 2.651-1.088 3.376-.768.768-2 1.152-3.696 1.152zm-1.2-5.856c.394.363.89.544 1.488.544.597 0 1.093-.186 1.488-.56.405-.373.608-.858.608-1.456 0-.576-.203-1.05-.608-1.424-.395-.373-.891-.56-1.488-.56-.598 0-1.094.187-1.488.56-.395.374-.592.859-.592 1.456 0 .587.197 1.067.592 1.44zM99.125 33.332v-11.68h2.432v11.68h-2.432zM107.906 33.524c-1.302 0-2.374-.41-3.216-1.232-.843-.832-1.264-1.909-1.264-3.232 0-1.248.4-2.304 1.2-3.168.8-.864 1.813-1.296 3.04-1.296 1.354 0 2.389.448 3.104 1.344.714.896 1.072 2 1.072 3.312 0 .128-.011.342-.032.64h-5.968c.117.544.357.96.72 1.248.362.288.821.432 1.376.432.757 0 1.45-.293 2.08-.88l1.392 1.232c-.864 1.067-2.032 1.6-3.504 1.6zm-2.096-5.152h3.664c-.075-.554-.272-.997-.592-1.328-.31-.33-.715-.496-1.216-.496-.491 0-.902.166-1.232.496-.32.32-.528.763-.624 1.328zM118.451 35.892V24.756h2.432v1.232c.683-.928 1.573-1.392 2.672-1.392 1.067 0 1.984.4 2.752 1.2.768.8 1.152 1.888 1.152 3.264 0 1.366-.384 2.448-1.152 3.248-.757.79-1.675 1.184-2.752 1.184-1.067 0-1.957-.426-2.672-1.28v3.68h-2.432zm2.992-5.12a1.95 1.95 0 001.488.656 1.95 1.95 0 001.488-.656c.405-.448.608-1.029.608-1.744 0-.693-.203-1.258-.608-1.696-.405-.448-.901-.672-1.488-.672s-1.083.224-1.488.672c-.395.438-.592 1.014-.592 1.728 0 .694.197 1.264.592 1.712zM129.36 33.332v-11.68h2.432v11.68h-2.432zM136.508 33.492c-.843 0-1.547-.234-2.112-.704-.555-.469-.832-1.12-.832-1.952 0-.906.309-1.589.928-2.048.629-.458 1.472-.688 2.528-.688.715 0 1.413.118 2.096.352v-.144c0-1.045-.613-1.568-1.84-1.568-.736 0-1.525.155-2.368.464l-.608-1.856a8.193 8.193 0 013.328-.688c1.291 0 2.256.32 2.896.96.619.619.928 1.531.928 2.736v4.976H139.1v-.928c-.651.726-1.515 1.088-2.592 1.088zm.736-1.68c.565 0 1.024-.138 1.376-.416.352-.288.528-.65.528-1.088v-.432a3.64 3.64 0 00-1.552-.32c-.533 0-.949.107-1.248.32-.288.203-.432.502-.432.896 0 .32.123.576.368.768.245.182.565.272.96.272zM145.28 35.94a4.194 4.194 0 01-2.16-.592l.816-1.76c.374.224.72.336 1.04.336.384 0 .667-.186.848-.56l-3.36-8.608h2.576l1.952 5.84 1.872-5.84h2.528l-3.296 8.784c-.33.886-.704 1.504-1.12 1.856-.416.363-.981.544-1.696.544zM54 17.206v-.938a3.24 3.24 0 001.964.634c.533 0 .955-.129 1.268-.387.316-.257.474-.604.474-1.04 0-.95-.64-1.423-1.923-1.423h-.767v-.717h.706c.546 0 .969-.119 1.268-.356.302-.237.453-.572.453-1.005 0-.37-.125-.668-.376-.892-.247-.223-.59-.335-1.026-.335-.618 0-1.22.195-1.804.583v-.876c.543-.303 1.169-.454 1.876-.454.701 0 1.253.167 1.655.5.402.333.603.771.603 1.314 0 .96-.467 1.564-1.402 1.815v.02c.509.059.912.25 1.211.573.3.323.449.723.449 1.2 0 .678-.24 1.217-.722 1.62-.48.398-1.139.597-1.974.597s-1.48-.144-1.933-.433zM63.84 17.515h-.845v-.824h-.02c-.369.632-.91.948-1.625.948-.525 0-.938-.139-1.237-.417-.295-.279-.443-.648-.443-1.109 0-.986.58-1.56 1.742-1.721l1.583-.222c0-.897-.363-1.345-1.088-1.345-.635 0-1.21.216-1.721.65v-.867c.519-.33 1.116-.495 1.793-.495 1.24 0 1.861.657 1.861 1.97v3.432zm-.845-2.67l-1.273.176c-.392.055-.688.152-.887.293-.2.138-.299.384-.299.738 0 .257.091.469.273.634.186.161.432.242.737.242.42 0 .765-.146 1.037-.438.274-.296.412-.669.412-1.119v-.526zM68.366 12.959h-2.088v4.556h-.845v-5.278h2.933v.722zM70.34 16.753h-.02v3.19h-.846v-7.706h.846v.928h.02c.416-.701 1.024-1.052 1.825-1.052.68 0 1.211.238 1.593.712.381.47.572 1.103.572 1.897 0 .883-.215 1.59-.644 2.123-.43.53-1.018.794-1.763.794-.684 0-1.212-.295-1.583-.886zm-.02-2.13v.738c0 .436.14.807.422 1.113.285.303.646.454 1.083.454.512 0 .912-.196 1.2-.588.293-.392.439-.936.439-1.634 0-.587-.136-1.048-.407-1.381-.272-.334-.64-.5-1.103-.5-.492 0-.887.172-1.186.515-.299.34-.448.768-.448 1.284zM79.881 12.237l-2.427 6.124C77.02 19.454 76.412 20 75.629 20c-.22 0-.404-.022-.552-.067v-.758c.183.062.35.093.5.093.426 0 .746-.254.96-.763l.422-1-2.062-5.268h.938l1.428 4.062c.017.052.053.186.108.402h.031a5.96 5.96 0 01.103-.392l1.5-4.072h.876zM80.35 17.366v-.83c.461.258.999.387 1.614.387.931 0 1.397-.296 1.397-.887 0-.584-.51-.876-1.531-.876h-.52v-.717h.494c.897 0 1.346-.278 1.346-.835a.655.655 0 00-.31-.567c-.206-.14-.488-.211-.845-.211-.512 0-1.026.129-1.541.386v-.788c.584-.213 1.12-.32 1.608-.32 1.285 0 1.928.473 1.928 1.418 0 .306-.096.57-.289.794-.189.22-.455.366-.799.438v.026c.392.03.706.163.943.396.237.234.356.53.356.887 0 .481-.194.864-.582 1.15-.389.285-.923.427-1.603.427-.726 0-1.28-.092-1.666-.278zM89.928 17.515h-.763v-4.21c-.076.147-.19.355-.345.623l-2.439 3.587h-.876v-5.278h.773v4.16c.042-.1.13-.27.268-.51l2.505-3.65h.877v5.278zM94.954 12.959H93.37v4.556h-.845V12.96h-1.588v-.722h4.016v.722zM100.211 15.088h-3.727c.014.587.172 1.04.475 1.36.302.32.718.48 1.247.48.595 0 1.141-.196 1.64-.588v.794c-.465.337-1.078.505-1.84.505-.746 0-1.332-.239-1.759-.716-.426-.481-.639-1.157-.639-2.026 0-.821.232-1.49.696-2.005a2.244 2.244 0 011.737-.779c.691 0 1.225.224 1.603.67.378.447.567 1.068.567 1.861v.444zm-.866-.717c-.003-.488-.122-.868-.355-1.139-.23-.271-.552-.407-.964-.407-.399 0-.737.142-1.016.428-.278.285-.45.658-.515 1.118h2.85zM104.392 17.515v-5.278h2.299c.519 0 .928.115 1.227.345.302.23.453.545.453.944 0 .684-.337 1.1-1.01 1.247.807.103 1.211.51 1.211 1.222 0 .43-.166.79-.5 1.082-.33.292-.74.438-1.232.438h-2.448zm.845-4.556v1.484h1.268c.681 0 1.021-.264 1.021-.793 0-.461-.306-.691-.918-.691h-1.371zm0 2.206v1.629h1.464c.684 0 1.026-.277 1.026-.83 0-.533-.383-.8-1.15-.8h-1.34zM20.983 10.331a2.255 2.255 0 00-2.165-.103l11.674 11.698 3.817-3.835-13.326-7.76zm-3.237.98a2.38 2.38 0 00-.226 1.015v21.398c0 .359.08.7.228 1.006l11.669-11.724L17.746 11.31zm12.747 12.774L18.84 35.795c.31.142.638.205.967.205.405 0 .81-.097 1.177-.317L34.31 27.91l-3.818-3.826zm8.89-3.038a.217.217 0 00-.014-.009l-3.7-2.154-4.101 4.12 4.104 4.113 3.712-2.164A2.269 2.269 0 0040.483 23c0-.805-.411-1.536-1.1-1.953z" fill="currentColor"/></svg><svg fill="none" viewBox="0 0 46 46" id="important" xmlns="http://www.w3.org/2000/svg"><circle cx="23" cy="23" r="23" fill="#428BF9"/><path d="M24.187 16.639l-.163 8.86h-1.162l-.154-8.86h1.48zm-.722 12.49a.942.942 0 01-.955-.946c0-.264.091-.488.275-.671a.927.927 0 01.68-.284c.258 0 .481.094.67.284a.9.9 0 01.284.67.9.9 0 01-.283.672.932.932 0 01-.671.275z" fill="#fff"/></svg><svg fill="none" viewBox="0 0 30 30" id="instagram" xmlns="http://www.w3.org/2000/svg"><path d="M12.129 15a2.871 2.871 0 105.742 0 2.871 2.871 0 00-5.742 0z" fill="currentColor"/><path d="M8.286 9.92c.138-.374.358-.712.644-.99.278-.286.616-.507.99-.645.304-.118.76-.258 1.6-.296.908-.041 1.18-.05 3.48-.05s2.573.008 3.48.05c.84.038 1.297.178 1.6.296.374.138.713.359.99.645.286.278.506.616.645.99.118.303.258.76.296 1.6.042.908.05 1.18.05 3.48s-.008 2.572-.05 3.48c-.038.84-.178 1.296-.296 1.6a2.67 2.67 0 01-.645.99 2.667 2.667 0 01-.99.645c-.303.118-.76.258-1.6.296-.907.042-1.18.05-3.48.05s-2.572-.008-3.48-.05c-.84-.038-1.296-.178-1.6-.296a2.852 2.852 0 01-1.634-1.635c-.118-.304-.259-.76-.297-1.6-.041-.908-.05-1.18-.05-3.48s.009-2.572.05-3.48c.038-.84.178-1.296.297-1.6zM15 19.423a4.423 4.423 0 100-8.846 4.423 4.423 0 000 8.846zm-4.598-7.987a1.034 1.034 0 100-2.068 1.034 1.034 0 000 2.068z" fill="currentColor"/><path d="M15 0c8.283 0 15 6.717 15 15 0 8.283-6.717 15-15 15-8.283 0-15-6.717-15-15C0 6.717 6.717 0 15 0zM6.439 18.551c.041.917.187 1.543.4 2.09a4.404 4.404 0 002.52 2.52c.547.213 1.173.358 2.09.4.918.042 1.212.052 3.55.052 2.34 0 2.633-.01 3.552-.052.917-.042 1.543-.187 2.09-.4a4.22 4.22 0 001.526-.994c.438-.43.777-.95.994-1.525.213-.548.358-1.174.4-2.09.042-.92.052-1.213.052-3.552 0-2.34-.01-2.633-.052-3.551-.041-.917-.187-1.543-.4-2.09a4.22 4.22 0 00-.994-1.526 4.218 4.218 0 00-1.525-.994c-.548-.213-1.174-.358-2.09-.4-.92-.042-1.213-.052-3.552-.052-2.34 0-2.633.01-3.551.052-.917.042-1.543.187-2.09.4a4.222 4.222 0 00-1.527.994 4.22 4.22 0 00-.993 1.525c-.213.548-.359 1.174-.4 2.09-.042.92-.052 1.213-.052 3.552 0 2.34.01 2.633.052 3.551z" fill="currentColor"/></svg><svg fill="none" viewBox="0 0 22 20" id="like" xmlns="http://www.w3.org/2000/svg"><path fill-rule="evenodd" clip-rule="evenodd" d="M10.993 3.136C8.993.798 5.66.17 3.155 2.31s-2.858 5.719-.89 8.25c1.635 2.105 6.585 6.544 8.207 7.98.182.162.272.242.378.274a.504.504 0 00.286 0c.106-.032.197-.112.378-.273 1.623-1.437 6.573-5.876 8.208-7.98 1.967-2.532 1.658-6.133-.89-8.251-2.549-2.118-5.84-1.512-7.839.826z" fill="currentColor"/><path d="M10.993 3.136l-.38.325a.5.5 0 00.76 0l-.38-.325zM2.264 10.56l.395-.306-.395.306zm17.458 0l-.395-.306.395.306zm-9.25 7.98l.332-.373-.332.374zm.378.274l-.143.479.143-.48zm.664-.273l-.331-.375.331.375zm-.378.273l.143.479-.143-.48zm.237-16.003C9.227.3 5.581-.42 2.83 1.93l.65.76c2.259-1.93 5.281-1.395 7.133.77l.76-.65zM2.83 1.93C.124 4.242-.264 8.123 1.87 10.867l.789-.613c-1.802-2.319-1.484-5.595.82-7.564l-.65-.76zm17.287 8.937c2.128-2.739 1.795-6.647-.966-8.942l-.639.77c2.335 1.94 2.621 5.235.815 7.559l.79.613zm-.966-8.942c-2.788-2.317-6.387-1.628-8.538.886l.76.65c1.849-2.161 4.832-2.684 7.139-.766l.64-.77zM1.87 10.867c.846 1.088 2.52 2.75 4.16 4.298a184.39 184.39 0 004.112 3.75l.663-.748c-.81-.717-2.448-2.182-4.088-3.73-1.648-1.556-3.267-3.166-4.057-4.183l-.79.613zm9.977 8.048c.813-.72 2.46-2.193 4.11-3.75 1.641-1.549 3.316-3.21 4.16-4.298l-.789-.613c-.79 1.017-2.408 2.627-4.057 4.184a183.58 183.58 0 01-4.087 3.728l.663.75zm-1.705 0c.085.075.17.151.248.21a1 1 0 00.318.168l.286-.959c.026.008.03.017-.003-.008-.039-.03-.09-.074-.186-.16l-.663.75zm1.042-.748c-.097.085-.148.13-.187.16-.033.024-.028.015-.003.007l.286.959a1 1 0 00.319-.168c.078-.059.163-.135.248-.21l-.663-.748zm-.476 1.126c.186.055.386.055.572 0l-.286-.959-.286.959z" fill="currentColor"/></svg><svg fill="none" viewBox="0 0 18 14" id="list" xmlns="http://www.w3.org/2000/svg"><path d="M.75 0a.75.75 0 000 1.5h16.5a.75.75 0 000-1.5H.75zM.75 6.25a.75.75 0 000 1.5h16.5a.75.75 0 000-1.5H.75zM.75 12.5a.75.75 0 000 1.5h16.5a.75.75 0 000-1.5H.75z" fill="currentColor"/></svg><svg fill="none" viewBox="0 0 37 43" id="logo-first" xmlns="http://www.w3.org/2000/svg"><path fill-rule="evenodd" clip-rule="evenodd" d="M21.921 2.138c2.015 0 3.958.29 5.788.83V7.9a16.318 16.318 0 00-4.094-1.061v.966c1.824.244 3.607.79 5.176 1.723v-6.21a19.797 19.797 0 018.047 5.37l.005.006-4.337 6.128v1.804l.039.025 4.293-6.063v21.09l-4.298-6.075-.033.022v1.816l4.304 6.08a19.8 19.8 0 01-8.013 5.338v-4.292c-.352.19-.712.366-1.081.527v4.117c-1.832.541-3.779.833-5.796.833-.68 0-1.353-.033-2.017-.098v-2.683h.003v-.962a15.54 15.54 0 01-1.08-.15l-.004 3.66a20.1 20.1 0 01-7.55-2.766V22.229H10.19v14.099c-4.852-3.453-7.999-8.993-7.999-15.237 0-6.245 3.147-11.784 7.999-15.237v12.433H5.419v1.039h5.854V5.155h-.031a20.1 20.1 0 017.583-2.784v4.557a16.301 16.301 0 00-3.93 1.164v1.06a15.315 15.315 0 015.011-1.402V2.236a20.745 20.745 0 012.015-.098zm-1.987 30.63a11.495 11.495 0 01-5.053-1.968v-1.384a10.28 10.28 0 003.971 2.033l.001-19.968c.353-.082.712-.148 1.077-.198l.003 20.387h.001v1.097zm7.835-19.779c.364.233.746.508 1.078.779l.005 16.5c-1.444 1.256-3.405 2.101-5.311 2.432v-1.104a10.312 10.312 0 004.23-1.872l-.002-16.735zM21.922 0c5.761 0 11.003 2.137 14.916 5.63v1.792c-3.752-3.786-9.047-6.145-14.916-6.145-11.372 0-20.593 8.858-20.593 19.782s9.221 19.783 20.593 19.783c5.869 0 11.165-2.36 14.916-6.146v1.791c-3.913 3.493-9.155 5.63-14.916 5.63C9.817 42.118 0 32.688 0 21.06 0 9.43 9.817 0 21.922 0z" fill="url(#avpaint0_radial_2_95)"/><defs><radialGradient id="avpaint0_radial_2_95" cx="0" cy="0" r="1" gradientUnits="userSpaceOnUse" gradientTransform="matrix(12.9631 0 0 12.8037 20.635 20.215)"><stop stop-color="#47993D"/><stop offset="1" stop-color="#337B43"/></radialGradient></defs></svg><svg fill="none" viewBox="0 0 164 32" id="logo-second" xmlns="http://www.w3.org/2000/svg"><path d="M61.325 2.709h.485v-.56h-2.623v.56h.486v5.058h-.486v.559l2.625-.001v-.56h-.486l1.827-3.381.002 3.383h-.485v.559h2.623v-.559h-.486V2.71h.486v-.56H62.67v.558h.484v.002l-1.823 3.387-.007-3.387zM152.563 2.707h.486v-.56h-2.623v.56h.485v5.058h-.485v.559l2.624-.001v-.56h-.486l1.827-3.381.002 3.383h-.485v.559h2.623v-.559h-.486V2.707h.486v-.56h-2.622v.558h.484v.002l-1.822 3.387-.008-3.387zM146.963 18.885h.738v-.85h-3.986v.85h.738v7.686h-.738v.85l3.988-.002v-.85h-.738v-.001l2.776-5.138.004 5.141h-.738v.85h3.987v-.85h-.738v-7.686h.738v-.85l-3.984-.002v.85h.735v.002l-2.77 5.147-.012-5.147zM163.47 18.035h-4.724c-.96 0-3.347.026-3.347 2.293 0 1.728 1.107 2.224 2.485 2.224v.235c-1.352.448-1.649.687-1.943 1.681l-.444 1.465c-.147.474-.32.687-1.009.781v.95h1.404c.738 0 1.698-.212 2.041-1.377l.688-2.293c.196-.661.418-.922 1.6-.922v3.5h-.738v.85h3.987v-.85h-.738v-7.687h.738v-.85zm-3.249 1.063v3.027h-.764c-.858 0-1.302-.38-1.302-1.49 0-1.11.444-1.537 1.28-1.537h.786zM122.652 23.402c0 2.202 1.107 4.263 4.355 4.263 1.725-.003 3.004-.55 3.497-.857v-2.083h-1.181c-.174.973-.516 1.848-1.947 1.848-1.55 0-1.968-1.063-1.968-2.296v-1.49h4.456c.836 0 .96-.38.96-.944 0-2.083-1.057-4.046-3.817-4.046-3.248 0-4.355 2.057-4.355 4.256v1.349zm2.756-1.678v-.568c0-1.182.195-2.296 1.599-2.296 1.405 0 1.6 1.114 1.6 2.296v.568h-3.199zM97.379 23.402c0 2.202 1.106 4.263 4.355 4.263 1.724-.003 3.004-.55 3.497-.857v-2.083h-1.182c-.173.973-.516 1.848-1.946 1.848-1.551 0-1.969-1.063-1.969-2.296v-1.49h4.457c.836 0 .96-.38.96-.944 0-2.083-1.058-4.046-3.817-4.046-3.248 0-4.355 2.057-4.355 4.256v1.349zm2.755-1.678v-.568c0-1.182.196-2.296 1.6-2.296 1.404 0 1.6 1.114 1.6 2.296v.568h-3.2zM76.195 23.402c0 2.202 1.107 4.263 4.356 4.263 1.724-.003 3.004-.55 3.496-.857v-2.083h-1.181c-.174.973-.516 1.848-1.947 1.848-1.55 0-1.968-1.063-1.968-2.296v-1.49h4.457c.835 0 .96-.38.96-.944 0-2.083-1.058-4.046-3.817-4.046-3.25 0-4.356 2.057-4.356 4.256v1.349zm2.756-1.678v-.568c0-1.182.195-2.296 1.6-2.296 1.404 0 1.6 1.114 1.6 2.296v.568h-3.2zM86.976 30.858h-.738v.85h3.987v-.85h-.738v-3.956c.595.528 1.604.763 2.39.763 2.733 0 3.497-2.13 3.497-4.072v-1.728c0-1.942-.764-4.068-3.497-4.068-.862 0-1.87.213-2.782 1.041l-.444-.803h-2.413v.85h.738v11.973zm2.51-11.05c.325-.333.987-.64 1.653-.64 1.231 0 1.427 1.135 1.427 2.317v2.488c0 1.183-.196 2.318-1.427 2.318-.666-.003-1.332-.31-1.652-.643v-5.84zM65.66 19.95v3.453c0 2.202 1.107 4.263 4.36 4.263 3.248 0 4.354-2.061 4.354-4.263v-1.35c0-2.198-1.106-4.255-4.355-4.255-1.6 0-2.955 1.276-3.226 2.198v-.803c0-1.797.395-3.735 3.964-4.043l2.213-.188c.396-.025.667-.119.911-.26l.173-2.13c-.27.12-.493.192-.835.214l-2.586.213c-4.356.354-4.973 4.35-4.973 6.95zm2.756 1.207c0-1.186.195-2.296 1.603-2.296 1.404 0 1.6 1.11 1.6 2.296v3.146c0 1.182-.196 2.296-1.6 2.296-1.408 0-1.603-1.114-1.603-2.296v-3.146zM24.218 14.938h.937v-1.063h-4.826v1.063h.934v1.183c-.445-.116-.911-.141-1.356-.141-2.24 0-4.11.85-4.11 3.688v1.75c0 2.839 1.87 3.689 4.11 3.689.445 0 .912-.022 1.356-.141v1.395h-.934v1.063h4.826v-1.063h-.938v-1.395c.445.115.912.14 1.356.14 2.24 0 4.11-.85 4.11-3.688v-1.75c0-2.839-1.87-3.688-4.11-3.688-.445 0-.911.021-1.355.14v-1.182zm-2.955 2.365v6.48a1.235 1.235 0 01-.614.141c-1.604 0-1.897-1.276-1.897-2.245v-2.271c0-.97.294-2.246 1.897-2.246.271 0 .418.047.614.141zm2.954 0c.196-.094.347-.141.614-.141 1.604 0 1.897 1.276 1.897 2.246v2.27c0 .97-.293 2.246-1.897 2.246-.267 0-.418-.047-.613-.14v-6.48zM132.699 18.035v.85h.738v7.688h-.738v.85h3.987v-.85h-.738v-3.927h2.71v3.927h-.738v.85h3.987v-.85h-.738v-7.688h.738v-.85h-3.987v.85h.738v2.698h-2.71v-2.698h.738v-.85h-3.987zM115.323 18.885h.738v-.85h-3.986v.85h.738v2.886h-.271c-.862 0-1.084-.474-1.329-1.323l-.418-1.49c-.271-.995-1.355-1.161-2.145-1.161a3.49 3.49 0 00-.81.072v2.01c.441-.332.591-.379.911-.379.542 0 .836.427.911.734l.294 1.063c.124.427.493.662.96.781v.214c-1.649.166-2.044 1.204-2.214 1.916l-.346 1.44c-.173.665-.32.994-1.129.994v.951c.173.047.64.094 1.054.094 1.603 0 2.217-.405 2.586-1.967l.346-1.443c.294-1.277.986-1.443 1.6-1.443v3.74h-.738v.849h3.986v-.85h-.738v-3.739c.618 0 1.307.166 1.6 1.443l.347 1.443c.369 1.562.986 1.967 2.586 1.967.418 0 .888-.047 1.058-.094v-.951c-.814 0-.96-.33-1.134-.994l-.342-1.44c-.173-.712-.569-1.75-2.217-1.916v-.214c.467-.119.835-.354.96-.78l.293-1.064c.076-.307.373-.734.911-.734.324 0 .471.047.915.38v-2.01a3.524 3.524 0 00-.813-.073c-.791 0-1.875.166-2.146 1.157l-.418 1.494c-.244.85-.466 1.323-1.328 1.323h-.272v-2.886zM56.68 19.976c0-2.723.666-4.094 2.39-4.094 1.355.004 1.968.829 2.24 2.202h1.772V15.34c-1.204-.709-2.533-.875-4.012-.875-4.017 0-5.715 2.575-5.715 5.771v1.725c0 3.193 1.698 5.775 5.715 5.775 2.857 0 4.728-1.87 4.728-3.692h-2.733c0 1.183-.37 2.27-1.995 2.27-1.724 0-2.39-1.373-2.39-4.093v-2.245zM45.566 22.033v1.61h5.808v-1.61h-5.808zM36.28 15.835h.933v-1.063H32.39v1.063h.933v10.527h-.933v1.063h4.822v-1.063h-.934v-5.276h.715c.712 0 1.65.329 1.867 1.255l.911 3.76c.347 1.396 1.306 1.635 2.71 1.635.49 0 .983-.022 1.574-.094v-1.16c-1.058 0-1.329-.261-1.724-1.892l-.538-2.25c-.271-1.088-1.306-1.605-2.537-1.677v-.307c.59-.167.862-.26 1.106-.923l.764-1.988c.196-.5.614-.782 1.254-.782.271 0 .52.12.964.452v-2.39a2.729 2.729 0 00-1.133-.26c-1.258 0-1.92.59-2.39 1.772l-1.058 2.744c-.245.637-.738.803-1.77.803l-.715.004v-3.953zM4.732 15.835h.934V14.77H.844v1.064h.933V26.36H.844v1.063h4.822v-1.063h-.934v-5.345h4.453v5.345h-.933v1.063h4.822v-1.063h-.934V15.835h.934V14.77H8.252v1.064h.933v3.88H4.732v-3.88zM163.425 2.068h-3.108c-.632 0-2.202.017-2.202 1.509 0 1.137.728 1.463 1.635 1.463v.155c-.89.295-1.085.452-1.278 1.106l-.293.964c-.096.311-.21.452-.663.514v.625h.923c.486 0 1.117-.14 1.343-.906l.453-1.509c.129-.435.275-.606 1.053-.606v2.303h-.486v.559h2.623v-.56h-.485V2.628h.485v-.559zm-2.137.7v1.991h-.503c-.565 0-.857-.25-.857-.98s.292-1.011.842-1.011h.518zM141.885 7.763h-.486V3.934c0-.825-.275-1.946-2.315-1.946-1.59 0-2.497.7-2.497 1.744h1.588c0-.592.374-1.044.795-1.044.631 0 .778.514.778 1.137v.685c-1.848.45-3.24.854-3.24 2.365 0 1.137.681 1.606 1.57 1.606.761 0 1.409-.266 1.944-.609l.357.45h1.506v-.56zm-2.137-.545c-.243.233-.632.311-.811.311-.42 0-.616-.373-.616-.904 0-.949.503-1.213 1.427-1.415v2.008zM113.699 5.676c0 1.449.728 2.805 2.868 2.805 2.138 0 2.866-1.356 2.866-2.805V4.79c0-1.447-.746-2.8-2.883-2.8-2.138 0-2.851 1.353-2.851 2.8v.887zm1.813-1.477c0-.78.129-1.511 1.055-1.511.924 0 1.053.73 1.053 1.51v2.07c0 .778-.129 1.511-1.053 1.511-.926 0-1.055-.733-1.055-1.51v-2.07zM100.476 2.148h-3.108c-.632 0-2.202.017-2.202 1.509 0 1.137.728 1.463 1.634 1.463v.155c-.889.295-1.084.452-1.278 1.106l-.292.964c-.096.311-.21.452-.664.514v.626h.924c.486 0 1.117-.14 1.343-.907l.453-1.508c.129-.436.275-.607 1.052-.607v2.303h-.485v.559h2.623v-.56h-.486V2.709h.486v-.56zm-2.138.7v1.991h-.503c-.564 0-.856-.25-.856-.98s.292-1.011.842-1.011h.517zM93.498 7.767h-.485V3.938c0-.825-.275-1.946-2.316-1.946-1.59 0-2.497.7-2.497 1.744h1.588c0-.592.374-1.044.795-1.044.632 0 .778.514.778 1.137v.685c-1.848.45-3.24.854-3.24 2.365 0 1.137.681 1.606 1.57 1.606.76 0 1.41-.266 1.945-.609l.356.45h1.506v-.56zm-2.137-.545c-.243.233-.632.311-.81.311-.421 0-.617-.373-.617-.904 0-.95.503-1.213 1.427-1.415v2.008zM66.563 5.678c0 1.449.728 2.805 2.868 2.805 2.137 0 2.865-1.356 2.865-2.805v-.887c0-1.447-.745-2.8-2.883-2.8-2.137 0-2.85 1.353-2.85 2.8v.887zM68.376 4.2c0-.78.128-1.51 1.055-1.51.923 0 1.052.73 1.052 1.51v2.07c0 .778-.129 1.511-1.052 1.511-.927 0-1.055-.733-1.055-1.51V4.2zM24.54 5.678c0 1.449.727 2.805 2.864 2.805 1.135-.002 1.977-.362 2.301-.564V6.55h-.777c-.114.64-.34 1.216-1.28 1.216-1.021 0-1.296-.7-1.296-1.511v-.98h2.932c.55 0 .632-.25.632-.621 0-1.37-.696-2.663-2.512-2.663-2.137 0-2.865 1.354-2.865 2.8v.888zm1.812-1.104V4.2c0-.777.129-1.51 1.052-1.51.924 0 1.053.733 1.053 1.51v.374h-2.105zM17.883 2.148v.56h.485v5.058h-.485v.559h2.69c1.28 0 2.622-.388 2.622-1.775 0-.825-.55-1.354-1.57-1.54v-.094c.89-.265 1.31-.652 1.31-1.383 0-.966-.842-1.385-1.798-1.385h-3.254zm2.137 3.25h.567c.488 0 .795.296.795.67v.889c0 .373-.307.669-.795.669h-.567V5.399zm0-2.55h.585c.532 0 .693.217.693.669v.513c0 .45-.16.669-.696.669h-.582V2.848zM143.18 2.148v.56h.485v5.058h-.485v.559h2.622v-.56h-.485V5.183h1.783v2.584h-.485v.559h2.623v-.56h-.486V2.708h.486v-.559h-2.623v.56h.485v1.775h-1.783V2.707h.485v-.559h-2.622zM129.207 2.148v.56h.485v5.058h-.485v.559h2.623v-.56h-.486V2.849h1.831v4.918h-.486v.559h2.623v-.56h-.485V2.708h.485v-.559h-6.105zM120.613 2.148v.56h.486v5.058h-.486v.559h1.699v-.56h-.485l-.004-4.698 1.755 3.716h.567l1.764-3.706v4.689h-.486v.559h2.623v-.56h-.486V2.708h.486v-.559h-2.477l-1.31 2.753-1.298-2.753h-2.348zM109.072 2.15h-2.623v.558h.486v5.059h-.486v.559h2.623v-.56h-.485v-2.46h.274c.407 0 .86.11 1.053.95l.228.949c.243 1.028.649 1.294 1.701 1.294.275 0 .582-.03.694-.062v-.625c-.533 0-.629-.217-.743-.654l-.225-.948c-.114-.468-.374-1.151-1.459-1.26v-.14c.307-.08.55-.234.631-.515l.193-.7c.05-.202.246-.482.6-.482.21 0 .309.03.599.25V2.04a2.29 2.29 0 00-.532-.048c-.52 0-1.234.11-1.41.761l-.277.983c-.161.56-.307.871-.874.871h-.453V2.708h.485V2.15zM80.852 2.148v.56h.485v5.058h-.485v.559h2.622v-.56h-.485V5.183h1.783v2.584h-.485v.559h2.623v-.56h-.486V2.708h.486v-.559h-2.623v.56h.485v1.775H82.99V2.707h.485v-.559h-2.622zM73.574 2.148v.56h.486v5.058h-.486v.559h2.623v-.56h-.485V5.183h1.783v2.584h-.486v.559h2.623v-.56h-.485V2.708h.485v-.559H77.01v.56h.486v1.775h-1.783V2.707h.485v-.559h-2.623zM51.566 7.766v.559h5.2l.373 2.555h.778l.371-2.553v-.561h-1.181V2.707h.485v-.559H54.97v.56h.485v4.917h-1.751V2.707h.485v-.559h-2.623v.56h.486v5.058h-.486zM46.356 2.707h.486v-.56h-2.623v.56h.485v5.058h-.485v.559l2.624-.001v-.56h-.486l1.827-3.38.003 3.382H47.7v.559h2.623v-.559h-.485V2.707h.485v-.56h-2.622v.558h.485v.002l-1.823 3.387-.008-3.387zM41.16 2.848h.778l.503 1.401h.728l-.146-2.1h-5.377l-.146 2.1h.728l.503-1.401h.785l-.008 4.918h-.485v.559h2.623v-.56h-.485l-.002-4.917zM31.246 5.682c0 1.447.728 2.803 2.866 2.803.906-.002 1.506-.19 2.187-.533V6.458h-.81c-.065.578-.39 1.325-1.377 1.325-.924 0-1.053-.733-1.053-1.51v-2.07c0-.888.21-1.511.956-1.511.681 0 .778.606.778 1.199h1.506c0-1.247-.939-1.899-2.187-1.899-2.138 0-2.866 1.354-2.866 2.8v.89zM10.55 2.148v.56h.486v5.058h-.485v.559h2.623v-.56h-.486V5.183h1.784v2.584h-.486v.559h2.623v-.56h-.486V2.708h.486v-.559h-2.623v.56h.486v1.775h-1.784V2.707h.486v-.559H10.55zM3.43.7h.616V0H.871v.7h.614v6.925H.871v.7h3.174v-.7H3.43L6.443 2.18v5.446h-.616v.7h3.175v-.7h-.617V.7H9V0H5.826v.7h.615L3.43 6.148V.7z" fill="#170909"/></svg><svg fill="currentColor" class="axbi axbi-geo-alt-fill" viewBox="0 0 16 16" id="map-marker" xmlns="http://www.w3.org/2000/svg"><path d="M8 16s6-5.686 6-10A6 6 0 002 6c0 4.314 6 10 6 10zm0-7a3 3 0 110-6 3 3 0 010 6z"/></svg><svg fill="none" viewBox="0 0 18 18" id="medium-icons" xmlns="http://www.w3.org/2000/svg"><path fill-rule="evenodd" clip-rule="evenodd" d="M5.145.27C4.841.25 4.47.25 4.025.25h-.05c-.445 0-.816 0-1.12.02a2.823 2.823 0 00-.907.19A2.75 2.75 0 00.459 1.947c-.12.29-.167.59-.188.907C.25 3.159.25 3.53.25 3.975v.05c0 .445 0 .816.02 1.12.022.317.069.617.19.907a2.75 2.75 0 001.488 1.489c.29.12.59.167.907.188.304.021.675.021 1.12.021h.05c.445 0 .816 0 1.12-.02.317-.022.617-.07.907-.19a2.75 2.75 0 001.489-1.488c.12-.29.167-.59.188-.907.021-.304.021-.675.021-1.12v-.05c0-.445 0-.816-.02-1.12a2.823 2.823 0 00-.19-.907A2.75 2.75 0 006.053.459c-.29-.12-.59-.167-.907-.188zM2.522 1.846c.077-.032.194-.061.435-.078A17.09 17.09 0 014 1.75c.476 0 .796 0 1.043.017.241.017.358.046.435.078.307.127.55.37.677.677.032.077.061.194.078.435.017.247.017.567.017 1.043s0 .796-.017 1.043c-.017.241-.046.358-.078.435a1.25 1.25 0 01-.677.677c-.077.032-.194.061-.435.078-.247.017-.567.017-1.043.017s-.796 0-1.043-.017c-.241-.017-.358-.046-.435-.078a1.25 1.25 0 01-.677-.677c-.032-.077-.061-.194-.078-.435A17.089 17.089 0 011.75 4c0-.476 0-.796.017-1.043.017-.241.046-.358.078-.435.127-.307.37-.55.677-.677zM15.145.27c-.304-.02-.675-.02-1.12-.02h-.05c-.445 0-.816 0-1.12.02a2.823 2.823 0 00-.907.19 2.75 2.75 0 00-1.489 1.488c-.12.29-.167.59-.188.907-.021.304-.021.675-.021 1.12v.05c0 .445 0 .816.02 1.12.022.317.069.617.19.907a2.75 2.75 0 001.488 1.489c.29.12.59.167.907.188.304.021.675.021 1.12.021h.05c.445 0 .816 0 1.12-.02.318-.022.617-.07.907-.19a2.75 2.75 0 001.489-1.488c.12-.29.167-.59.188-.907.021-.304.021-.675.021-1.12v-.05c0-.445 0-.816-.02-1.12a2.822 2.822 0 00-.19-.907A2.75 2.75 0 0016.053.459c-.29-.12-.59-.167-.907-.188zm-2.623 1.575c.077-.032.194-.061.435-.078.247-.017.567-.017 1.043-.017s.796 0 1.043.017c.241.017.358.046.435.078.307.127.55.37.677.677.032.077.061.194.078.435.017.247.017.567.017 1.043s0 .796-.017 1.043c-.017.241-.046.358-.078.435a1.25 1.25 0 01-.677.677c-.077.032-.194.061-.435.078-.247.017-.567.017-1.043.017s-.796 0-1.043-.017c-.241-.017-.358-.046-.435-.078a1.25 1.25 0 01-.677-.677c-.032-.077-.061-.194-.078-.435A17.07 17.07 0 0111.75 4c0-.476 0-.796.017-1.043.017-.241.046-.358.078-.435.127-.307.37-.55.677-.677zM5.145 10.27c-.304-.02-.675-.02-1.12-.02h-.05c-.445 0-.816 0-1.12.02a2.822 2.822 0 00-.907.19 2.75 2.75 0 00-1.489 1.488c-.12.29-.167.59-.188.907-.021.304-.021.675-.021 1.12v.05c0 .445 0 .816.02 1.12.022.318.069.617.19.907a2.75 2.75 0 001.488 1.489c.29.12.59.167.907.188.304.021.675.021 1.12.021h.05c.445 0 .816 0 1.12-.02.317-.022.617-.069.907-.19a2.75 2.75 0 001.489-1.488c.12-.29.167-.59.188-.907.021-.304.021-.675.021-1.12v-.05c0-.445 0-.816-.02-1.12a2.823 2.823 0 00-.19-.907 2.75 2.75 0 00-1.488-1.489c-.29-.12-.59-.167-.907-.188zm-2.623 1.575c.077-.032.194-.061.435-.078A17.07 17.07 0 014 11.75c.476 0 .796 0 1.043.017.241.017.358.046.435.078.307.127.55.37.677.677.032.077.061.194.078.435.017.247.017.567.017 1.043s0 .796-.017 1.043c-.017.241-.046.358-.078.435a1.25 1.25 0 01-.677.677c-.077.032-.194.061-.435.078A17.07 17.07 0 014 16.25c-.476 0-.796 0-1.043-.017-.241-.017-.358-.046-.435-.078a1.25 1.25 0 01-.677-.677c-.032-.077-.061-.194-.078-.435A17.091 17.091 0 011.75 14c0-.476 0-.796.017-1.043.017-.241.046-.358.078-.435.127-.307.37-.55.677-.677zM15.145 10.27c-.304-.02-.675-.02-1.12-.02h-.05c-.445 0-.816 0-1.12.02a2.822 2.822 0 00-.907.19 2.75 2.75 0 00-1.489 1.488c-.12.29-.167.59-.188.907-.021.304-.021.675-.021 1.12v.05c0 .445 0 .816.02 1.12.022.318.069.617.19.907a2.75 2.75 0 001.488 1.489c.29.12.59.167.907.188.304.021.675.021 1.12.021h.05c.445 0 .816 0 1.12-.02.318-.022.617-.069.907-.19a2.75 2.75 0 001.489-1.488c.12-.29.167-.59.188-.907.021-.304.021-.675.021-1.12v-.05c0-.445 0-.816-.02-1.12a2.822 2.822 0 00-.19-.907 2.75 2.75 0 00-1.488-1.489c-.29-.12-.59-.167-.907-.188zm-2.623 1.575c.077-.032.194-.061.435-.078.247-.017.567-.017 1.043-.017s.796 0 1.043.017c.241.017.358.046.435.078.307.127.55.37.677.677.032.077.061.194.078.435.017.247.017.567.017 1.043s0 .796-.017 1.043c-.017.241-.046.358-.078.435a1.25 1.25 0 01-.677.677c-.077.032-.194.061-.435.078-.247.017-.567.017-1.043.017s-.796 0-1.043-.017c-.241-.017-.358-.046-.435-.078a1.25 1.25 0 01-.677-.677c-.032-.077-.061-.194-.078-.435A17.073 17.073 0 0111.75 14c0-.476 0-.796.017-1.043.017-.241.046-.358.078-.435.127-.307.37-.55.677-.677z" fill="currentColor"/></svg><svg fill="none" viewBox="0 0 54 54" id="money" xmlns="http://www.w3.org/2000/svg"><g clip-path="url(#azclip0_101_164)" fill="#1D252C"><path d="M8.972 47.981a1.062 1.062 0 00-.745-.309c-.278 0-.55.113-.746.309a1.063 1.063 0 00-.31.746c0 .277.114.55.31.745.196.196.468.31.746.31.277 0 .55-.113.745-.31.196-.196.31-.468.31-.745 0-.278-.114-.55-.31-.746zM49.52 19.294a1.06 1.06 0 00-.746-.309c-.277 0-.55.113-.745.31a1.063 1.063 0 00-.31.745c0 .277.114.55.31.745.196.197.468.31.745.31a1.06 1.06 0 001.056-1.055c0-.277-.113-.55-.31-.746z"/><path d="M53.69.309A1.055 1.055 0 0052.946 0L27 .001c-.582 0-1.055.473-1.055 1.055v3.016l-9.997 2.679c-.563.15-.896.729-.746 1.292l5.182 19.337-4.483 4.482a3.163 3.163 0 00-2.611-1.381H3.165A3.168 3.168 0 000 33.645v17.19A3.168 3.168 0 003.165 54H13.29a3.17 3.17 0 003.07-2.403l1.255 1.094a5.314 5.314 0 003.492 1.31h31.838c.582 0 1.055-.473 1.055-1.056V1.055c0-.28-.112-.548-.31-.746zM14.345 50.836c0 .581-.473 1.055-1.054 1.055H3.165a1.056 1.056 0 01-1.055-1.055v-17.19c0-.583.473-1.056 1.055-1.056h4.008v12.15a1.055 1.055 0 002.109 0V32.59h4.008c.581 0 1.054.473 1.054 1.055v17.191zm3.169-42.32l8.432-2.26v3.908l-.706.19a1.055 1.055 0 00-.746 1.291 2.843 2.843 0 01-2.008 3.478 1.054 1.054 0 00-.745 1.294l4.11 15.223h-2.116l-1.091-4.268a1.053 1.053 0 00-.177-.37L17.513 8.516zM25.945 15v8.9l-1.923-7.124a4.94 4.94 0 001.923-1.776zm15.152 36.89h-19.99c-.774 0-1.523-.28-2.107-.79l-2.546-2.221V34.293l4.604-4.605.835 3.268c.12.467.54.793 1.022.793l20.736.001c.814 0 1.476.663 1.476 1.477 0 .814-.662 1.477-1.476 1.477H33.026a1.055 1.055 0 000 2.109h13.926c.814 0 1.476.662 1.476 1.476 0 .815-.662 1.477-1.476 1.477H33.026a1.055 1.055 0 000 2.11h11.669c.814 0 1.477.662 1.477 1.476s-.663 1.477-1.477 1.477h-11.67a1.055 1.055 0 000 2.109h8.072c.815 0 1.477.662 1.477 1.476s-.662 1.477-1.477 1.477zm10.793 0h-7.526a3.563 3.563 0 000-2.953h.331a3.59 3.59 0 003.586-3.586c0-.577-.138-1.122-.38-1.605a3.591 3.591 0 002.636-3.458c0-.8-.263-1.539-.707-2.136V24.786a1.055 1.055 0 00-2.11 0v12.001a3.587 3.587 0 00-.768-.084h-.035c.204-.45.32-.95.32-1.476a3.59 3.59 0 00-3.587-3.586h-1.695A5.055 5.055 0 0045.02 27a5.053 5.053 0 00-5.048-5.047A5.053 5.053 0 0034.925 27c0 2.08 1.264 3.87 3.064 4.641h-5.765V11.587a4.965 4.965 0 003.782-3.781h7.933a4.965 4.965 0 003.781 3.781v3.28a1.055 1.055 0 002.11 0v-4.222c0-.582-.473-1.054-1.055-1.054a2.843 2.843 0 01-2.84-2.84c0-.582-.472-1.055-1.054-1.055h-9.817c-.582 0-1.055.473-1.055 1.055a2.843 2.843 0 01-2.84 2.84c-.582 0-1.054.472-1.054 1.055V31.64h-2.06V2.111l23.835-.002v49.782zM39.972 29.938A2.941 2.941 0 0137.034 27a2.942 2.942 0 012.938-2.938A2.941 2.941 0 0142.91 27a2.941 2.941 0 01-2.938 2.938z"/></g><defs><clipPath id="azclip0_101_164"><path fill="#fff" d="M0 0h54v54H0z"/></clipPath></defs></svg><svg fill="none" viewBox="0 0 54 54" id="official-documents" xmlns="http://www.w3.org/2000/svg"><path d="M22.782 36.492a1.055 1.055 0 100-2.11 1.055 1.055 0 000 2.11zM4.22 14.344v4.219c0 .582.472 1.054 1.054 1.054h30.48c.583 0 1.056-.472 1.056-1.055v-4.218c0-.583-.473-1.055-1.055-1.055H5.275c-.583 0-1.055.472-1.055 1.055zm11.18 1.054h19.3v2.11H15.4v-2.11zm-9.07 0h6.96v2.11H6.33v-2.11zM5.274 23.836h30.48a1.055 1.055 0 100-2.11H5.275a1.055 1.055 0 100 2.11zM5.274 28.055h30.48a1.055 1.055 0 000-2.11H5.275a1.055 1.055 0 100 2.11zM5.274 32.273h17.508a1.055 1.055 0 100-2.109H5.274a1.055 1.055 0 100 2.11zM5.274 36.492h13.29a1.055 1.055 0 100-2.11H5.274a1.055 1.055 0 100 2.11zM14.345 44.93h5.38a5.282 5.282 0 005.167 4.218 5.28 5.28 0 005.273-5.273 5.28 5.28 0 00-5.273-5.273 5.282 5.282 0 00-5.168 4.218h-5.38a1.055 1.055 0 100 2.11zm10.547-2.11h-2.983a3.17 3.17 0 012.983-2.11 3.168 3.168 0 013.164 3.165 3.168 3.168 0 01-3.164 3.164 3.17 3.17 0 01-2.983-2.11h2.983a1.055 1.055 0 000-2.109zM35.755 8.438a1.055 1.055 0 000-2.11h-2.11a1.055 1.055 0 000 2.11h2.11zM29.427 8.438a1.055 1.055 0 000-2.11h-2.11a1.055 1.055 0 000 2.11h2.11zM23.099 8.438a1.055 1.055 0 100-2.11h-2.11a1.055 1.055 0 100 2.11h2.11zM20.673 54a1.055 1.055 0 100-2.11 1.055 1.055 0 000 2.11z" fill="#1D252C"/><path d="M1.056 54h14.87a1.055 1.055 0 000-2.11H2.11V10.548h7.383c.583 0 1.055-.472 1.055-1.055V2.11h28.37V31.92a28.377 28.377 0 01-1.31 1.46l-2.237-2.236a5.27 5.27 0 00-7.458 0l-1.491 1.491a1.055 1.055 0 000 1.492l12.497 12.497v5.267h-13.5a1.055 1.055 0 000 2.109h14.555c.582 0 1.054-.472 1.054-1.055v-4.212l.31.309c.411.412 1.079.412 1.49 0l1.492-1.491a5.27 5.27 0 000-7.458l-2.236-2.236c2.001-1.95 6.402-5.187 8.714-6.194 3.245-1.413 4.417-5.826 1.648-8.595-2.749-2.75-7.142-1.632-8.581 1.622-.54 1.22-1.658 2.935-2.837 4.543V1.055C41.028.472 40.556 0 39.974 0H9.494c-.288 0-.559.121-.747.309L.31 8.746c-.19.19-.309.46-.309.746v43.453C.001 53.528.473 54 1.056 54zm41.772-12.416a3.163 3.163 0 010 4.475l-.745.746L28.659 33.38l.746-.746a3.16 3.16 0 014.474 0l8.95 8.95zM40.8 32.96c1.828-2.204 4.081-5.352 4.994-7.415.82-1.854 3.425-2.72 5.16-.984 1.735 1.735.854 4.363-.998 5.169-2.624 1.143-7.192 4.514-9.363 6.636l-1.494-1.494c.5-.511 1.084-1.167 1.701-1.912zM8.438 3.601v4.837H3.602L8.438 3.6z" fill="#1D252C"/></svg><svg fill="none" viewBox="0 0 56 56" id="open-score" xmlns="http://www.w3.org/2000/svg"><circle cx="28" cy="28" r="28" fill="currentColor"/><path d="M22.996 19.252h11.19m-11.19 0v-2.508c0-.693.557-1.255 1.243-1.255h8.703c.687 0 1.244.562 1.244 1.255v2.508m-11.19 0h-7.46c-.686 0-1.243.561-1.243 1.254v6.364m19.893-7.618h7.46c.686 0 1.243.561 1.243 1.254v6.271m-16.163 1.254v1.882c0 .346.278.627.622.627h2.486c.343 0 .622-.281.622-.627V28.03m-3.73 0v-.627c0-.346.278-.627.622-.627h2.486c.343 0 .622.28.622.627v.627m-3.73 0H15.444c-.636 0-1.151-.52-1.151-1.161m16.163 1.161h11.19c.686 0 1.243-.561 1.243-1.254m0 0v11.288c0 .693-.557 1.254-1.244 1.254H15.536a1.249 1.249 0 01-1.243-1.254V26.87" stroke="currentColor" fill="currentColor" stroke-width="1.5"/></svg><svg fill="none" viewBox="0 0 48 48" id="pdf" xmlns="http://www.w3.org/2000/svg"><path d="M17.25 3a3.758 3.758 0 00-3.75 3.75V18H5.887C4.297 18 3 19.31 3 20.902v12.196C3 34.69 4.298 36 5.887 36H13.5v5.25A3.758 3.758 0 0017.25 45h24A3.758 3.758 0 0045 41.25V15a2.59 2.59 0 00-.744-1.805l-9.22-9.44A2.534 2.534 0 0033.22 3H17.25zm0 1.5H33V12c0 1.649 1.351 3 3 3h7.5v26.25c0 1.26-.99 2.25-2.25 2.25h-24c-1.26 0-2.25-.99-2.25-2.25V36h15.113C31.703 36 33 34.69 33 33.098V20.902C33 19.31 31.702 18 30.113 18H15V6.75c0-1.26.99-2.25 2.25-2.25zm17.25.854l7.957 8.146H36a1.48 1.48 0 01-1.5-1.5V5.354zM5.887 19.5h24.226c.779 0 1.387.61 1.387 1.402v12.196c0 .793-.608 1.402-1.387 1.402H5.887c-.779 0-1.387-.61-1.387-1.402V20.902c0-.793.608-1.402 1.387-1.402z" fill="currentColor"/><path d="M8.25 22.5a.75.75 0 00-.75.75v7.5a.75.75 0 001.5 0V28.5h1.5c1.649 0 3-1.351 3-3s-1.351-3-3-3H8.25zM9 24h1.5c.844 0 1.5.656 1.5 1.5s-.656 1.5-1.5 1.5H9v-3zM15.75 22.5a.75.75 0 00-.75.75v7.5a.75.75 0 00.75.75h.643C18.921 31.5 21 29.491 21 27s-2.079-4.5-4.607-4.5h-.643zm.75 1.52c1.69.057 3 1.353 3 2.98s-1.31 2.923-3 2.98v-5.96zM23.25 22.5a.75.75 0 00-.75.75v7.5a.75.75 0 001.5 0v-3.098h3.75a.75.75 0 000-1.5H24V24h3.75a.75.75 0 000-1.5h-4.5z" fill="currentColor"/></svg><svg fill="none" viewBox="0 0 20 20" id="phone" xmlns="http://www.w3.org/2000/svg"><path d="M19.551 15.806l-3.088-3.09c-.615-.612-1.634-.593-2.27.043l-1.557 1.556-.307-.17c-.982-.545-2.327-1.291-3.743-2.708-1.419-1.419-2.166-2.766-2.712-3.75-.058-.104-.113-.204-.168-.3l1.045-1.042.513-.514c.638-.638.656-1.657.042-2.271L4.216.47c-.613-.613-1.632-.594-2.27.043l-.87.876.024.024a5.027 5.027 0 00-.718 1.265c-.167.44-.271.861-.319 1.283-.408 3.381 1.137 6.471 5.33 10.665 5.796 5.795 10.467 5.357 10.669 5.336.439-.052.86-.157 1.287-.323.46-.18.889-.423 1.26-.715l.02.017.881-.863c.637-.638.655-1.657.041-2.272zm-.727 1.585l-.388.388-.155.149a3.885 3.885 0 01-1.282.807c-.35.135-.694.221-1.045.263-.045.004-4.438.38-9.875-5.058C1.455 9.317.715 6.653 1.025 4.073a4.27 4.27 0 01.262-1.046c.243-.62.574-1.041.808-1.285l.537-.543c.259-.26.663-.28.9-.043L6.62 4.245c.236.237.218.64-.042.901L4.492 7.23l.193.324c.107.18.22.383.341.603.574 1.035 1.359 2.451 2.875 3.966 1.512 1.513 2.926 2.297 3.958 2.87.223.123.426.236.609.345l.325.192 2.084-2.085c.26-.259.665-.278.902-.042l3.087 3.088c.236.237.218.64-.042.9z" fill="#1D252C"/></svg><svg fill="none" viewBox="0 0 20 20" id="search" xmlns="http://www.w3.org/2000/svg"><path fill-rule="evenodd" clip-rule="evenodd" d="M13.237 14.014l5.817 5.817a.551.551 0 00.785.008.55.55 0 00-.008-.785l-.004-.004-5.813-5.813.176-.216a7.948 7.948 0 001.79-5.03C15.98 3.587 12.394 0 7.99 0 3.588 0 0 3.588 0 7.99c0 4.403 3.588 7.99 7.99 7.99a7.948 7.948 0 005.03-1.79l.217-.176zm-.296-1.228l-.022.016a.548.548 0 00-.117.117l-.016.022-.019.018a6.866 6.866 0 01-4.777 1.923A6.879 6.879 0 011.1 7.99 6.879 6.879 0 017.99 1.1a6.879 6.879 0 016.892 6.891c0 1.86-.734 3.54-1.923 4.777l-.018.02z" fill="#1D252C"/></svg><svg fill="none" viewBox="0 0 14 14" id="star" xmlns="http://www.w3.org/2000/svg"><path d="M13.696 6.372a.998.998 0 00.254-1.029.998.998 0 00-.81-.683l-3.39-.493a.443.443 0 01-.334-.242L7.9.853a.998.998 0 00-.9-.56.998.998 0 00-.9.56L4.584 3.925a.443.443 0 01-.334.242L.86 4.66a.997.997 0 00-.81.683.998.998 0 00.254 1.03l2.452 2.39a.444.444 0 01.128.392l-.579 3.377a.998.998 0 00.4.981.996.996 0 001.057.077l3.032-1.594a.444.444 0 01.412 0l3.032 1.594a1.003 1.003 0 001.457-1.059l-.58-3.375a.443.443 0 01.128-.393l2.453-2.39zM10.563 9.25l.58 3.376a.435.435 0 01-.177.434.437.437 0 01-.467.034L7.467 11.5a1.008 1.008 0 00-.934 0L3.5 13.094a.437.437 0 01-.467-.034.436.436 0 01-.176-.434l.579-3.376a1.004 1.004 0 00-.289-.888L.695 5.97a.435.435 0 01-.112-.455.435.435 0 01.358-.302l3.39-.492c.326-.047.61-.253.755-.55l1.516-3.07A.435.435 0 017 .853c.172 0 .32.092.397.247l1.516 3.072c.146.296.429.502.756.549l3.39.492c.17.025.304.138.358.302a.435.435 0 01-.113.455l-2.452 2.39c-.237.231-.345.563-.289.89z" fill="currentColor"/></svg><svg fill="none" viewBox="0 0 18 18" id="tooltip" xmlns="http://www.w3.org/2000/svg"><path d="M8.539 10.779c.007-.424.063-.765.169-1.024.105-.259.332-.563.68-.911.347-.353.57-.6.669-.744.101-.148.179-.308.232-.48.056-.176.084-.376.084-.598 0-.45-.118-.802-.353-1.057-.232-.259-.557-.388-.975-.388-.422 0-.763.124-1.023.372-.256.244-.388.577-.395.997H7c.007-.59.202-1.06.585-1.412.383-.356.87-.534 1.46-.534.604 0 1.08.181 1.428.544.351.36.527.849.527 1.467 0 .388-.086.753-.258 1.094-.172.338-.5.733-.98 1.186-.397.342-.596.838-.596 1.488h-.627zm-.084 1.8c0-.122.036-.224.11-.307a.41.41 0 01.322-.13c.133 0 .239.044.316.13.08.083.121.185.121.307 0 .12-.04.22-.121.302a.422.422 0 01-.316.119.429.429 0 01-.322-.119.437.437 0 01-.11-.302z" fill="currentColor"/><circle cx="9" cy="9" r="8.75" stroke="currentColor" stroke-width=".5"/></svg><svg fill="none" viewBox="0 0 21 18" id="twitter" xmlns="http://www.w3.org/2000/svg"><path d="M20.956 2.799a9.226 9.226 0 01-2.465.647 4.113 4.113 0 001.882-2.266 8.779 8.779 0 01-2.713.992A4.376 4.376 0 0014.535.875c-2.369 0-4.276 1.842-4.276 4.101 0 .325.03.638.1.935-3.557-.166-6.705-1.8-8.819-4.288a3.998 3.998 0 00-.586 2.072c0 1.42.763 2.679 1.9 3.408a4.367 4.367 0 01-1.932-.505v.045c0 1.992 1.483 3.647 3.428 4.028a4.443 4.443 0 01-1.122.135c-.274 0-.55-.015-.81-.07.554 1.624 2.127 2.818 3.998 2.856a8.837 8.837 0 01-5.305 1.75c-.351 0-.688-.016-1.024-.057 1.895 1.171 4.141 1.84 6.563 1.84 7.873 0 12.178-6.25 12.178-11.668 0-.18-.007-.356-.016-.53A8.348 8.348 0 0020.956 2.8z" fill="currentColor"/></svg><svg fill="none" viewBox="0 0 36 40" id="user" xmlns="http://www.w3.org/2000/svg"><g filter="url(#bifilter0_d_166_8092)" fill="#currentColor"><path d="M17.77 15.415c2.118 0 3.951-.76 5.45-2.258 1.498-1.499 2.258-3.332 2.258-5.45 0-2.117-.76-3.95-2.259-5.45C21.721.76 19.887 0 17.77 0c-2.118 0-3.951.76-5.45 2.258-1.498 1.498-2.258 3.332-2.258 5.449 0 2.118.76 3.951 2.259 5.45 1.498 1.498 3.332 2.258 5.449 2.258zM13.647 3.584c1.15-1.15 2.498-1.709 4.123-1.709s2.974.56 4.123 1.709c1.15 1.15 1.71 2.499 1.71 4.123 0 1.625-.56 2.974-1.71 4.124-1.15 1.15-2.498 1.708-4.123 1.708s-2.973-.559-4.123-1.708c-1.15-1.15-1.71-2.499-1.71-4.124 0-1.624.56-2.973 1.71-4.123zM31.258 24.606a19.024 19.024 0 00-.26-2.022 15.915 15.915 0 00-.497-2.033 10.037 10.037 0 00-.835-1.896 7.148 7.148 0 00-1.26-1.642 5.556 5.556 0 00-1.81-1.138 6.257 6.257 0 00-2.312-.418c-.326 0-.642.134-1.252.531-.376.245-.815.529-1.305.842-.42.267-.988.517-1.689.744a6.704 6.704 0 01-2.065.333c-.686 0-1.38-.112-2.065-.333-.701-.227-1.27-.477-1.688-.744-.485-.31-.925-.593-1.306-.842-.61-.397-.925-.531-1.252-.531-.832 0-1.61.14-2.31.419a5.553 5.553 0 00-1.811 1.137 7.147 7.147 0 00-1.26 1.642 10.06 10.06 0 00-.836 1.896c-.2.626-.367 1.31-.497 2.033a18.911 18.911 0 00-.259 2.023 27.386 27.386 0 00-.064 1.89c0 1.67.531 3.022 1.578 4.02C7.237 31.5 8.605 32 10.27 32h15.408c1.664 0 3.032-.5 4.066-1.483 1.048-.997 1.579-2.35 1.579-4.02 0-.645-.022-1.281-.065-1.89zm-2.807 4.552c-.683.65-1.59.966-2.773.966H10.27c-1.184 0-2.09-.316-2.774-.966-.67-.638-.996-1.509-.996-2.661 0-.6.02-1.192.06-1.76.038-.558.117-1.17.234-1.821.115-.643.262-1.247.437-1.793a8.19 8.19 0 01.68-1.542 5.3 5.3 0 01.926-1.213c.322-.308.727-.56 1.205-.749.441-.175.938-.27 1.476-.285.066.035.183.102.373.225.385.252.83.538 1.32.852.554.353 1.268.672 2.12.947.871.282 1.76.425 2.642.425.882 0 1.771-.143 2.642-.425.853-.276 1.566-.594 2.12-.948.503-.32.935-.6 1.32-.85.19-.124.307-.19.373-.226.539.015 1.035.11 1.477.285.477.19.883.441 1.204.749.344.329.655.737.926 1.214.284.499.513 1.018.68 1.541.176.547.323 1.15.438 1.792.117.652.196 1.265.234 1.822.04.566.06 1.158.06 1.76 0 1.153-.325 2.023-.996 2.66z"/></g><defs><filter id="bifilter0_d_166_8092" x="-2" y="0" width="40" height="40" filterUnits="userSpaceOnUse" color-interpolation-filters="sRGB"><feFlood flood-opacity="0" result="BackgroundImageFix"/><feColorMatrix in="SourceAlpha" values="0 0 0 0 0 0 0 0 0 0 0 0 0 0 0 0 0 0 127 0" result="hardAlpha"/><feOffset dy="4"/><feGaussianBlur stdDeviation="2"/><feComposite in2="hardAlpha" operator="out"/><feColorMatrix values="0 0 0 0 0 0 0 0 0 0 0 0 0 0 0 0 0 0 0.25 0"/><feBlend in2="BackgroundImageFix" result="effect1_dropShadow_166_8092"/><feBlend in="SourceGraphic" in2="effect1_dropShadow_166_8092" result="shape"/></filter></defs></svg><svg fill="none" viewBox="0 0 20 19" id="vc" xmlns="http://www.w3.org/2000/svg"><path fill-rule="evenodd" clip-rule="evenodd" d="M15.271.027c-1.539.16-2.956 1.29-3.474 2.77a4.13 4.13 0 00.042 2.922c.996 2.569 4.24 3.522 6.463 1.9.287-.208.852-.788.845-.866-.002-.021-.245-.22-.54-.443l-.538-.404-.298.301c-.597.606-1.594.93-2.414.788-1.353-.236-2.243-1.345-2.243-2.792 0-.878.269-1.555.845-2.127.789-.782 2.002-.989 3.15-.536l.364.143.018.713.017.712h1.399V1.054l-.473-.309c-.87-.568-2.042-.834-3.163-.718zM2.213.88l.017.682.708.017.708.017.088.225c.048.124.594 1.637 1.213 3.362L6.07 8.318h.67l.671.001 1.255-3.348L9.92 1.622l.666-.03.667-.03.017-.682.017-.682H8.872l-.999 2.894C7.324 4.685 6.86 6.006 6.84 6.03c-.02.023-.49-1.28-1.043-2.894L4.79.199H3.493L2.195.198l.017.682zm.597 9.775v.636H4.15v5.395H2.81v1.334h6.22v-1.334H5.606l.019-1.833.018-1.834.2-.405c.109-.222.322-.53.473-.685.31-.317.907-.62 1.278-.649l.244-.018-.022.59-.022.591h1.416v-2.425h-.818c-.927 0-1.35.096-1.86.422-.316.201-.794.66-.976.936l-.108.163-.04-.503c-.02-.276-.039-.618-.039-.76v-.258H2.809v.637zm7.906-.591c-.016.025-.024.332-.02.682l.01.636.588.018.589.017.029 2.165c.032 2.376.055 2.55.425 3.244.434.812 1.188 1.29 2.215 1.405.975.108 2.043-.387 2.526-1.172.084-.137.169-.249.189-.25.02 0 .074.265.122.59l.085.59 1.113.017 1.113.017V16.69l-.534-.017-.533-.018-.016-3.319-.016-3.319h-2.864v1.391l.674.017.674.017-.005 1.83c-.006 1.958-.019 2.06-.335 2.597-.195.33-.647.737-.998.896-.21.096-.406.13-.742.131-.797.003-1.256-.342-1.488-1.117-.083-.28-.098-.728-.098-3.045v-2.717h-1.337c-.736 0-1.35.02-1.366.046zM.017 17.338l.017.712h1.402l.018-.712.017-.712H0l.017.712z" fill="currentColor"/></svg><svg fill="none" viewBox="0 0 24 14" id="vector-right" xmlns="http://www.w3.org/2000/svg"><path d="M23.841 6.615l-5.454-5.454a.545.545 0 10-.77.769l4.523 4.527H.545a.545.545 0 000 1.091H22.14l-4.522 4.522a.545.545 0 10.769.769l5.454-5.455a.545.545 0 000-.769z" fill="currentColor"/></svg><svg fill="none" viewBox="0 0 20 12" id="vk" xmlns="http://www.w3.org/2000/svg"><path d="M19.894 10.6a1.36 1.36 0 00-.068-.13c-.347-.625-1.01-1.392-1.989-2.301l-.02-.021-.01-.01-.011-.01h-.01c-.445-.424-.726-.71-.844-.855-.216-.278-.264-.559-.146-.844.083-.215.396-.67.937-1.364.285-.367.51-.662.677-.885 1.201-1.596 1.722-2.617 1.562-3.061l-.062-.104c-.042-.062-.15-.12-.323-.172-.174-.052-.396-.06-.666-.026l-3 .021a.389.389 0 00-.208.005l-.135.032-.052.026-.042.031a.463.463 0 00-.114.11.716.716 0 00-.104.181c-.327.84-.698 1.621-1.114 2.343-.257.43-.493.804-.709 1.12a5.387 5.387 0 01-.541.697c-.146.15-.278.27-.396.36-.118.09-.208.128-.27.114a7.733 7.733 0 01-.178-.042.693.693 0 01-.234-.255 1.141 1.141 0 01-.12-.406 4.45 4.45 0 01-.036-.422 8.705 8.705 0 01.005-.5c.007-.215.01-.36.01-.437 0-.264.006-.55.016-.859l.026-.734c.007-.18.01-.371.01-.573 0-.201-.012-.359-.036-.473a1.62 1.62 0 00-.109-.334.561.561 0 00-.213-.25 1.203 1.203 0 00-.35-.14C10.66.348 10.192.303 9.623.296c-1.291-.013-2.12.07-2.489.25-.146.077-.278.18-.396.313-.125.152-.142.236-.052.25.417.062.712.211.885.447l.063.125c.049.09.097.25.146.48.048.228.08.482.093.76.035.506.035.94 0 1.301-.034.361-.067.642-.098.844a1.689 1.689 0 01-.266.718.18.18 0 01-.052.052.78.78 0 01-.281.052c-.098 0-.216-.048-.354-.146a2.499 2.499 0 01-.432-.4 5.36 5.36 0 01-.506-.714A12.448 12.448 0 015.3 3.545l-.166-.302a25.963 25.963 0 01-.427-.849c-.18-.371-.34-.73-.48-1.077a.687.687 0 00-.249-.334l-.052-.03a.713.713 0 00-.167-.09 1.105 1.105 0 00-.24-.067L.668.816c-.292 0-.49.067-.594.199l-.042.062A.337.337 0 000 1.244c0 .076.02.17.063.28.416.98.869 1.924 1.358 2.833.49.91.915 1.642 1.276 2.197.36.556.729 1.08 1.104 1.573.375.493.623.808.744.947.122.14.217.243.287.313l.26.25c.167.166.411.366.734.598.323.233.68.462 1.073.688.392.225.848.41 1.37.551.52.143 1.027.2 1.52.172h1.197c.243-.02.427-.097.552-.229l.041-.052a.687.687 0 00.078-.192c.025-.087.037-.183.037-.287a3.429 3.429 0 01.067-.807c.052-.239.111-.42.178-.541a1.329 1.329 0 01.4-.458.682.682 0 01.084-.037c.166-.055.362-.001.588.162.226.163.438.364.636.604.197.24.435.508.713.807.278.298.52.52.729.666l.208.125c.139.084.32.16.542.23.221.069.416.086.583.051l2.665-.041c.264 0 .469-.044.614-.13.146-.087.233-.183.26-.287a.805.805 0 00.006-.354 1.311 1.311 0 00-.073-.276z" fill="currentColor"/></svg></svg>